<svg width="30" height="30" viewBox="0 0 30 30" fill="none" xmlns="http://www.w3.org/2000/svg">
<rect width="30" height="30" rx="15" fill="#E0EE8D"/>
<path opacity="0.5" d="M19.0908 9.99988H8.63628C6.87901 9.99988 5.45446 11.4244 5.45446 13.1817C5.45446 14.939 6.87901 16.3635 8.63628 16.3635H19.0908V9.99988Z" fill="#171717" fill-opacity="0.25"/>
<path d="M12.8174 7.3634H22.2719C23.4769 7.3634 24.4537 8.34024 24.4537 9.54522C24.4537 10.7502 23.4769 11.727 22.2719 11.727H12.8174V7.3634Z" fill="#E0EE8D" stroke="black" stroke-width="2"/>
<path opacity="0.5" d="M19.0908 17.2726H11.8181C8.30356 17.2726 5.45446 20.1217 5.45446 23.6362H19.0908V17.2726Z" fill="#171717" fill-opacity="0.25"/>
<path d="M12.8174 14.6362H19.0901C21.7106 14.6362 23.8922 16.5155 24.3607 18.9999H12.8174V14.6362Z" fill="#E0EE8D" stroke="black" stroke-width="2"/>
</svg>
