<svg width="1218" height="648" viewBox="0 0 1218 648" fill="none" xmlns="http://www.w3.org/2000/svg">
<path d="M1.05719 45.3772L1.05713 70.9565L281.507 71.2133C285.481 71.2169 289.2 69.2525 291.437 65.9674L304.375 46.9664C306.61 43.6846 310.324 41.7206 314.294 41.7206H453.058L414.979 4.27576C412.734 2.06879 409.713 0.832031 406.565 0.832034L45.5277 0.832226C42.3403 0.832228 39.2839 2.10028 37.0327 4.35667L4.56219 36.9017C2.31771 39.1513 1.0572 42.1994 1.05719 45.3772Z" stroke="#9AF950" stroke-width="0.5"/>
<path d="M452.738 41.3739L452.811 41.4467H452.914H1206C1212.49 41.4467 1217.75 46.7073 1217.75 53.1967V601.081C1217.75 604.168 1216.54 607.13 1214.37 609.329L1180.79 643.402C1178.59 645.643 1175.57 646.904 1172.42 646.904H153.265C150.159 646.904 147.18 645.675 144.978 643.484L110.635 609.316C108.339 607.033 105.233 605.75 101.995 605.75H12.749C6.25968 605.75 0.999023 600.49 0.999023 594V45.4797C0.999023 42.3766 2.22653 39.3995 4.41361 37.1982L37.0306 4.36888C39.2363 2.14882 42.2365 0.900391 45.366 0.900391H407.197C410.302 0.900391 413.281 2.12964 415.483 4.31948L452.738 41.3739Z" stroke="#9AF950" stroke-width="0.5"/>
<path d="M400.915 0.791178L1165.11 0.791017C1168.29 0.791016 1171.34 2.05014 1173.58 4.29245L1215.03 45.6065" stroke="#9AF950" stroke-width="0.5"/>
<path d="M104.457 621.38L127.824 643.894C128.958 644.987 128.184 646.904 126.61 646.904H36.4479C33.3956 646.904 30.463 645.716 28.271 643.592L5.05835 621.098C3.92918 620.004 4.70381 618.091 6.27619 618.091H96.3044C99.3451 618.091 102.267 619.27 104.457 621.38Z" fill="#9AF950" stroke="#9AF950" stroke-width="0.5"/>
</svg>
