<svg version="1.2" xmlns="http://www.w3.org/2000/svg" viewBox="0 0 1218 71" width="1218" height="71">
	<title>lineBg-svg</title>
	<style>
		.s0 { fill: none;stroke: #00ff9f;stroke-width: .5 } 
		.s1 { fill: #00ff9f;stroke: #00ff9f;stroke-width: .5 } 
	</style>
	<path id="Layer" class="s0" d="m1.1 45.4v25.6l280.4 0.2c4 0 7.7-1.9 9.9-5.2l13-19c2.2-3.3 5.9-5.3 9.9-5.3h138.8l-38.1-37.4c-2.3-2.2-5.3-3.5-8.4-3.5h-361.1c-3.2 0-6.2 1.3-8.5 3.6l-32.4 32.5c-2.3 2.3-3.5 5.3-3.5 8.5z"/>
	<path id="Layer" class="s0" d="m452.7 41.4h0.1 0.1 753.1c6.5 0 11.7 5.3 11.7 11.8v547.9c0 3.1-1.2 6-3.3 8.2l-33.6 34.1c-2.2 2.2-5.2 3.5-8.4 3.5h-1019.1c-3.1 0-6.1-1.2-8.3-3.4l-34.4-34.2c-2.3-2.3-5.4-3.5-8.6-3.5h-89.3c-6.4 0-11.7-5.3-11.7-11.8v-548.5c0-3.1 1.2-6.1 3.4-8.3l32.6-32.8c2.2-2.3 5.2-3.5 8.4-3.5h361.8c3.1 0 6.1 1.2 8.3 3.4z"/>
	<path id="Layer" class="s0" d="m400.9 0.8h764.2c3.2 0 6.2 1.3 8.5 3.5l41.4 41.3"/>
	<path id="Layer" class="s1" d="m104.5 621.4l23.3 22.5c1.2 1.1 0.4 3-1.2 3h-90.2c-3 0-5.9-1.2-8.1-3.3l-23.2-22.5c-1.2-1.1-0.4-3 1.2-3h90c3 0 6 1.2 8.2 3.3z"/>
</svg>