<svg xmlns="http://www.w3.org/2000/svg" xmlns:xlink="http://www.w3.org/1999/xlink" fill="none" version="1.1" width="42" height="42" viewBox="0 0 42 42"><g><g><path d="M21,42Q21.5155,42,22.0304,41.9747Q22.5453,41.9494,23.0584,41.8989Q23.5714,41.8483,24.0813,41.7727Q24.5913,41.6971,25.0969,41.5965Q25.6025,41.4959,26.1026,41.3706Q26.6027,41.2454,27.096,41.0957Q27.5893,40.9461,28.0747,40.7724Q28.5601,40.5987,29.0363,40.4015Q29.5126,40.2042,29.9787,39.9838Q30.4447,39.7634,30.8993,39.5203Q31.354,39.2773,31.7962,39.0123Q32.2383,38.7473,32.667,38.4609Q33.0956,38.1744,33.5097,37.8674Q33.9238,37.5603,34.3223,37.2332Q34.7208,36.9062,35.1027,36.56Q35.4847,36.2138,35.8492,35.8492Q36.2138,35.4847,36.56,35.1027Q36.9062,34.7208,37.2332,34.3223Q37.5603,33.9238,37.8673,33.5097Q38.1744,33.0956,38.4609,32.667Q38.7473,32.2383,39.0123,31.7962Q39.2773,31.354,39.5203,30.8993Q39.7634,30.4447,39.9838,29.9787Q40.2042,29.5126,40.4015,29.0363Q40.5987,28.5601,40.7724,28.0747Q40.9461,27.5893,41.0957,27.096Q41.2454,26.6027,41.3707,26.1026Q41.4959,25.6025,41.5965,25.0969Q41.6971,24.5913,41.7727,24.0813Q41.8483,23.5714,41.8989,23.0584Q41.9494,22.5453,41.9747,22.0304Q42,21.5155,42,21Q42,20.4845,41.9747,19.9696Q41.9494,19.4547,41.8989,18.9416Q41.8483,18.4286,41.7727,17.9187Q41.6971,17.4087,41.5965,16.9031Q41.4959,16.3975,41.3706,15.8974Q41.2454,15.3973,41.0957,14.904Q40.9461,14.4107,40.7724,13.9253Q40.5987,13.4399,40.4015,12.9636Q40.2042,12.4874,39.9838,12.0213Q39.7634,11.5553,39.5203,11.1007Q39.2773,10.646,39.0123,10.2038Q38.7473,9.76166,38.4609,9.33302Q38.1744,8.90438,37.8674,8.49031Q37.5603,8.07624,37.2332,7.67774Q36.9062,7.27924,36.56,6.89726Q36.2138,6.51529,35.8492,6.15076Q35.4847,5.78623,35.1027,5.44003Q34.7208,5.09382,34.3223,4.76678Q33.9238,4.43974,33.5097,4.13264Q33.0956,3.82555,32.667,3.53914Q32.2383,3.25273,31.7962,2.9877Q31.354,2.72267,30.8993,2.47965Q30.4447,2.23664,29.9787,2.01622Q29.5126,1.79581,29.0363,1.59853Q28.5601,1.40125,28.0747,1.22757Q27.5893,1.0539,27.096,0.904253Q26.6027,0.754605,26.1026,0.629344Q25.6025,0.504082,25.0969,0.403509Q24.5913,0.302936,24.0813,0.227293Q23.5714,0.151651,23.0584,0.101121Q22.5453,0.0505908,22.0304,0.0252954Q21.5155,0,21,0Q20.4845,0,19.9696,0.0252954Q19.4547,0.0505908,18.9416,0.101121Q18.4286,0.151651,17.9187,0.227293Q17.4087,0.302936,16.9031,0.403509Q16.3975,0.504082,15.8974,0.629344Q15.3973,0.754605,14.904,0.904253Q14.4107,1.0539,13.9253,1.22757Q13.4399,1.40125,12.9636,1.59853Q12.4874,1.79581,12.0213,2.01622Q11.5553,2.23664,11.1007,2.47965Q10.646,2.72267,10.2038,2.9877Q9.76166,3.25273,9.33302,3.53914Q8.90438,3.82555,8.49031,4.13264Q8.07624,4.43974,7.67774,4.76678Q7.27924,5.09382,6.89726,5.44003Q6.51529,5.78623,6.15076,6.15076Q5.78623,6.51529,5.44003,6.89726Q5.09382,7.27924,4.76678,7.67774Q4.43974,8.07624,4.13264,8.49031Q3.82555,8.90438,3.53914,9.33302Q3.25273,9.76166,2.9877,10.2038Q2.72267,10.646,2.47965,11.1007Q2.23664,11.5553,2.01622,12.0213Q1.79581,12.4874,1.59853,12.9636Q1.40125,13.4399,1.22757,13.9253Q1.0539,14.4107,0.904253,14.904Q0.754605,15.3973,0.629344,15.8974Q0.504082,16.3975,0.403509,16.9031Q0.302936,17.4087,0.227293,17.9187Q0.151651,18.4286,0.101121,18.9416Q0.0505908,19.4547,0.0252954,19.9696Q0,20.4845,0,21Q0,21.5155,0.0252954,22.0304Q0.0505908,22.5453,0.101121,23.0584Q0.151651,23.5714,0.227293,24.0813Q0.302936,24.5913,0.403509,25.0969Q0.504082,25.6025,0.629344,26.1026Q0.754605,26.6027,0.904253,27.096Q1.0539,27.5893,1.22757,28.0747Q1.40125,28.5601,1.59853,29.0363Q1.79581,29.5126,2.01622,29.9787Q2.23664,30.4447,2.47965,30.8993Q2.72267,31.354,2.9877,31.7962Q3.25273,32.2383,3.53914,32.667Q3.82555,33.0956,4.13264,33.5097Q4.43974,33.9238,4.76678,34.3223Q5.09382,34.7208,5.44003,35.1027Q5.78623,35.4847,6.15076,35.8492Q6.51529,36.2138,6.89726,36.56Q7.27924,36.9062,7.67774,37.2332Q8.07624,37.5603,8.49031,37.8673Q8.90438,38.1744,9.33302,38.4609Q9.76166,38.7473,10.2038,39.0123Q10.646,39.2773,11.1007,39.5203Q11.5553,39.7634,12.0213,39.9838Q12.4874,40.2042,12.9636,40.4015Q13.4399,40.5987,13.9253,40.7724Q14.4107,40.9461,14.904,41.0957Q15.3973,41.2454,15.8974,41.3707Q16.3975,41.4959,16.9031,41.5965Q17.4087,41.6971,17.9187,41.7727Q18.4286,41.8483,18.9416,41.8989Q19.4547,41.9494,19.9696,41.9747Q20.4845,42,21,42ZM21,37.7999Q21.4124,37.7999,21.8243,37.7797Q22.2362,37.7595,22.6466,37.7191Q23.0571,37.6786,23.465,37.6181Q23.873,37.5576,24.2775,37.4771Q24.682,37.3967,25.082,37.2965Q25.4821,37.1963,25.8767,37.0765Q26.2714,36.9568,26.6597,36.8179Q27.048,36.6789,27.429,36.5211Q27.8101,36.3633,28.1829,36.187Q28.5557,36.0106,28.9194,35.8162Q29.2831,35.6218,29.6369,35.4098Q29.9906,35.1978,30.3335,34.9686Q30.6764,34.7395,31.0077,34.4938Q31.339,34.2482,31.6578,33.9865Q31.9766,33.7249,32.2821,33.4479Q32.5877,33.171,32.8793,32.8793Q33.171,32.5877,33.4479,32.2821Q33.7249,31.9766,33.9865,31.6578Q34.2482,31.339,34.4938,31.0077Q34.7395,30.6764,34.9686,30.3335Q35.1978,29.9906,35.4098,29.6369Q35.6218,29.2831,35.8162,28.9194Q36.0106,28.5557,36.187,28.1829Q36.3633,27.81,36.5211,27.429Q36.6789,27.048,36.8179,26.6597Q36.9568,26.2714,37.0765,25.8767Q37.1963,25.4821,37.2965,25.082Q37.3967,24.682,37.4771,24.2775Q37.5576,23.873,37.6181,23.465Q37.6786,23.0571,37.7191,22.6466Q37.7595,22.2362,37.7797,21.8243Q37.7999,21.4124,37.7999,21Q37.7999,20.5875,37.7797,20.1756Q37.7595,19.7637,37.7191,19.3533Q37.6786,18.9428,37.6181,18.5349Q37.5576,18.1269,37.4771,17.7224Q37.3967,17.3179,37.2965,16.9179Q37.1963,16.5178,37.0765,16.1232Q36.9568,15.7285,36.8179,15.3402Q36.6789,14.9519,36.5211,14.5709Q36.3633,14.1898,36.187,13.817Q36.0106,13.4442,35.8162,13.0805Q35.6218,12.7168,35.4098,12.363Q35.1978,12.0093,34.9686,11.6664Q34.7395,11.3235,34.4938,10.9922Q34.2482,10.6609,33.9865,10.3421Q33.7249,10.0233,33.4479,9.71776Q33.171,9.41218,32.8793,9.12056Q32.5877,8.82893,32.2821,8.55197Q31.9766,8.27501,31.6578,8.01338Q31.339,7.75174,31.0077,7.50606Q30.6764,7.26039,30.3335,7.03126Q29.9906,6.80213,29.6369,6.59011Q29.2831,6.37808,28.9194,6.18367Q28.5557,5.98926,28.1829,5.81293Q27.81,5.6366,27.429,5.47877Q27.048,5.32095,26.6597,5.18201Q26.2714,5.04307,25.8767,4.92335Q25.4821,4.80364,25.082,4.70343Q24.682,4.60322,24.2775,4.52276Q23.873,4.4423,23.465,4.38179Q23.0571,4.32127,22.6466,4.28085Q22.2362,4.24042,21.8243,4.22019Q21.4124,4.19995,21,4.19995Q20.5875,4.19995,20.1756,4.22019Q19.7637,4.24042,19.3533,4.28085Q18.9428,4.32127,18.5349,4.38179Q18.1269,4.4423,17.7224,4.52276Q17.3179,4.60322,16.9179,4.70343Q16.5178,4.80364,16.1232,4.92335Q15.7285,5.04307,15.3402,5.18201Q14.9519,5.32095,14.5709,5.47877Q14.1898,5.6366,13.817,5.81293Q13.4442,5.98926,13.0805,6.18367Q12.7168,6.37808,12.363,6.59011Q12.0093,6.80213,11.6664,7.03126Q11.3235,7.26039,10.9922,7.50606Q10.6609,7.75174,10.3421,8.01338Q10.0233,8.27501,9.71776,8.55197Q9.41218,8.82893,9.12056,9.12056Q8.82893,9.41218,8.55197,9.71776Q8.27501,10.0233,8.01338,10.3421Q7.75174,10.6609,7.50606,10.9922Q7.26039,11.3235,7.03126,11.6664Q6.80213,12.0093,6.59011,12.363Q6.37808,12.7168,6.18367,13.0805Q5.98926,13.4442,5.81293,13.817Q5.6366,14.1898,5.47877,14.5709Q5.32095,14.9519,5.18201,15.3402Q5.04307,15.7285,4.92335,16.1232Q4.80364,16.5178,4.70343,16.9179Q4.60322,17.3179,4.52276,17.7224Q4.4423,18.1269,4.38179,18.5349Q4.32127,18.9428,4.28085,19.3533Q4.24042,19.7637,4.22019,20.1756Q4.19995,20.5875,4.19995,21Q4.19995,21.4124,4.22019,21.8243Q4.24042,22.2362,4.28085,22.6466Q4.32127,23.0571,4.38179,23.465Q4.4423,23.873,4.52276,24.2775Q4.60322,24.682,4.70343,25.082Q4.80364,25.4821,4.92335,25.8767Q5.04307,26.2714,5.18201,26.6597Q5.32095,27.048,5.47877,27.429Q5.6366,27.8101,5.81293,28.1829Q5.98926,28.5557,6.18367,28.9194Q6.37808,29.2831,6.59011,29.6369Q6.80213,29.9906,7.03126,30.3335Q7.26039,30.6764,7.50606,31.0077Q7.75174,31.339,8.01338,31.6578Q8.27501,31.9766,8.55197,32.2821Q8.82893,32.5877,9.12056,32.8793Q9.41218,33.171,9.71776,33.4479Q10.0233,33.7249,10.3421,33.9865Q10.6609,34.2482,10.9922,34.4938Q11.3235,34.7395,11.6664,34.9686Q12.0093,35.1978,12.363,35.4098Q12.7168,35.6218,13.0805,35.8162Q13.4442,36.0106,13.817,36.187Q14.1898,36.3633,14.5709,36.5211Q14.9519,36.6789,15.3402,36.8179Q15.7285,36.9568,16.1232,37.0765Q16.5178,37.1963,16.9179,37.2965Q17.3179,37.3967,17.7224,37.4771Q18.1269,37.5576,18.5349,37.6181Q18.9428,37.6786,19.3533,37.7191Q19.7637,37.7595,20.1756,37.7797Q20.5875,37.7999,21,37.7999Z" fill-rule="evenodd" fill="#BEFE00" fill-opacity="1"/></g><g><path d="M25.199998917541503,21.000000061950683C25.199998917541503,21.000000061950683,26.614188917541505,22.414190061950684,26.614188917541505,22.414190061950684C26.614188917541505,22.414190061950684,28.028388917541506,21.000000061950683,28.028388917541506,21.000000061950683C28.028388917541506,21.000000061950683,26.614188917541505,19.585790061950682,26.614188917541505,19.585790061950682C26.614188917541505,19.585790061950682,25.199998917541503,21.000000061950683,25.199998917541503,21.000000061950683C25.199998917541503,21.000000061950683,25.199998917541503,21.000000061950683,25.199998917541503,21.000000061950683ZM15.385788917541504,14.014210061950683C15.385788917541504,14.014210061950683,23.785788917541502,22.414190061950684,23.785788917541502,22.414190061950684C23.785788917541502,22.414190061950684,26.614188917541505,19.585790061950682,26.614188917541505,19.585790061950682C26.614188917541505,19.585790061950682,18.214208917541505,11.185790061950684,18.214208917541505,11.185790061950684C18.214208917541505,11.185790061950684,15.385788917541504,14.014210061950683,15.385788917541504,14.014210061950683C15.385788917541504,14.014210061950683,15.385788917541504,14.014210061950683,15.385788917541504,14.014210061950683ZM23.785788917541502,19.585790061950682C23.785788917541502,19.585790061950682,15.385788917541504,27.985790061950684,15.385788917541504,27.985790061950684C15.385788917541504,27.985790061950684,18.214208917541505,30.814190061950683,18.214208917541505,30.814190061950683C18.214208917541505,30.814190061950683,26.614188917541505,22.414190061950684,26.614188917541505,22.414190061950684C26.614188917541505,22.414190061950684,23.785788917541502,19.585790061950682,23.785788917541502,19.585790061950682C23.785788917541502,19.585790061950682,23.785788917541502,19.585790061950682,23.785788917541502,19.585790061950682Z" fill="#BEFE00" fill-opacity="1"/></g></g></svg>