<svg xmlns="http://www.w3.org/2000/svg" xmlns:xlink="http://www.w3.org/1999/xlink" fill="none" version="1.1" width="48" height="48" viewBox="0 0 48 48"><defs><linearGradient x1="1.4301901885005464e-8" y1="0.2222222089767456" x2="0.9541984796524048" y2="0.7638888955116272" id="master_svg0_7_0103"><stop offset="0%" stop-color="#BEFE00" stop-opacity="1"/><stop offset="71.875%" stop-color="#30F200" stop-opacity="1"/><stop offset="100%" stop-color="#00F680" stop-opacity="1"/></linearGradient></defs><g><g><rect x="0" y="0" width="48" height="48" rx="24" fill="url(#master_svg0_7_0103)" fill-opacity="1"/></g><g><g><g><path d="M17.065120953674317,17.01613C17.065120953674317,17.01613,13.488370953674316,14.42431,13.488370953674316,14.42431C12.946170953674317,15.324580000000001,12.485010953674315,16.271250000000002,12.110330953674316,17.253149999999998C12.110330953674316,17.253149999999998,16.301490953674318,18.60941,16.301490953674318,18.60941C16.519930953674315,18.06175,16.775050953674317,17.52945,17.065120953674317,17.01613C17.065120953674317,17.01613,17.065120953674317,17.01613,17.065120953674317,17.01613C17.065120953674317,17.01613,17.065120953674317,17.01613,17.065120953674317,17.01613ZM20.503630953674318,13.0461C20.503630953674318,13.0461,17.275780953674317,10,17.275780953674317,10C16.283900953674316,10.832804,15.385530953674316,11.77102,14.596500953674315,12.79811C14.596500953674315,12.79811,18.162290953674315,15.381160000000001,18.162290953674315,15.381160000000001C18.842750953674315,14.50858,19.629250953674315,13.72419,20.503630953674318,13.0461C20.503630953674318,13.0461,20.503630953674318,13.0461,20.503630953674318,13.0461C20.503630953674318,13.0461,20.503630953674318,13.0461,20.503630953674318,13.0461ZM15.704640953674318,20.4946C15.704640953674318,20.4946,11.515668953674316,19.13831,11.515668953674316,19.13831C11.255033953674316,20.1527,11.084672753674317,21.188200000000002,11.006583663674316,22.2327C11.006583663674316,22.2327,15.419380953674317,22.2327,15.419380953674317,22.2327C15.476110953674317,21.6477,15.571400953674317,21.067,15.704640953674318,20.4946C15.704640953674318,20.4946,15.704640953674318,20.4946,15.704640953674318,20.4946C15.704640953674318,20.4946,15.704640953674318,20.4946,15.704640953674318,20.4946ZM16.117170953674318,27.9913C16.117170953674318,27.9913,11.932589953674317,29.3476,11.932589953674317,29.3476C12.287370953674316,30.3627,12.735470953674316,31.3428,13.271130953674316,32.2752C13.271130953674316,32.2752,16.858860953674316,29.6768,16.858860953674316,29.6768C16.572520953674317,29.1292,16.324690953674317,28.5624,16.117170953674318,27.9803C16.117170953674318,27.9803,16.117170953674318,27.9913,16.117170953674318,27.9913C16.117170953674318,27.9913,16.117170953674318,27.9913,16.117170953674318,27.9913ZM17.898960953674315,31.3534C17.898960953674315,31.3534,14.341960953674317,33.9277,14.341960953674317,33.9277C15.167890953674316,35.0612,16.125470953674316,36.0925,17.194590953674314,37.0001C17.194590953674314,37.0001,20.41586095367432,33.9584,20.41586095367432,33.9584C19.462330953674318,33.2044,18.615620953674316,32.3244,17.898960953674315,31.3425C17.898960953674315,31.3425,17.898960953674315,31.3534,17.898960953674315,31.3534C17.898960953674315,31.3534,17.898960953674315,31.3534,17.898960953674315,31.3534ZM15.388650953674317,24.5282C15.388650953674317,24.5282,11.000000953674316,24.5282,11.000000953674316,24.5282C11.050150953674317,25.5135,11.183008953674316,26.4928,11.397173953674317,27.4558C11.397173953674317,27.4558,15.608090953674317,26.093,15.608090953674317,26.093C15.505540953674316,25.5723,15.432280953674317,25.0462,15.388650953674317,24.5173C15.388650953674317,24.5173,15.388650953674317,24.5282,15.388650953674317,24.5282C15.388650953674317,24.5282,15.388650953674317,24.5282,15.388650953674317,24.5282Z" fill-rule="evenodd" fill="#314F00" fill-opacity="1"/></g></g><g><g><path d="M28.600267839660646,15.007925508525489C26.566537839660644,15.00874640606549,24.600017839660644,15.73631660306549,23.055377839660643,17.05942360306549C21.510747839660645,18.38252360306549,20.489649839660643,20.21407360306549,20.176244939660645,22.22376360306549C20.176244939660645,22.22376360306549,24.496877839660645,22.22376360306549,24.496877839660645,22.22376360306549C24.811957839660643,21.22977360306549,25.476647839660643,20.38372360306549,26.367767839660644,19.842413603065488C27.258887839660645,19.30110360306549,28.316007839660642,19.10122360306549,29.343217839660646,19.27983360306549C30.370427839660643,19.45844360306549,31.298027839660644,20.00342360306549,31.954227839660646,20.81377360306549C32.61032783966064,21.624123603065488,32.950527839660644,22.64490360306549,32.91172783966064,23.68691360306549C32.872827839660644,24.72893360306549,32.457627839660645,25.72152360306549,31.742927839660645,26.480823603065488C31.028227839660644,27.240023603065488,30.062637839660646,27.71442360306549,29.024987839660646,27.81602360306549C27.987327839660644,27.91762360306549,26.948027839660647,27.63952360306549,26.099687839660646,27.033423603065486C25.251347839660646,26.42722360306549,24.651487839660646,25.53402360306549,24.411287839660645,24.51931360306549C24.411287839660645,24.51931360306549,20.145527839660645,24.51931360306549,20.145527839660645,24.51931360306549C20.336796839660643,26.15102360306549,20.995728839660643,27.692723603065488,22.042947839660645,28.95842360306549C23.090167839660644,30.22422360306549,24.481007839660645,31.16022360306549,26.047897839660646,31.65352360306549C27.614787839660643,32.14692360306549,29.290887839660645,32.176623603065494,30.874327839660644,31.73922360306549C32.45772783966065,31.30172360306549,33.88082783966065,30.41562360306549,34.97222783966065,29.18782360306549C36.06372783966064,27.95992360306549,36.776927839660644,26.442723603065488,37.025927839660646,24.81875360306549C37.27492783966065,23.194823603065487,37.04912783966064,21.53352360306549,36.37572783966064,20.034993603065487C35.70232783966065,18.53646360306549,34.610027839660646,17.26463360306549,33.230527839660645,16.37271360306549C31.850927839660642,15.48078860306549,30.242927839660645,15.00682692306549,28.600267839660646,15.007925508525489C28.600267839660646,15.007925508525489,28.600267839660646,15.007925508525489,28.600267839660646,15.007925508525489C28.600267839660646,15.007925508525489,28.600267839660646,15.007925508525489,28.600267839660646,15.007925508525489Z" fill-rule="evenodd" fill="#314F00" fill-opacity="1"/></g></g></g></g></svg>