<svg xmlns="http://www.w3.org/2000/svg" xmlns:xlink="http://www.w3.org/1999/xlink" fill="none" version="1.1" width="97" height="97" viewBox="0 0 97 97"><g><g><ellipse cx="48.5" cy="48.5" rx="48.5" ry="48.5" fill="#171717" fill-opacity="1"/><ellipse cx="48.5" cy="48.5" rx="48" ry="48" fill-opacity="0" stroke-opacity="1" stroke="#80AE0E" fill="none" stroke-width="1"/></g><g><ellipse cx="48.7650260925293" cy="16.961748123168945" rx="7.420764923095703" ry="7.420764923095703" fill="#171717" fill-opacity="1"/><ellipse cx="48.7650260925293" cy="16.961748123168945" rx="6.920764923095703" ry="6.920764923095703" fill-opacity="0" stroke-opacity="1" stroke="#80AE0E" fill="none" stroke-width="1"/></g><g><ellipse cx="48.7650260925293" cy="74.20764541625977" rx="7.420764923095703" ry="7.420764923095703" fill="#171717" fill-opacity="1"/><ellipse cx="48.7650260925293" cy="74.20764541625977" rx="6.920764923095703" ry="6.920764923095703" fill-opacity="0" stroke-opacity="1" stroke="#80AE0E" fill="none" stroke-width="1"/></g><g><ellipse cx="77.91803359985352" cy="46.644805908203125" rx="7.420764923095703" ry="7.420764923095703" fill="#171717" fill-opacity="1"/><ellipse cx="77.91803359985352" cy="46.644805908203125" rx="6.920764923095703" ry="6.920764923095703" fill-opacity="0" stroke-opacity="1" stroke="#80AE0E" fill="none" stroke-width="1"/></g><g><ellipse cx="19.612021446228027" cy="46.644805908203125" rx="7.420764923095703" ry="7.420764923095703" fill="#171717" fill-opacity="1"/><ellipse cx="19.612021446228027" cy="46.644805908203125" rx="6.920764923095703" ry="6.920764923095703" fill-opacity="0" stroke-opacity="1" stroke="#80AE0E" fill="none" stroke-width="1"/></g><g><ellipse cx="48.76502752304077" cy="46.6448073387146" rx="5.300546169281006" ry="5.300546169281006" fill="#80AE0E" fill-opacity="1"/></g><g><ellipse cx="19.612021923065186" cy="46.64480924606323" rx="3.180327892303467" ry="3.180327892303467" fill="#80AE0E" fill-opacity="1"/></g><g><ellipse cx="77.91802930831909" cy="46.64480924606323" rx="3.180327892303467" ry="3.180327892303467" fill="#80AE0E" fill-opacity="1"/></g><g transform="matrix(0,1,-1,0,72.61748504638672,-24.912567138671875)"><line x1="48.7650260925293" y1="23.352458953857422" x2="91.6994514465332" y2="23.352458953857422" fill-opacity="0" stroke-opacity="1" stroke="#80AE0E" fill="none" stroke-width="1"/></g><g transform="matrix(-1,1.2246467202362698e-16,-1.2246469849340659e-16,-1,142.0546417236328,93.28961181640625)"><line x1="71.0273208618164" y1="46.144805908203125" x2="115.02185440063477" y2="46.144805908203125" fill-opacity="0" stroke-opacity="1" stroke="#80AE0E" fill="none" stroke-width="1"/></g></g></svg>