<svg xmlns="http://www.w3.org/2000/svg" xmlns:xlink="http://www.w3.org/1999/xlink" fill="none" version="1.1" width="97" height="97" viewBox="0 0 97 97"><g><g><path d="M97,48.5C97,75.2858,75.2858,97,48.5,97C21.7142,97,0,75.2858,0,48.5C0,21.7142,21.7142,0,48.5,0C75.2858,0,97,21.7142,97,48.5C97,48.5,97,48.5,97,48.5Z" fill="#171717" fill-opacity="1"/><path d="M97,48.5C97,75.2858,75.2858,97,48.5,97C21.7142,97,0,75.2858,0,48.5C0,21.7142,21.7142,0,48.5,0C75.2858,0,97,21.7142,97,48.5ZM96,48.5Q96,38.8356,92.2676,30.0112Q88.6623,21.4871,82.0876,14.9124Q75.5129,8.33773,66.9888,4.73237Q58.1645,1,48.5,1Q38.8355,1,30.0112,4.73237Q21.4871,8.33772,14.9124,14.9124Q8.33774,21.4871,4.73237,30.0112Q1,38.8355,1,48.5Q1,58.1645,4.73237,66.9888Q8.33773,75.5128,14.9124,82.0876Q21.4871,88.6623,30.0112,92.2676Q38.8355,96,48.5,96Q58.1644,96,66.9888,92.2676Q75.5128,88.6623,82.0876,82.0876Q88.6623,75.5128,92.2676,66.9888Q96,58.1644,96,48.5Z" fill-rule="evenodd" fill="#80AE0E" fill-opacity="1"/></g><g><path d="M34.45355224609375,49.030055C34.45355224609375,49.030055,62.81145224609375,49.030055,62.81145224609375,49.030055C62.81145224609375,49.030055,62.81145224609375,48.5,62.81145224609375,48.5C62.81145224609375,48.5,34.45355224609375,48.5,34.45355224609375,48.5C34.45355224609375,48.5,34.45355224609375,49.030055,34.45355224609375,49.030055C34.45355224609375,49.030055,34.45355224609375,49.030055,34.45355224609375,49.030055Z" fill="#80AE0E" fill-opacity="1"/></g><g transform="matrix(1,0,0,-1,0,112.37158203125)"><ellipse cx="69.96721267700195" cy="63.6065559387207" rx="7.420764923095703" ry="7.420764923095703" fill="#171717" fill-opacity="1"/><ellipse cx="69.96721267700195" cy="63.6065559387207" rx="6.920764923095703" ry="6.920764923095703" fill-opacity="0" stroke-opacity="1" stroke="#80AE0E" fill="none" stroke-width="1"/></g><g transform="matrix(1,0,0,-1,0,112.37158203125)"><ellipse cx="27.562841415405273" cy="63.6065559387207" rx="7.420764923095703" ry="7.420764923095703" fill="#80AE0E" fill-opacity="1"/></g></g></svg>