<svg width="55" height="56" viewBox="0 0 55 56" fill="none" xmlns="http://www.w3.org/2000/svg">
<rect x="0.25" y="0.75" width="54.5" height="54.5" rx="27.25" fill="black" stroke="white" stroke-width="0.5"/>
<mask id="mask0_1168_86948" style="mask-type:alpha" maskUnits="userSpaceOnUse" x="11" y="12" width="33" height="32">
<rect x="11.6875" y="12.1875" width="31.625" height="31.625" fill="#D9D9D9"/>
</mask>
<g mask="url(#mask0_1168_86948)">
<path fill-rule="evenodd" clip-rule="evenodd" d="M27.7603 17.5232C28.0948 17.3657 28.4627 17.2924 28.832 17.3098H28.8378C29.219 17.3277 29.5896 17.4416 29.915 17.6409C30.2404 17.8403 30.5101 18.1187 30.6992 18.4502C30.8883 18.7817 30.9905 19.1556 30.9964 19.5371C31.0023 19.9187 30.9117 20.2956 30.733 20.6328C30.5543 20.97 30.2933 21.2566 29.9742 21.4659C29.6551 21.6752 29.2883 21.8006 28.9078 21.8302C28.5274 21.8599 28.1456 21.7929 27.7979 21.6355C27.4502 21.4782 27.148 21.2355 26.9192 20.9301C26.867 20.8597 26.7988 20.8028 26.7202 20.764C26.6416 20.7252 26.555 20.7057 26.4674 20.7071V26.956H23.4104V26.7682C23.4088 25.6187 22.9515 24.5167 22.1387 23.7039C21.3258 22.891 20.2238 22.4337 19.0743 22.4321H18.7985C17.7356 22.4974 16.7341 22.9526 15.9859 23.7105C15.2377 24.4684 14.7956 25.4757 14.7441 26.5394V26.9384H13.3476C13.3352 26.9384 13.3228 26.9383 13.3104 26.938H11.6875V25.3148C11.6873 25.3025 11.6871 25.2902 11.6871 25.2779V20.6895C11.6005 20.6901 11.515 20.7098 11.4369 20.7474C11.3588 20.7849 11.2899 20.8393 11.2353 20.9066C11.0153 21.2043 10.7248 21.4427 10.39 21.6004C10.0551 21.7581 9.68628 21.8302 9.31666 21.8102C8.9354 21.7933 8.56464 21.6801 8.23897 21.4811C7.91331 21.2821 7.64336 21.0039 7.45432 20.6724C7.26528 20.3409 7.16332 19.9669 7.15794 19.5853C7.15256 19.2037 7.24395 18.8269 7.42357 18.4902C7.60319 18.1535 7.86519 17.8678 8.18512 17.6597C8.50505 17.4516 8.87247 17.328 9.2531 17.3004C9.63373 17.2727 10.0152 17.342 10.3618 17.5016C10.7084 17.6613 11.0089 17.9062 11.2353 18.2134C11.2894 18.2818 11.3579 18.3373 11.4361 18.3759C11.5142 18.4144 11.6 18.4351 11.6871 18.4364V13.8421C11.6887 13.4028 11.6871 12.1875 11.6871 12.1875H13.3476H24.801L26.4615 12.1876C26.4615 12.1876 26.4599 13.4028 26.4615 13.8421V18.4364C26.5486 18.4351 26.6344 18.4144 26.7125 18.3759C26.7907 18.3373 26.8593 18.2818 26.9133 18.2134C27.1351 17.9177 27.4259 17.6807 27.7603 17.5232Z" fill="#F1404B"/>
<path fill-rule="evenodd" clip-rule="evenodd" d="M26.2731 32.084H26.4609V29.0329H20.1827C20.1839 28.9457 20.2046 28.86 20.2432 28.7818C20.2818 28.7037 20.3372 28.6351 20.4056 28.5811C20.7849 28.2966 21.0651 27.9 21.2065 27.4474C21.3478 26.9949 21.3432 26.5093 21.1933 26.0595C21.0434 25.6097 20.7557 25.2185 20.3711 24.9413C19.9865 24.6641 19.5244 24.5149 19.0502 24.5149C18.5761 24.5149 18.114 24.6641 17.7294 24.9413C17.3448 25.2185 17.0571 25.6097 16.9072 26.0595C16.7572 26.5093 16.7526 26.9949 16.894 27.4474C17.0354 27.9 17.3155 28.2966 17.6948 28.5811C17.7632 28.6351 17.8187 28.7037 17.8573 28.7818C17.8959 28.86 17.9165 28.9457 17.9178 29.0329H13.347L13.3184 29.0331H11.6875V30.635C11.6869 30.6544 11.6865 30.6739 11.6865 30.6934V42.1467C11.6865 42.1662 11.6869 42.1857 11.6875 42.2051V43.8125H23.4098V43.8248H24.8063C24.8741 43.8248 24.9415 43.8207 25.0081 43.8125H26.467V41.0221H26.4668V40.7679H26.0502C24.9859 40.715 23.9785 40.2716 23.2208 39.5225C22.463 38.7733 22.008 37.7711 21.9429 36.7076V36.5726C21.94 36.5277 21.94 36.4826 21.9429 36.4376C21.9406 35.8672 22.0509 35.302 22.2674 34.7743C22.4839 34.2465 22.8024 33.7667 23.2046 33.3623C23.6069 32.9578 24.085 32.6367 24.6115 32.4174C25.1381 32.198 25.7027 32.0847 26.2731 32.084Z" fill="#005AFC"/>
<path fill-rule="evenodd" clip-rule="evenodd" d="M43.3122 30.6725V29.0324H41.6069V29.0327H40.2553V29.4317C40.2039 30.4955 39.7617 31.5028 39.0135 32.2607C38.2654 33.0186 37.2638 33.4738 36.2009 33.539H35.9251C34.7756 33.5374 33.6736 33.0801 32.8608 32.2673C32.0479 31.4544 31.5906 30.3524 31.589 29.2029V29.0151H28.5321V35.3051C28.4449 35.3038 28.3592 35.2831 28.281 35.2446C28.2029 35.206 28.1343 35.1505 28.0803 35.0821C27.7892 34.6912 27.3795 34.4048 26.9123 34.2659C26.4452 34.1269 25.9456 34.1428 25.4882 34.3111C25.0308 34.4794 24.64 34.7911 24.3744 35.1998C24.1087 35.6084 23.9823 36.092 24.0141 36.5783C24.0532 37.1322 24.2928 37.6528 24.6881 38.0427C25.0834 38.4326 25.6072 38.6651 26.1616 38.6965C26.5309 38.7144 26.899 38.6414 27.2336 38.4839C27.5681 38.3263 27.8588 38.0891 28.0803 37.7929C28.1343 37.7245 28.2029 37.669 28.281 37.6305C28.3592 37.5919 28.4449 37.5712 28.5321 37.57V41.332H28.532L28.532 43.8251H30.2902V43.8247H31.5949V43.4257C31.6464 42.362 32.0885 41.3547 32.8367 40.5968C33.5849 39.8389 34.5864 39.3837 35.6493 39.3185H35.9192C37.0688 39.32 38.1708 39.7774 38.9836 40.5902C39.7964 41.403 40.2538 42.505 40.2553 43.6546V43.8423H41.6518L41.6815 43.842H43.3122V42.2026L43.3123 42.1818V30.6932C43.3123 30.6863 43.3122 30.6794 43.3122 30.6725Z" fill="#FF9D00"/>
<path fill-rule="evenodd" clip-rule="evenodd" d="M41.7881 12.1875C41.7411 12.1835 41.6937 12.1815 41.6461 12.1815H37.0519C37.0531 12.0943 37.0738 12.0086 37.1124 11.9304C37.151 11.8523 37.2064 11.7837 37.2748 11.7297C37.6658 11.4386 37.9521 11.0289 38.0911 10.5618C38.23 10.0946 38.2142 9.595 38.0459 9.13759C37.8776 8.68017 37.5658 8.28946 37.1572 8.02379C36.7486 7.75811 36.265 7.63173 35.7786 7.6635C35.3166 7.69303 34.8746 7.86346 34.5124 8.15184C34.1502 8.44022 33.885 8.8327 33.7527 9.27639C33.6204 9.72008 33.6272 10.1937 33.7722 10.6334C33.9173 11.073 34.1937 11.4577 34.564 11.7355C34.6317 11.7889 34.6867 11.8566 34.7252 11.9336C34.7638 12.0107 34.7849 12.0953 34.787 12.1815H30.1928H28.5323C28.5323 12.1815 28.5338 13.3967 28.5323 13.8361V15.2326H28.9312C29.9955 15.2854 31.0029 15.7289 31.7606 16.478C32.5184 17.2271 32.9734 18.2293 33.0385 19.2929V19.463C33.0414 19.508 33.0414 19.5531 33.0385 19.598C33.0385 20.748 32.5817 21.8509 31.7685 22.6641C30.9553 23.4772 29.8524 23.9341 28.7024 23.9341H28.5146V26.9852H34.7694C34.7681 27.0723 34.7474 27.1581 34.7089 27.2362C34.6703 27.3144 34.6148 27.3829 34.5464 27.437C34.1671 27.7214 33.887 28.118 33.7456 28.5706C33.6042 29.0232 33.6088 29.5087 33.7588 29.9585C33.9087 30.4083 34.1964 30.7995 34.581 31.0767C34.9656 31.354 35.4277 31.5032 35.9018 31.5032C36.3759 31.5032 36.8381 31.354 37.2227 31.0767C37.6073 30.7995 37.895 30.4083 38.0449 29.9585C38.1948 29.5087 38.1994 29.0232 38.0581 28.5706C37.9167 28.118 37.6365 27.7214 37.2572 27.437C37.1888 27.3829 37.1334 27.3144 37.0948 27.2362C37.0562 27.1581 37.0355 27.0723 37.0343 26.9852H41.6285C41.8466 26.9852 42.382 26.9923 42.382 26.9923H43.289V25.9847C43.2927 25.8648 43.2914 25.708 43.2902 25.5521C43.2896 25.4745 43.289 25.3971 43.289 25.3247V24.483L43.3209 14.2028L43.3122 14.2063V12.1875H41.7881Z" fill="#1EE3CF"/>
</g>
</svg>
