<svg xmlns="http://www.w3.org/2000/svg" xmlns:xlink="http://www.w3.org/1999/xlink" fill="none" version="1.1" width="97" height="97" viewBox="0 0 97 97"><g><g><ellipse cx="48.5" cy="48.5" rx="48.5" ry="48.5" fill="#171717" fill-opacity="1"/></g><g><path d="M32.454585494995115,24.25L64.9496354949951,24.25C67.68983549499512,24.25,69.92083549499512,26.481,69.92083549499512,29.2455L69.92083549499512,72.75L64.70703549499513,68.1425L61.772835494995114,65.4265L58.66883549499512,62.5408L59.95403549499512,67.027L32.454585494995115,67.027C29.71433549499512,67.027,27.483335494995117,64.79599999999999,27.483335494995117,62.0315L27.483335494995117,29.2455C27.483335494995117,26.481,29.71433549499512,24.25,32.454585494995115,24.25ZM53.98853549499512,53.956199999999995C54.71603549499512,54.877700000000004,55.58913549499512,55.920500000000004,55.58913549499512,55.920500000000004C60.94833549499512,55.7508,63.009635494995116,52.2345,63.009635494995116,52.2345C63.009635494995116,44.426,59.51763549499512,38.0967,59.51763549499512,38.0967C56.02553549499512,35.4777,52.703335494995116,35.5505,52.703335494995116,35.5505L52.363835494995115,35.9385C56.48633549499512,37.1995,58.40203549499512,39.0182,58.40203549499512,39.0182C55.88003549499511,37.635999999999996,53.40653549499512,36.957,51.10283549499512,36.690200000000004C49.35683549499512,36.4962,47.68353549499511,36.5448,46.20433549499512,36.7387C46.05883549499512,36.7387,45.93753549499512,36.763,45.79213549499512,36.7873C44.94333549499512,36.86,42.882035494995115,37.175200000000004,40.28733549499512,38.315C39.39003549499512,38.727199999999996,38.856535494995114,39.0182,38.856535494995114,39.0182C38.856535494995114,39.0182,40.86933549499511,37.1025,45.23433549499512,35.841499999999996L44.991835494995115,35.5505C44.991835494995115,35.5505,41.66963549499512,35.4777,38.177635494995116,38.0967C38.177635494995116,38.0967,34.68558549499512,44.426,34.68558549499512,52.2345C34.68558549499512,52.2345,36.722585494995116,55.7508,42.08183549499512,55.920500000000004C42.08183549499512,55.920500000000004,42.97903549499512,54.8292,43.70663549499511,53.9077C40.62683549499512,52.9863,39.46283549499512,51.0463,39.46283549499512,51.0463C39.46283549499512,51.0463,39.70533549499512,51.216,40.14183549499512,51.4585C40.166035494995114,51.4827,40.19033549499512,51.507000000000005,40.238835494995115,51.5312C40.31153549499512,51.5797,40.38433549499511,51.604,40.457135494995114,51.6525C41.063335494995115,51.992000000000004,41.66963549499512,52.2588,42.22733549499512,52.477000000000004C43.221535494995116,52.864999999999995,44.40983549499512,53.253,45.79213549499512,53.5197C47.610835494995115,53.859300000000005,49.744835494995115,53.9805,52.07283549499512,53.544C53.212535494995116,53.35,54.37653549499512,53.0105,55.58913549499512,52.5013C56.43783549499511,52.186,57.383535494995115,51.725300000000004,58.37783549499512,51.070499999999996C58.37783549499512,51.070499999999996,57.16533549499512,53.059,53.98853549499512,53.956199999999995ZM41.83933549499512,47.2875C41.83933549499512,45.8083,42.93053549499512,44.5958,44.31283549499511,44.5958C45.695135494995114,44.5958,46.81063549499512,45.8083,46.786335494995114,47.2875C46.786335494995114,48.7667,45.695135494995114,49.9792,44.31283549499511,49.9792C42.954835494995116,49.9792,41.83933549499512,48.7667,41.83933549499512,47.2875ZM50.69053549499512,47.2875C50.69053549499512,45.8083,51.78183549499512,44.5958,53.16403549499512,44.5958C54.54633549499512,44.5958,55.637635494995116,45.8083,55.637635494995116,47.2875C55.637635494995116,48.7667,54.54633549499512,49.9792,53.16403549499512,49.9792C51.806035494995115,49.9792,50.69053549499512,48.7667,50.69053549499512,47.2875Z" fill-rule="evenodd" fill="#80AE0E" fill-opacity="1"/></g></g></svg>