<svg width="97" height="97" viewBox="0 0 97 97" fill="none" xmlns="http://www.w3.org/2000/svg">
<path d="M48.5 97C75.2858 97 97 75.2858 97 48.5C97 21.7142 75.2858 0 48.5 0C21.7142 0 0 21.7142 0 48.5C0 75.2858 21.7142 97 48.5 97Z" fill="#171717"/>
<path d="M66.8276 31.263L25.1946 47.5547C22.3533 48.7128 22.3698 50.3213 24.6733 51.0385L35.3622 54.4222L60.093 38.588C61.2624 37.866 62.3308 38.2544 61.4526 39.0455L41.4157 57.396H41.411L41.4157 57.3984L40.6784 68.5788C41.7586 68.5788 42.2352 68.0761 42.8411 67.4827L48.0329 62.3595L58.8321 70.4542C60.8233 71.567 62.2533 70.9951 62.7488 68.5836L69.8379 34.6801C70.5635 31.7277 68.7272 30.3909 66.8276 31.263Z" fill="#00FF9F"/>
</svg>
