<svg xmlns="http://www.w3.org/2000/svg" xmlns:xlink="http://www.w3.org/1999/xlink" fill="none" version="1.1" width="97" height="97" viewBox="0 0 97 97"><g><g><ellipse cx="48.5" cy="48.5" rx="48.5" ry="48.5" fill="#171717" fill-opacity="1"/></g><g><path d="M72.75,33.64688991821289C70.93119999999999,34.55625991821289,69.1125,34.85938991821289,66.9906,35.16250991821289C69.1125,33.95000991821289,70.6281,32.13125991821289,71.2344,29.70625891821289C69.4156,30.918759918212892,67.2938,31.52500991821289,64.86869999999999,32.13125991821289C63.05,30.31250991821289,60.3219,29.10000991821289,57.5938,29.10000991821289C51.2281,29.10000991821289,46.3781,35.16250991821289,47.893699999999995,41.22500991821289C39.7094,40.92190991821289,32.43437,36.98125991821289,27.28125,30.918759918212892C24.553125,35.46562991821289,26.06875,41.22500991821289,30.3125,44.25620991821289C28.79688,44.25620991821289,27.28125,43.65000991821289,25.76562,43.04380991821289C25.76562,47.59060991821289,29.1,51.83440991821289,33.64687,53.04690991821289C32.13125,53.35000991821289,30.61562,53.65310991821289,29.1,53.35000991821289C30.3125,57.290609918212894,33.95,60.321909918212896,38.4969,60.321909918212896C34.8594,63.05000991821289,29.40313,64.56560991821289,24.25,63.95940991821289C28.79688,66.6875099182129,33.95,68.50620991821289,39.4062,68.50620991821289C57.8969,68.50620991821289,68.2031,53.04690991821289,67.5969,38.80000991821289C69.7188,37.58750991821289,71.5375,35.76875991821289,72.75,33.64688991821289C72.75,33.64688991821289,72.75,33.64688991821289,72.75,33.64688991821289Z" fill="#80AE0E" fill-opacity="1"/></g></g></svg>