<svg xmlns="http://www.w3.org/2000/svg" xmlns:xlink="http://www.w3.org/1999/xlink" fill="none" version="1.1" width="97" height="97" viewBox="0 0 97 97"><g><g><ellipse cx="48.5" cy="48.5" rx="48.5" ry="48.5" fill="#171717" fill-opacity="1"/></g><g><path d="M72.75,33.64697765625C70.93119999999999,34.55634765625,69.1125,34.85947765625,66.9906,35.16259765625C69.1125,33.95009765625,70.6281,32.13134765625,71.2344,29.70634665625C69.4156,30.91884765625,67.2938,31.52509765625,64.86869999999999,32.13134765625C63.05,30.31259765625,60.3219,29.10009765625,57.5938,29.10009765625C51.2281,29.10009765625,46.3781,35.16259765625,47.893699999999995,41.22509765625C39.7094,40.92199765625,32.43437,36.98134765625,27.28125,30.91884765625C24.553125,35.46571765625,26.06875,41.22509765625,30.3125,44.25629765625C28.79688,44.25629765625,27.28125,43.65009765625,25.76562,43.043897656249996C25.76562,47.59069765625,29.1,51.83449765625,33.64687,53.04699765625C32.13125,53.35009765625,30.61562,53.65319765625,29.1,53.35009765625C30.3125,57.29069765625,33.95,60.321997656250005,38.4969,60.321997656250005C34.8594,63.05009765625,29.40313,64.56569765625,24.25,63.95949765625C28.79688,66.68759765625,33.95,68.50629765625,39.4062,68.50629765625C57.8969,68.50629765625,68.2031,53.04699765625,67.5969,38.80009765625C69.7188,37.58759765625,71.5375,35.76884765625,72.75,33.64697765625C72.75,33.64697765625,72.75,33.64697765625,72.75,33.64697765625Z" fill="#9AF950" fill-opacity="1"/></g></g></svg>