<svg xmlns="http://www.w3.org/2000/svg" xmlns:xlink="http://www.w3.org/1999/xlink" fill="none" version="1.1" width="32" height="32" viewBox="0 0 32 32"><g><g><path d="M16,32Q16.3928,32,16.7851,31.9807Q17.1774,31.9614,17.5683,31.923Q17.9592,31.8844,18.3477,31.8268Q18.7362,31.7692,19.1214,31.6926Q19.5067,31.6159,19.8877,31.5205Q20.2687,31.4251,20.6446,31.311Q21.0204,31.197,21.3902,31.0647Q21.76,30.9324,22.1229,30.7821Q22.4858,30.6318,22.8409,30.4638Q23.1959,30.2959,23.5423,30.1107Q23.8887,29.9256,24.2256,29.7236Q24.5625,29.5217,24.8891,29.3035Q25.2157,29.0853,25.5312,28.8513Q25.8467,28.6173,26.1503,28.3682Q26.4539,28.119,26.7449,27.8552Q27.036,27.5914,27.3137,27.3137Q27.5914,27.036,27.8552,26.7449Q28.119,26.4539,28.3682,26.1503Q28.6173,25.8467,28.8513,25.5312Q29.0853,25.2157,29.3035,24.8891Q29.5217,24.5625,29.7236,24.2256Q29.9256,23.8887,30.1107,23.5423Q30.2959,23.1959,30.4638,22.8409Q30.6318,22.4858,30.7821,22.1229Q30.9324,21.7601,31.0647,21.3902Q31.197,21.0204,31.311,20.6446Q31.4251,20.2687,31.5205,19.8877Q31.6159,19.5067,31.6926,19.1214Q31.7692,18.7362,31.8268,18.3477Q31.8844,17.9592,31.9229,17.5683Q31.9614,17.1774,31.9807,16.7851Q32,16.3928,32,16Q32,15.6072,31.9807,15.2149Q31.9614,14.8226,31.923,14.4317Q31.8844,14.0408,31.8268,13.6523Q31.7692,13.2638,31.6926,12.8786Q31.6159,12.4933,31.5205,12.1123Q31.4251,11.7313,31.311,11.3554Q31.197,10.9796,31.0647,10.6098Q30.9324,10.2399,30.7821,9.87706Q30.6318,9.51418,30.4638,9.15912Q30.2959,8.80405,30.1107,8.45765Q29.9256,8.11125,29.7236,7.77435Q29.5217,7.43746,29.3035,7.11087Q29.0853,6.78429,28.8513,6.46881Q28.6173,6.15333,28.3682,5.84971Q28.119,5.54608,27.8552,5.25506Q27.5914,4.96403,27.3137,4.68629Q27.036,4.40855,26.7449,4.14478Q26.4539,3.88101,26.1503,3.63183Q25.8467,3.38266,25.5312,3.14868Q25.2157,2.9147,24.8891,2.69649Q24.5625,2.47827,24.2256,2.27634Q23.8887,2.07441,23.5423,1.88926Q23.1959,1.70411,22.8409,1.53617Q22.4858,1.36824,22.1229,1.21793Q21.7601,1.06762,21.3902,0.935295Q21.0204,0.802972,20.6446,0.688954Q20.2687,0.574937,19.8877,0.4795Q19.5067,0.384063,19.1214,0.307435Q18.7362,0.230808,18.3477,0.173176Q17.9592,0.115543,17.5683,0.0770444Q17.1774,0.0385454,16.7851,0.0192727Q16.3928,0,16,0Q15.6072,0,15.2149,0.0192727Q14.8226,0.0385454,14.4317,0.0770444Q14.0408,0.115543,13.6523,0.173176Q13.2638,0.230808,12.8786,0.307435Q12.4933,0.384063,12.1123,0.4795Q11.7313,0.574937,11.3554,0.688954Q10.9796,0.802972,10.6098,0.935295Q10.2399,1.06762,9.87706,1.21793Q9.51418,1.36824,9.15912,1.53617Q8.80405,1.70411,8.45765,1.88926Q8.11125,2.07441,7.77435,2.27634Q7.43746,2.47827,7.11087,2.69649Q6.78429,2.9147,6.46881,3.14868Q6.15333,3.38266,5.84971,3.63183Q5.54608,3.88101,5.25506,4.14478Q4.96403,4.40855,4.68629,4.68629Q4.40855,4.96403,4.14478,5.25506Q3.88101,5.54608,3.63183,5.84971Q3.38266,6.15333,3.14868,6.46881Q2.9147,6.78429,2.69649,7.11087Q2.47827,7.43746,2.27634,7.77435Q2.07441,8.11125,1.88926,8.45765Q1.70411,8.80405,1.53617,9.15912Q1.36824,9.51418,1.21793,9.87706Q1.06762,10.2399,0.935295,10.6098Q0.802972,10.9796,0.688954,11.3554Q0.574937,11.7313,0.4795,12.1123Q0.384063,12.4933,0.307435,12.8786Q0.230808,13.2638,0.173176,13.6523Q0.115543,14.0408,0.0770444,14.4317Q0.0385454,14.8226,0.0192727,15.2149Q0,15.6072,0,16Q0,16.3928,0.0192727,16.7851Q0.0385454,17.1774,0.0770444,17.5683Q0.115543,17.9592,0.173176,18.3477Q0.230808,18.7362,0.307435,19.1214Q0.384063,19.5067,0.4795,19.8877Q0.574937,20.2687,0.688954,20.6446Q0.802972,21.0204,0.935295,21.3902Q1.06762,21.76,1.21793,22.1229Q1.36824,22.4858,1.53617,22.8409Q1.70411,23.1959,1.88926,23.5423Q2.07441,23.8887,2.27634,24.2256Q2.47827,24.5625,2.69649,24.8891Q2.9147,25.2157,3.14868,25.5312Q3.38266,25.8467,3.63183,26.1503Q3.88101,26.4539,4.14478,26.7449Q4.40855,27.036,4.68629,27.3137Q4.96403,27.5914,5.25506,27.8552Q5.54608,28.119,5.84971,28.3682Q6.15333,28.6173,6.46881,28.8513Q6.78429,29.0853,7.11087,29.3035Q7.43746,29.5217,7.77435,29.7236Q8.11125,29.9256,8.45765,30.1107Q8.80405,30.2959,9.15912,30.4638Q9.51418,30.6318,9.87706,30.7821Q10.2399,30.9324,10.6098,31.0647Q10.9796,31.197,11.3554,31.311Q11.7313,31.4251,12.1123,31.5205Q12.4933,31.6159,12.8786,31.6926Q13.2638,31.7692,13.6523,31.8268Q14.0408,31.8844,14.4317,31.9229Q14.8226,31.9614,15.2149,31.9807Q15.6072,32,16,32ZM16,28.7997Q16.3143,28.7997,16.6281,28.7843Q16.9419,28.7689,17.2547,28.7381Q17.5674,28.7073,17.8782,28.6612Q18.189,28.6151,18.4972,28.5538Q18.8054,28.4924,19.1102,28.4161Q19.415,28.3397,19.7157,28.2485Q20.0164,28.1573,20.3122,28.0515Q20.6081,27.9456,20.8984,27.8254Q21.1887,27.7051,21.4727,27.5708Q21.7568,27.4364,22.0339,27.2883Q22.311,27.1402,22.5806,26.9786Q22.8501,26.8171,23.1113,26.6425Q23.3726,26.4679,23.625,26.2808Q23.8774,26.0936,24.1203,25.8942Q24.3632,25.6949,24.596,25.4839Q24.8288,25.2729,25.051,25.0507Q25.2732,24.8285,25.4842,24.5957Q25.6952,24.3628,25.8946,24.1199Q26.0939,23.877,26.2811,23.6246Q26.4683,23.3723,26.6428,23.111Q26.8174,22.8497,26.979,22.5802Q27.1405,22.3107,27.2886,22.0336Q27.4368,21.7565,27.5711,21.4724Q27.7054,21.1883,27.8257,20.898Q27.9459,20.6077,28.0518,20.3119Q28.1577,20.016,28.2489,19.7153Q28.3401,19.4146,28.4164,19.1098Q28.4928,18.805,28.5541,18.4969Q28.6154,18.1887,28.6615,17.8779Q28.7076,17.567,28.7384,17.2543Q28.7692,16.9416,28.7846,16.6278Q28.8,16.3139,28.8,15.9997Q28.8,15.6855,28.7846,15.3716Q28.7692,15.0578,28.7384,14.7451Q28.7076,14.4324,28.6615,14.1216Q28.6154,13.8107,28.5541,13.5025Q28.4928,13.1944,28.4164,12.8896Q28.3401,12.5848,28.2489,12.2841Q28.1577,11.9834,28.0518,11.6875Q27.9459,11.3917,27.8257,11.1014Q27.7054,10.8111,27.5711,10.527Q27.4367,10.2429,27.2886,9.96583Q27.1405,9.68871,26.979,9.41919Q26.8174,9.14967,26.6428,8.88841Q26.4683,8.62714,26.2811,8.37475Q26.0939,8.12237,25.8946,7.87947Q25.6952,7.63657,25.4842,7.40375Q25.2732,7.17093,25.051,6.94874Q24.8288,6.72655,24.596,6.51553Q24.3632,6.30451,24.1203,6.10517Q23.8774,5.90583,23.625,5.71865Q23.3726,5.53147,23.1113,5.35689Q22.8501,5.18232,22.5806,5.02078Q22.311,4.85924,22.0339,4.71111Q21.7568,4.56299,21.4727,4.42864Q21.1887,4.2943,20.8984,4.17405Q20.6081,4.0538,20.3122,3.94794Q20.0164,3.84208,19.7157,3.75087Q19.415,3.65966,19.1102,3.58331Q18.8054,3.50696,18.4972,3.44566Q18.189,3.38435,17.8782,3.33825Q17.5674,3.29214,17.2547,3.26134Q16.9419,3.23054,16.6281,3.21513Q16.3143,3.19971,16,3.19971Q15.6858,3.19971,15.372,3.21513Q15.0581,3.23054,14.7454,3.26134Q14.4327,3.29214,14.1219,3.33825Q13.8111,3.38435,13.5029,3.44566Q13.1947,3.50696,12.8899,3.58331Q12.5851,3.65966,12.2844,3.75087Q11.9837,3.84208,11.6878,3.94794Q11.392,4.0538,11.1017,4.17405Q10.8114,4.2943,10.5273,4.42864Q10.2433,4.56299,9.96616,4.71111Q9.68904,4.85924,9.41952,5.02078Q9.15001,5.18232,8.88874,5.35689Q8.62747,5.53147,8.37509,5.71865Q8.1227,5.90583,7.87981,6.10517Q7.63691,6.30451,7.40409,6.51553Q7.17126,6.72655,6.94907,6.94874Q6.72689,7.17093,6.51587,7.40375Q6.30485,7.63657,6.10551,7.87947Q5.90617,8.12237,5.71899,8.37475Q5.5318,8.62714,5.35723,8.88841Q5.18266,9.14967,5.02112,9.41919Q4.85957,9.68871,4.71145,9.96583Q4.56333,10.2429,4.42898,10.527Q4.29463,10.8111,4.17438,11.1014Q4.05414,11.3917,3.94828,11.6875Q3.84242,11.9834,3.75121,12.2841Q3.65999,12.5848,3.58364,12.8896Q3.50729,13.1944,3.44599,13.5025Q3.38469,13.8107,3.33858,14.1216Q3.29248,14.4324,3.26168,14.7451Q3.23088,15.0578,3.21546,15.3716Q3.20004,15.6855,3.20004,15.9997Q3.20004,16.3139,3.21546,16.6278Q3.23088,16.9416,3.26168,17.2543Q3.29248,17.567,3.33858,17.8779Q3.38469,18.1887,3.44599,18.4969Q3.50729,18.805,3.58364,19.1098Q3.65999,19.4147,3.75121,19.7153Q3.84242,20.016,3.94828,20.3119Q4.05414,20.6077,4.17438,20.898Q4.29463,21.1884,4.42898,21.4724Q4.56333,21.7565,4.71145,22.0336Q4.85957,22.3107,5.02112,22.5802Q5.18266,22.8497,5.35723,23.111Q5.5318,23.3723,5.71898,23.6247Q5.90617,23.877,6.10551,24.1199Q6.30485,24.3628,6.51587,24.5957Q6.72689,24.8285,6.94907,25.0507Q7.17126,25.2729,7.40409,25.4839Q7.63691,25.6949,7.87981,25.8942Q8.1227,26.0936,8.37509,26.2808Q8.62747,26.4679,8.88874,26.6425Q9.15001,26.8171,9.41952,26.9786Q9.68904,27.1402,9.96616,27.2883Q10.2433,27.4364,10.5273,27.5708Q10.8114,27.7051,11.1017,27.8254Q11.392,27.9456,11.6878,28.0515Q11.9837,28.1573,12.2844,28.2485Q12.5851,28.3397,12.8899,28.4161Q13.1947,28.4924,13.5029,28.5538Q13.8111,28.6151,14.1219,28.6612Q14.4327,28.7073,14.7454,28.7381Q15.0581,28.7689,15.372,28.7843Q15.6858,28.7997,16,28.7997Z" fill-rule="evenodd" fill="#E0EE8D" fill-opacity="1"/></g><g><path d="M19.199986032714843,15.999706796875C19.199986032714843,15.999706796875,20.277476032714844,17.077196796875,20.277476032714844,17.077196796875C20.277476032714844,17.077196796875,21.354956032714846,15.999706796875,21.354956032714846,15.999706796875C21.354956032714846,15.999706796875,20.277476032714844,14.922216796875,20.277476032714844,14.922216796875C20.277476032714844,14.922216796875,19.199986032714843,15.999706796875,19.199986032714843,15.999706796875C19.199986032714843,15.999706796875,19.199986032714843,15.999706796875,19.199986032714843,15.999706796875ZM11.722496032714844,10.677206796875C11.722496032714844,10.677206796875,18.122496032714842,17.077196796875,18.122496032714842,17.077196796875C18.122496032714842,17.077196796875,20.277476032714844,14.922216796875,20.277476032714844,14.922216796875C20.277476032714844,14.922216796875,13.877486032714843,8.522216796875,13.877486032714843,8.522216796875C13.877486032714843,8.522216796875,11.722496032714844,10.677206796875,11.722496032714844,10.677206796875C11.722496032714844,10.677206796875,11.722496032714844,10.677206796875,11.722496032714844,10.677206796875ZM18.122496032714842,14.922216796875C18.122496032714842,14.922216796875,11.722496032714844,21.322216796875,11.722496032714844,21.322216796875C11.722496032714844,21.322216796875,13.877486032714843,23.477216796875,13.877486032714843,23.477216796875C13.877486032714843,23.477216796875,20.277476032714844,17.077196796875,20.277476032714844,17.077196796875C20.277476032714844,17.077196796875,18.122496032714842,14.922216796875,18.122496032714842,14.922216796875C18.122496032714842,14.922216796875,18.122496032714842,14.922216796875,18.122496032714842,14.922216796875Z" fill="#E0EE8D" fill-opacity="1"/></g></g></svg>