<svg xmlns="http://www.w3.org/2000/svg" xmlns:xlink="http://www.w3.org/1999/xlink" fill="none" version="1.1" width="42.4375" height="48.5" viewBox="0 0 42.4375 48.5"><g><path d="M4.97125,0L37.4663,0C40.2065,0,42.4375,2.231,42.4375,4.9955L42.4375,48.5L37.2237,43.8925L34.2895,41.1765L31.1855,38.2908L32.4707,42.777L4.97125,42.777C2.231,42.777,0,40.546,0,37.7815L0,4.9955C0,2.231,2.231,0,4.97125,0ZM26.5052,29.7062C27.2327,30.6277,28.1058,31.6705,28.1058,31.6705C33.465,31.5008,35.5263,27.9845,35.5263,27.9845C35.5263,20.176,32.0343,13.8467,32.0343,13.8467C28.5422,11.2277,25.22,11.3005,25.22,11.3005L24.8805,11.6885C29.003,12.9495,30.9187,14.7682,30.9187,14.7682C28.3967,13.386,25.9232,12.707,23.6195,12.4402C21.8735,12.2462,20.2002,12.2948,18.721,12.4887C18.5755,12.4887,18.4542,12.513,18.3088,12.5373C17.46,12.61,15.3987,12.9252,12.804,14.065C11.9067,14.4772,11.3732,14.7682,11.3732,14.7682C11.3732,14.7682,13.386,12.8525,17.751,11.5915L17.5085,11.3005C17.5085,11.3005,14.1863,11.2277,10.6943,13.8467C10.6943,13.8467,7.20225,20.176,7.20225,27.9845C7.20225,27.9845,9.23925,31.5008,14.5985,31.6705C14.5985,31.6705,15.4957,30.5792,16.2233,29.6577C13.1435,28.7363,11.9795,26.7963,11.9795,26.7963C11.9795,26.7963,12.222,26.966,12.6585,27.2085C12.6827,27.2327,12.707,27.257,12.7555,27.2812C12.8282,27.3297,12.901,27.354,12.9738,27.4025C13.58,27.742,14.1863,28.0088,14.744,28.227C15.7382,28.615,16.9265,29.003,18.3088,29.2697C20.1275,29.6093,22.2615,29.7305,24.5895,29.294C25.7292,29.1,26.8932,28.7605,28.1058,28.2513C28.9545,27.936,29.9002,27.4753,30.8945,26.8205C30.8945,26.8205,29.682,28.809,26.5052,29.7062ZM14.356,23.0375C14.356,21.5583,15.4472,20.3458,16.8295,20.3458C18.2118,20.3458,19.3273,21.5583,19.303,23.0375C19.303,24.5167,18.2118,25.7292,16.8295,25.7292C15.4715,25.7292,14.356,24.5167,14.356,23.0375ZM23.2072,23.0375C23.2072,21.5583,24.2985,20.3458,25.6807,20.3458C27.063,20.3458,28.1543,21.5583,28.1543,23.0375C28.1543,24.5167,27.063,25.7292,25.6807,25.7292C24.3227,25.7292,23.2072,24.5167,23.2072,23.0375Z" fill-rule="evenodd" fill="#00FF9F" fill-opacity="1"/></g></svg>