<svg width="542" height="542" viewBox="0 0 542 542" fill="none" xmlns="http://www.w3.org/2000/svg">
<rect width="542" height="542" rx="271" fill="#E0EE8D"/>
<path fill-rule="evenodd" clip-rule="evenodd" d="M302.839 371.853L302.84 371.854L342.235 303.62L372.875 250.549L380.801 236.821C389.999 266.392 387.297 299.57 370.591 328.505C338.835 383.508 268.502 402.354 213.498 370.597C206.37 366.482 199.85 361.719 193.968 356.425L172.625 393.392C178.801 398.344 185.431 402.89 192.498 406.971C267.59 450.325 363.61 424.596 406.964 349.505C436.124 298.999 434.032 239.027 406.69 191.979L415.38 176.928L432 147.845L384.826 147.849L332.76 238.029L304.424 287.11L300.053 294.681L287.069 273.89L230.403 185.318L208.977 222.428L171.426 287.469L161.196 305.188C151.998 275.616 154.7 242.439 171.405 213.505C203.162 158.501 273.495 139.655 328.498 171.412C335.626 175.527 342.147 180.29 348.029 185.584L369.372 148.617C363.195 143.665 356.565 139.119 349.498 135.039C274.406 91.6842 178.387 117.413 135.032 192.505C105.873 243.01 107.964 302.982 135.306 350.03L127.193 364.083L119.821 376.852L110 394.16L157.171 394.16L162.648 384.673L184.496 346.831L209.237 303.979L233.819 261.4L235.808 264.52L258.151 300.298L280.495 336.075L291.667 353.964L302.839 371.853L302.839 371.853Z" fill="black"/>
</svg>
