<svg width="542" height="542" viewBox="0 0 542 542" fill="none" xmlns="http://www.w3.org/2000/svg">
<rect width="542" height="542" rx="271" fill="black"/>
<path fill-rule="evenodd" clip-rule="evenodd" d="M348.999 342.417L349 342.418V263.628V202.347V186.495C371.752 207.506 386 237.589 386 271C386 334.513 334.513 386 271 386C262.769 386 254.741 385.135 247 383.492V426.177C254.825 427.377 262.84 428 271 428C357.709 428 428 357.709 428 271C428 212.682 396.203 161.79 349 134.716V89L308 107.43V118.385V162.082V211.562V268.235V276.977L286.361 265.464L193 217.091V259.942V355.505C170.248 334.494 156 304.411 156 271C156 207.487 207.487 156 271 156C279.231 156 287.259 156.865 295 158.508V115.823C287.175 114.623 279.16 114 271 114C184.291 114 114 184.291 114 271C114 329.318 145.797 380.21 193 407.284V453L234 434.57L234 423.615V379.918L234 330.438V281.272L237.282 282.98L274.521 302.792L311.76 322.605L330.38 332.511L348.999 342.418V342.417Z" fill="#00FF9F"/>
</svg>
