<?xml version="1.0" standalone="no"?><!DOCTYPE svg PUBLIC "-//W3C//DTD SVG 1.1//EN" "http://www.w3.org/Graphics/SVG/1.1/DTD/svg11.dtd"><svg t="1704164305275" class="icon" viewBox="0 0 1024 1024" version="1.1" xmlns="http://www.w3.org/2000/svg" p-id="5291" xmlns:xlink="http://www.w3.org/1999/xlink" width="200" height="200"><path d="M512 0C229.184 0 0 229.184 0 512s229.184 512 512 512 512-229.184 512-512-229.184-512-512-512z m251.584 350.976l-84.032 395.776c-5.824 28.224-22.784 34.816-46.4 21.824l-128-94.592-61.376 59.776c-7.168 6.976-12.8 12.8-25.6 12.8-16.576 0-13.824-6.208-19.392-22.016L355.2 581.376l-126.592-39.424c-27.392-8.384-27.584-27.2 6.208-40.576l493.184-190.4c22.4-10.176 44.224 5.376 35.584 40z" p-id="5292" fill="#00FF9F"></path></svg>