<svg xmlns="http://www.w3.org/2000/svg" xmlns:xlink="http://www.w3.org/1999/xlink" fill="none" version="1.1" width="48.5" height="39.40625" viewBox="0 0 48.5 39.40625"><g><path d="M48.5,4.54688C46.6812,5.45625,44.8625,5.75938,42.7406,6.0625C44.8625,4.85,46.3781,3.03125,46.9844,0.606249C45.1656,1.81875,43.0438,2.425,40.6187,3.03125C38.8,1.2125,36.0719,0,33.3438,0C26.9781,0,22.1281,6.0625,23.6437,12.125C15.4594,11.8219,8.18437,7.88125,3.03125,1.81875C0.303125,6.36562,1.81875,12.125,6.0625,15.1562C4.54688,15.1562,3.03125,14.55,1.51562,13.9438C1.51562,18.4906,4.85,22.7344,9.39687,23.9469C7.88125,24.25,6.36562,24.5531,4.85,24.25C6.0625,28.1906,9.7,31.2219,14.2469,31.2219C10.6094,33.95,5.15313,35.4656,0,34.8594C4.54688,37.5875,9.7,39.4062,15.1562,39.4062C33.6469,39.4062,43.9531,23.9469,43.3469,9.7C45.4688,8.4875,47.2875,6.66875,48.5,4.54688C48.5,4.54688,48.5,4.54688,48.5,4.54688Z" fill="#9AF950" fill-opacity="1"/></g></svg>