<svg xmlns="http://www.w3.org/2000/svg" xmlns:xlink="http://www.w3.org/1999/xlink" viewBox="0 0 360 124.88"><defs><style>.cls-1{fill:url(#未命名的渐变_12);}.cls-2{fill:url(#未命名的渐变_12-2);}.cls-3{fill:url(#未命名的渐变_12-3);}.cls-4{fill:url(#未命名的渐变_12-4);}.cls-5{fill:url(#未命名的渐变_12-5);}.cls-6{fill:url(#未命名的渐变_12-6);}.cls-7{fill:url(#未命名的渐变_12-7);}.cls-8{fill:url(#未命名的渐变_12-8);}.cls-9{fill:url(#未命名的渐变_12-9);}.cls-10{fill:#fff;}.cls-11{opacity:0.98;}</style><linearGradient id="未命名的渐变_12" x1="66.68" y1="31.61" x2="55.46" y2="116.43" gradientUnits="userSpaceOnUse"><stop offset="0" stop-color="#bcff15"/><stop offset="1"/></linearGradient><linearGradient id="未命名的渐变_12-2" x1="3283.28" y1="1212.55" x2="3264.13" y2="1357.27" gradientTransform="translate(-3170.37 1490.67) rotate(-45)" xlink:href="#未命名的渐变_12"/><linearGradient id="未命名的渐变_12-3" x1="161.93" y1="12.57" x2="75" y2="117.36" xlink:href="#未命名的渐变_12"/><linearGradient id="未命名的渐变_12-4" x1="131.2" y1="-12.93" x2="44.26" y2="91.86" xlink:href="#未命名的渐变_12"/><linearGradient id="未命名的渐变_12-5" x1="-30.44" y1="0.75" x2="46.71" y2="123.96" xlink:href="#未命名的渐变_12"/><linearGradient id="未命名的渐变_12-6" x1="152.78" y1="4.98" x2="65.85" y2="109.77" xlink:href="#未命名的渐变_12"/><linearGradient id="未命名的渐变_12-7" x1="-2991.83" y1="7889.09" x2="-3010.97" y2="8033.81" gradientTransform="translate(3579.78 7793.53) rotate(135)" xlink:href="#未命名的渐变_12"/><linearGradient id="未命名的渐变_12-8" x1="-2.02" y1="-17.04" x2="75.13" y2="106.16" xlink:href="#未命名的渐变_12"/><linearGradient id="未命名的渐变_12-9" x1="-19.19" y1="-6.29" x2="57.96" y2="116.92" xlink:href="#未命名的渐变_12"/></defs><g id="图层_2" data-name="图层 2"><g id="图层_1-2" data-name="图层 1"><polygon class="cls-1" points="46.55 46.95 46.55 78.93 46.55 78.93 78.53 78.93 78.53 46.95 46.55 46.95"/><path class="cls-2" d="M48.48,85.38,59,124.79c1.13.06,2.26.09,3.4.09a62.24,62.24,0,0,0,16.37-2.18V85.38Z"/><polygon class="cls-3" points="84.97 118.49 118.09 85.38 84.97 85.38 84.97 118.49"/><path class="cls-4" d="M124.29,53.89a61.07,61.07,0,0,0-1.45-7.34L78.33,2.05A61,61,0,0,0,71.41.65l12.9,40.5Z"/><path class="cls-5" d="M.93,73.13a62.06,62.06,0,0,0,2.16,8.72l40,39.94A61.29,61.29,0,0,0,52.18,124L39.91,85.55Z"/><path class="cls-6" d="M124.81,59.55,85,48.88V79.21h37.62a62.69,62.69,0,0,0,2.29-16.77C124.88,61.47,124.86,60.51,124.81,59.55Z"/><path class="cls-7" d="M76.88,40.78,66,.11C64.81,0,63.63,0,62.44,0a62.71,62.71,0,0,0-15.9,2.05V40.78Z"/><polygon class="cls-8" points="7.26 40.78 40.38 40.78 40.38 7.67 7.26 40.78"/><path class="cls-9" d="M40.38,47H1.94A62.73,62.73,0,0,0,0,62.44c0,1.37.06,2.72.15,4.06L40.38,77.28Z"/><path class="cls-10" d="M166.92,51.3q0-14.43,8-22.47t22.38-8q14.72,0,22.67,7.89t8,22.13q0,10.34-3.48,16.94a24.73,24.73,0,0,1-10.05,10.29q-6.57,3.67-16.37,3.68-10,0-16.5-3.18A24.75,24.75,0,0,1,171,68.5Q166.92,61.63,166.92,51.3Zm18.2.08q0,8.92,3.32,12.82a11.22,11.22,0,0,0,9,3.9q5.86,0,9.09-3.82t3.21-13.7q0-8.32-3.35-12.16a11.49,11.49,0,0,0-9.11-3.84,11,11,0,0,0-8.84,3.9Q185.13,42.38,185.12,51.38Z"/><path class="cls-10" d="M238,21.8h27q8,0,12.92,2.17a21.07,21.07,0,0,1,8.14,6.23,25.91,25.91,0,0,1,4.66,9.45,44,44,0,0,1,1.45,11.41q0,9.45-2.15,14.65a24.36,24.36,0,0,1-6,8.72,19.37,19.37,0,0,1-8.2,4.68,41.88,41.88,0,0,1-10.85,1.61H238Zm18.2,13.34v32.2h4.47c3.8,0,6.51-.42,8.11-1.27a8.57,8.57,0,0,0,3.78-4.42q1.37-3.15,1.37-10.23,0-9.36-3.06-12.82t-10.12-3.46Z"/><path class="cls-10" d="M297.78,21.8h20.06l10.43,18.13L338.42,21.8h19.85L339.93,50.34,360,80.72H339.54L327.91,61.79,316.27,80.72H295.93L316.26,50Z"/><g class="cls-11"><path class="cls-10" d="M182.63,106.36a8.05,8.05,0,0,1-11.23,0c-2.1-2.1-2.07-4.47-2.07-8.57s0-6.48,2.07-8.57a8.05,8.05,0,0,1,11.23,0c2.1,2.09,2,4.46,2,8.57S184.73,104.26,182.63,106.36Zm-2.45-15.2a4.51,4.51,0,0,0-6.36,0c-1,1.14-1.26,2.34-1.26,6.63s.21,5.48,1.26,6.62a4.49,4.49,0,0,0,6.36,0c1-1.14,1.26-2.34,1.26-6.62S181.23,92.3,180.18,91.16Z"/><path class="cls-10" d="M206.49,108.46h-8.63V87.12h8.3c4,0,6.45,2.25,6.45,5.84a4.84,4.84,0,0,1-2.88,4.53,5.07,5.07,0,0,1,3.21,4.94C212.94,106.36,210.27,108.46,206.49,108.46ZM205.89,90H201.1v6.11h4.79c2.07,0,3.48-1.08,3.48-3.06S208,90,205.89,90Zm.3,9H201.1v6.5h5.09a3.17,3.17,0,0,0,3.51-3.27C209.7,100.4,208.44,99.05,206.19,99.05Z"/><path class="cls-10" d="M231.79,108.64c-3.21,0-5.52-.75-7.55-2.82l2.15-2.13a7,7,0,0,0,5.46,2c2.79,0,4.4-1.2,4.4-3.27a2.87,2.87,0,0,0-.83-2.21,3.71,3.71,0,0,0-2.34-.9L230.56,99a7.31,7.31,0,0,1-4.05-1.71A5.31,5.31,0,0,1,225,93.2c0-3.71,2.69-6.26,7.13-6.26a8.87,8.87,0,0,1,6.62,2.43l-2.07,2A6.27,6.27,0,0,0,232,89.76c-2.52,0-3.9,1.43-3.9,3.32a2.54,2.54,0,0,0,.81,2,4.77,4.77,0,0,0,2.4,1l2.43.36a7,7,0,0,1,4,1.59,5.58,5.58,0,0,1,1.74,4.37C239.46,106.3,236.25,108.64,231.79,108.64Z"/><path class="cls-10" d="M252.2,108.46V87.12h3.24v21.34Z"/><path class="cls-10" d="M282.41,106.45a7.6,7.6,0,0,1-5.51,2h-7.5V87.12h7.5a7.6,7.6,0,0,1,5.51,2c2.31,2.3,2.16,5.42,2.16,8.51S284.72,104.14,282.41,106.45Zm-2.22-15A4.61,4.61,0,0,0,276.57,90h-3.93v15.52h3.93a4.58,4.58,0,0,0,3.62-1.44c1.11-1.23,1.14-3.53,1.14-6.47S281.3,92.69,280.19,91.46Z"/><path class="cls-10" d="M297.76,108.46V87.12H301v21.34Z"/><path class="cls-10" d="M327.22,108.46l-1.47-4.29h-8.42l-1.47,4.29h-3.45l7.83-21.34h2.6l7.83,21.34Zm-5.61-16.52-3.32,9.47h6.56Z"/><path class="cls-10" d="M355.18,108.46l-9.86-15v15h-3.23V87.12h3l9.86,15v-15h3.24v21.34Z"/></g></g></g></svg>