<svg width="546" height="120" viewBox="0 0 546 120" fill="none" xmlns="http://www.w3.org/2000/svg">
<path d="M11.2822 88.7304H37.433L11.2822 63.0781V88.7304Z" fill="#9AF950"/>
<path d="M71.4701 28.4082H45.3193L71.4701 54.0605V28.4082Z" fill="#9AF950"/>
<path d="M0.0878906 -0.00976562V39.1031L81.1689 118.689V76.5391L0.0878906 -0.00976562Z" fill="#9AF950"/>
<path d="M163.259 28.8652V96.4043H152.219L128.376 49.6465V96.4043H117.476V28.8652H128.376L152.405 75.9478V28.8652H163.259ZM194.338 97.332C191.091 97.332 188.2 96.8527 185.664 95.894C183.128 94.9045 180.979 93.451 179.216 91.5337C177.454 89.5854 176.108 87.2043 175.181 84.3901C174.253 81.5451 173.789 78.2516 173.789 74.5098V69.6855C173.789 65.4489 174.268 61.7998 175.227 58.7383C176.217 55.6458 177.577 53.11 179.309 51.1309C181.041 49.1517 183.082 47.6828 185.432 46.7241C187.813 45.7655 190.396 45.2861 193.179 45.2861C196.333 45.2861 199.07 45.7964 201.389 46.8169C203.708 47.8374 205.61 49.3682 207.095 51.4092C208.61 53.4502 209.723 55.9705 210.435 58.9702C211.177 61.9699 211.548 65.418 211.548 69.3145V74.7417H178.984V66.5776H200.879V65.418C200.817 63.1296 200.539 61.1659 200.044 59.5269C199.549 57.8569 198.745 56.589 197.632 55.7231C196.549 54.8263 195.05 54.3779 193.132 54.3779C191.741 54.3779 190.504 54.6408 189.421 55.1665C188.339 55.6922 187.442 56.5426 186.731 57.7178C186.051 58.8929 185.525 60.4701 185.154 62.4492C184.783 64.3975 184.597 66.8096 184.597 69.6855V74.5098C184.597 77.0146 184.814 79.133 185.247 80.8647C185.71 82.5965 186.391 84.019 187.288 85.1323C188.184 86.2147 189.267 87.0187 190.535 87.5444C191.833 88.0392 193.333 88.2866 195.034 88.2866C197.539 88.2866 199.688 87.8228 201.482 86.895C203.306 85.9364 204.884 84.6994 206.213 83.1841L210.991 89.8174C210.094 91.0234 208.888 92.214 207.373 93.3892C205.858 94.5334 204.018 95.4766 201.853 96.2188C199.719 96.9609 197.214 97.332 194.338 97.332ZM218.645 73.3501V69.3145C218.645 65.418 219.124 61.9699 220.083 58.9702C221.042 55.9705 222.402 53.4657 224.165 51.4556C225.959 49.4146 228.062 47.8838 230.474 46.8633C232.886 45.8118 235.545 45.2861 238.452 45.2861C241.421 45.2861 244.111 45.8118 246.523 46.8633C248.966 47.8838 251.069 49.4146 252.832 51.4556C254.626 53.4657 256.002 55.9705 256.96 58.9702C257.919 61.9699 258.398 65.418 258.398 69.3145V73.3501C258.398 77.2466 257.919 80.6947 256.96 83.6943C256.002 86.694 254.626 89.2144 252.832 91.2554C251.069 93.2655 248.982 94.7808 246.57 95.8013C244.158 96.8218 241.483 97.332 238.545 97.332C235.638 97.332 232.963 96.8218 230.52 95.8013C228.108 94.7808 226.005 93.2655 224.211 91.2554C222.418 89.2144 221.042 86.694 220.083 83.6943C219.124 80.6947 218.645 77.2466 218.645 73.3501ZM229.453 69.3145V73.3501C229.453 75.855 229.67 78.0506 230.103 79.937C230.535 81.7925 231.154 83.3387 231.958 84.5757C232.762 85.8127 233.721 86.7404 234.834 87.3589C235.947 87.9774 237.184 88.2866 238.545 88.2866C240.06 88.2866 241.375 87.9774 242.488 87.3589C243.632 86.7404 244.575 85.8127 245.317 84.5757C246.09 83.3387 246.663 81.7925 247.034 79.937C247.405 78.0506 247.59 75.855 247.59 73.3501V69.3145C247.59 66.8405 247.374 64.6758 246.941 62.8203C246.508 60.9339 245.889 59.3722 245.085 58.1353C244.281 56.8674 243.307 55.9242 242.163 55.3057C241.05 54.6872 239.813 54.3779 238.452 54.3779C237.122 54.3779 235.901 54.6872 234.788 55.3057C233.705 55.9242 232.762 56.8674 231.958 58.1353C231.154 59.3722 230.535 60.9339 230.103 62.8203C229.67 64.6758 229.453 66.8405 229.453 69.3145ZM278.391 56.9292V96.4043H267.583V46.2139H277.742L278.391 56.9292ZM276.443 69.5H273.01C272.979 65.8818 273.366 62.5884 274.17 59.6196C274.974 56.6509 276.118 54.0996 277.603 51.9658C279.118 49.832 280.911 48.193 282.983 47.0488C285.086 45.8737 287.421 45.2861 289.988 45.2861C291.967 45.2861 293.776 45.6263 295.415 46.3066C297.085 46.9561 298.507 48.0229 299.683 49.5073C300.858 50.9917 301.755 52.9245 302.373 55.3057C303.022 57.6868 303.347 60.5938 303.347 64.0264V96.4043H292.539V63.9336C292.539 61.5833 292.276 59.7279 291.75 58.3672C291.256 56.9756 290.514 55.986 289.524 55.3984C288.534 54.7799 287.282 54.4707 285.767 54.4707C284.375 54.4707 283.092 54.8727 281.917 55.6768C280.772 56.4499 279.783 57.5322 278.948 58.9238C278.144 60.2845 277.525 61.8771 277.092 63.7017C276.659 65.4953 276.443 67.4281 276.443 69.5ZM360.867 28.8652V96.4043H349.827L325.984 49.6465V96.4043H315.083V28.8652H325.984L350.012 75.9478V28.8652H360.867ZM391.946 97.332C388.699 97.332 385.807 96.8527 383.271 95.894C380.736 94.9045 378.586 93.451 376.824 91.5337C375.061 89.5854 373.716 87.2043 372.788 84.3901C371.86 81.5451 371.396 78.2516 371.396 74.5098V69.6855C371.396 65.4489 371.876 61.7998 372.834 58.7383C373.824 55.6458 375.185 53.11 376.917 51.1309C378.648 49.1517 380.689 47.6828 383.04 46.7241C385.421 45.7655 388.003 45.2861 390.786 45.2861C393.94 45.2861 396.677 45.7964 398.997 46.8169C401.316 47.8374 403.218 49.3682 404.702 51.4092C406.217 53.4502 407.331 55.9705 408.042 58.9702C408.784 61.9699 409.155 65.418 409.155 69.3145V74.7417H376.592V66.5776H398.486V65.418C398.424 63.1296 398.146 61.1659 397.651 59.5269C397.157 57.8569 396.353 56.589 395.239 55.7231C394.157 54.8263 392.657 54.3779 390.74 54.3779C389.348 54.3779 388.111 54.6408 387.029 55.1665C385.946 55.6922 385.05 56.5426 384.338 57.7178C383.658 58.8929 383.132 60.4701 382.761 62.4492C382.39 64.3975 382.205 66.8096 382.205 69.6855V74.5098C382.205 77.0146 382.421 79.133 382.854 80.8647C383.318 82.5965 383.998 84.019 384.895 85.1323C385.792 86.2147 386.874 87.0187 388.142 87.5444C389.441 88.0392 390.941 88.2866 392.642 88.2866C395.146 88.2866 397.296 87.8228 399.089 86.895C400.914 85.9364 402.491 84.6994 403.821 83.1841L408.599 89.8174C407.702 91.0234 406.496 92.214 404.98 93.3892C403.465 94.5334 401.625 95.4766 399.46 96.2188C397.327 96.9609 394.822 97.332 391.946 97.332ZM426.597 46.2139L433.833 61.5215L440.652 46.2139H452.48L439.307 70.8452L452.944 96.4043H441.116L433.601 80.5864L426.226 96.4043H414.351L427.664 70.938L414.768 46.2139H426.597ZM484.998 84.5757V46.2139H495.806V96.4043H485.601L484.998 84.5757ZM486.528 74.0923L489.961 73.9995C489.961 77.3703 489.652 80.4782 489.033 83.3232C488.415 86.1683 487.456 88.6423 486.157 90.7451C484.889 92.8171 483.235 94.4406 481.194 95.6157C479.184 96.7599 476.772 97.332 473.958 97.332C471.886 97.332 469.984 96.9764 468.252 96.2651C466.551 95.5539 465.082 94.4561 463.845 92.9717C462.639 91.4873 461.696 89.5545 461.016 87.1733C460.335 84.7922 459.995 81.9471 459.995 78.6382V46.2139H470.803V78.731C470.803 80.5246 470.958 82.0244 471.267 83.2305C471.576 84.4056 472.009 85.3643 472.566 86.1064C473.123 86.8177 473.741 87.328 474.421 87.6372C475.133 87.9155 475.89 88.0547 476.694 88.0547C479.137 88.0547 481.07 87.4517 482.493 86.2456C483.946 85.0086 484.982 83.3387 485.601 81.2358C486.219 79.133 486.528 76.7518 486.528 74.0923ZM529.854 83.1841C529.854 82.1326 529.544 81.2049 528.926 80.4009C528.338 79.5659 527.38 78.7464 526.05 77.9424C524.72 77.1383 522.942 76.2725 520.715 75.3447C518.396 74.3861 516.34 73.4274 514.546 72.4688C512.752 71.5101 511.237 70.4587 510 69.3145C508.763 68.1393 507.82 66.7941 507.17 65.2788C506.521 63.7635 506.196 62.0008 506.196 59.9907C506.196 57.9188 506.583 56.0015 507.356 54.2388C508.129 52.4761 509.242 50.9299 510.696 49.6001C512.149 48.2394 513.896 47.188 515.938 46.4458C517.979 45.6727 520.282 45.2861 522.849 45.2861C526.467 45.2861 529.56 45.951 532.126 47.2808C534.724 48.5796 536.703 50.4041 538.064 52.7544C539.456 55.0737 540.151 57.7487 540.151 60.7793H529.343C529.343 59.5114 529.111 58.3672 528.647 57.3467C528.184 56.2952 527.472 55.4603 526.514 54.8418C525.555 54.1924 524.333 53.8677 522.849 53.8677C521.488 53.8677 520.344 54.1305 519.417 54.6562C518.52 55.151 517.839 55.8314 517.375 56.6973C516.943 57.5322 516.726 58.4754 516.726 59.5269C516.726 60.3 516.865 60.9803 517.144 61.5679C517.422 62.1554 517.886 62.7275 518.535 63.2842C519.185 63.8099 520.05 64.3511 521.133 64.9077C522.246 65.4644 523.653 66.0983 525.354 66.8096C528.725 68.1084 531.523 69.4536 533.75 70.8452C535.977 72.2368 537.646 73.8604 538.76 75.7158C539.873 77.5713 540.43 79.8752 540.43 82.6274C540.43 84.854 540.012 86.8641 539.177 88.6577C538.373 90.4513 537.198 91.9976 535.652 93.2964C534.137 94.5952 532.297 95.6003 530.132 96.3115C527.998 96.9919 525.617 97.332 522.988 97.332C519.061 97.332 515.736 96.5589 513.015 95.0127C510.325 93.4355 508.284 91.41 506.892 88.936C505.5 86.4621 504.805 83.849 504.805 81.0967H515.242C515.334 83.0758 515.752 84.6221 516.494 85.7354C517.267 86.8486 518.241 87.6217 519.417 88.0547C520.592 88.4567 521.813 88.6577 523.081 88.6577C524.596 88.6577 525.849 88.4567 526.838 88.0547C527.828 87.6217 528.57 86.9878 529.065 86.1528C529.591 85.3179 529.854 84.3283 529.854 83.1841Z" fill="white"/>
</svg>
