<svg width="117" height="42" viewBox="0 0 117 42" fill="none" xmlns="http://www.w3.org/2000/svg">
<path d="M47.968 19V2.344H49.552L50.224 4.96V19H47.968ZM59.488 19L49.264 5.344L49.552 2.344L59.8 15.976L59.488 19ZM59.488 19L58.816 16.528V2.344H61.072V19H59.488ZM71.5831 19.24C70.4471 19.24 69.4231 18.984 68.5111 18.472C67.5991 17.944 66.8791 17.232 66.3511 16.336C65.8231 15.44 65.5591 14.424 65.5591 13.288C65.5591 12.168 65.8151 11.16 66.3271 10.264C66.8551 9.368 67.5591 8.664 68.4391 8.152C69.3351 7.624 70.3351 7.36 71.4391 7.36C72.4951 7.36 73.4231 7.6 74.2231 8.08C75.0391 8.56 75.6711 9.224 76.1191 10.072C76.5831 10.92 76.8151 11.88 76.8151 12.952C76.8151 13.112 76.8071 13.288 76.7911 13.48C76.7751 13.656 76.7431 13.864 76.6951 14.104H67.0711V12.304H75.5431L74.7511 13C74.7511 12.232 74.6151 11.584 74.3431 11.056C74.0711 10.512 73.6871 10.096 73.1911 9.808C72.6951 9.504 72.0951 9.352 71.3911 9.352C70.6551 9.352 70.0071 9.512 69.4471 9.832C68.8871 10.152 68.4551 10.6 68.1511 11.176C67.8471 11.752 67.6951 12.432 67.6951 13.216C67.6951 14.016 67.8551 14.72 68.1751 15.328C68.4951 15.92 68.9511 16.384 69.5431 16.72C70.1351 17.04 70.8151 17.2 71.5831 17.2C72.2231 17.2 72.8071 17.088 73.3351 16.864C73.8791 16.64 74.3431 16.304 74.7271 15.856L76.1191 17.272C75.5751 17.912 74.9031 18.4 74.1031 18.736C73.3191 19.072 72.4791 19.24 71.5831 19.24ZM86.0583 19.24C84.9383 19.24 83.9303 18.976 83.0343 18.448C82.1383 17.92 81.4263 17.208 80.8983 16.312C80.3703 15.4 80.1063 14.384 80.1063 13.264C80.1063 12.16 80.3703 11.168 80.8983 10.288C81.4263 9.392 82.1383 8.68 83.0343 8.152C83.9303 7.624 84.9383 7.36 86.0583 7.36C87.1623 7.36 88.1623 7.624 89.0583 8.152C89.9703 8.664 90.6903 9.368 91.2183 10.264C91.7463 11.16 92.0103 12.16 92.0103 13.264C92.0103 14.384 91.7463 15.4 91.2183 16.312C90.6903 17.208 89.9703 17.92 89.0583 18.448C88.1623 18.976 87.1623 19.24 86.0583 19.24ZM86.0583 17.152C86.7783 17.152 87.4183 16.984 87.9783 16.648C88.5383 16.312 88.9783 15.856 89.2983 15.28C89.6183 14.688 89.7783 14.016 89.7783 13.264C89.7783 12.528 89.6103 11.872 89.2743 11.296C88.9543 10.72 88.5143 10.272 87.9543 9.952C87.4103 9.616 86.7783 9.448 86.0583 9.448C85.3383 9.448 84.6983 9.616 84.1383 9.952C83.5783 10.272 83.1383 10.72 82.8183 11.296C82.4983 11.872 82.3383 12.528 82.3383 13.264C82.3383 14.016 82.4983 14.688 82.8183 15.28C83.1383 15.856 83.5783 16.312 84.1383 16.648C84.6983 16.984 85.3383 17.152 86.0583 17.152ZM104.188 19V12.352C104.188 11.488 103.916 10.776 103.372 10.216C102.828 9.656 102.124 9.376 101.26 9.376C100.684 9.376 100.172 9.504 99.724 9.76C99.276 10.016 98.924 10.368 98.668 10.816C98.412 11.264 98.284 11.776 98.284 12.352L97.396 11.848C97.396 10.984 97.588 10.216 97.972 9.544C98.356 8.872 98.892 8.344 99.58 7.96C100.268 7.56 101.044 7.36 101.908 7.36C102.772 7.36 103.532 7.576 104.188 8.008C104.86 8.44 105.388 9.008 105.772 9.712C106.156 10.4 106.348 11.136 106.348 11.92V19H104.188ZM96.124 19V7.6H98.284V19H96.124ZM47.968 40V23.344H49.552L50.224 25.96V40H47.968ZM59.488 40L49.264 26.344L49.552 23.344L59.8 36.976L59.488 40ZM59.488 40L58.816 37.528V23.344H61.072V40H59.488ZM71.5831 40.24C70.4471 40.24 69.4231 39.984 68.5111 39.472C67.5991 38.944 66.8791 38.232 66.3511 37.336C65.8231 36.44 65.5591 35.424 65.5591 34.288C65.5591 33.168 65.8151 32.16 66.3271 31.264C66.8551 30.368 67.5591 29.664 68.4391 29.152C69.3351 28.624 70.3351 28.36 71.4391 28.36C72.4951 28.36 73.4231 28.6 74.2231 29.08C75.0391 29.56 75.6711 30.224 76.1191 31.072C76.5831 31.92 76.8151 32.88 76.8151 33.952C76.8151 34.112 76.8071 34.288 76.7911 34.48C76.7751 34.656 76.7431 34.864 76.6951 35.104H67.0711V33.304H75.5431L74.7511 34C74.7511 33.232 74.6151 32.584 74.3431 32.056C74.0711 31.512 73.6871 31.096 73.1911 30.808C72.6951 30.504 72.0951 30.352 71.3911 30.352C70.6551 30.352 70.0071 30.512 69.4471 30.832C68.8871 31.152 68.4551 31.6 68.1511 32.176C67.8471 32.752 67.6951 33.432 67.6951 34.216C67.6951 35.016 67.8551 35.72 68.1751 36.328C68.4951 36.92 68.9511 37.384 69.5431 37.72C70.1351 38.04 70.8151 38.2 71.5831 38.2C72.2231 38.2 72.8071 38.088 73.3351 37.864C73.8791 37.64 74.3431 37.304 74.7271 36.856L76.1191 38.272C75.5751 38.912 74.9031 39.4 74.1031 39.736C73.3191 40.072 72.4791 40.24 71.5831 40.24ZM87.9867 40L84.4347 35.008L84.0267 34.624L79.5387 28.6H82.1547L85.3947 33.04L85.8027 33.376L90.6027 40H87.9867ZM79.3227 40L84.0267 33.664L85.2507 35.248L81.8667 40H79.3227ZM85.9707 34.6L84.7227 33.064L87.8667 28.6H90.3867L85.9707 34.6ZM98.8564 40.24C97.9284 40.24 97.0884 40.032 96.3364 39.616C95.6004 39.184 95.0244 38.592 94.6084 37.84C94.1924 37.088 93.9844 36.216 93.9844 35.224V28.6H96.1444V35.128C96.1444 35.752 96.2484 36.296 96.4564 36.76C96.6804 37.208 97.0004 37.552 97.4164 37.792C97.8324 38.032 98.3204 38.152 98.8804 38.152C99.7284 38.152 100.392 37.888 100.872 37.36C101.352 36.816 101.592 36.072 101.592 35.128V28.6H103.752V35.224C103.752 36.216 103.544 37.088 103.128 37.84C102.712 38.592 102.136 39.184 101.4 39.616C100.68 40.032 99.8324 40.24 98.8564 40.24ZM111.951 40.24C111.311 40.24 110.703 40.16 110.127 40C109.567 39.824 109.047 39.584 108.567 39.28C108.087 38.96 107.671 38.584 107.319 38.152L108.711 36.76C109.127 37.272 109.607 37.656 110.151 37.912C110.695 38.152 111.303 38.272 111.975 38.272C112.647 38.272 113.167 38.16 113.535 37.936C113.903 37.696 114.087 37.368 114.087 36.952C114.087 36.536 113.935 36.216 113.631 35.992C113.343 35.752 112.967 35.56 112.503 35.416C112.039 35.256 111.543 35.104 111.015 34.96C110.503 34.8 110.015 34.6 109.551 34.36C109.087 34.12 108.703 33.792 108.399 33.376C108.111 32.96 107.967 32.408 107.967 31.72C107.967 31.032 108.135 30.44 108.471 29.944C108.807 29.432 109.271 29.04 109.863 28.768C110.471 28.496 111.199 28.36 112.047 28.36C112.943 28.36 113.735 28.52 114.423 28.84C115.127 29.144 115.703 29.608 116.151 30.232L114.759 31.624C114.439 31.208 114.039 30.888 113.559 30.664C113.095 30.44 112.567 30.328 111.975 30.328C111.351 30.328 110.871 30.44 110.535 30.664C110.215 30.872 110.055 31.168 110.055 31.552C110.055 31.936 110.199 32.232 110.487 32.44C110.775 32.648 111.151 32.824 111.615 32.968C112.095 33.112 112.591 33.264 113.103 33.424C113.615 33.568 114.103 33.768 114.567 34.024C115.031 34.28 115.407 34.624 115.695 35.056C115.999 35.488 116.151 36.056 116.151 36.76C116.151 37.832 115.767 38.68 114.999 39.304C114.247 39.928 113.231 40.24 111.951 40.24Z" fill="white"/>
<g clip-path="url(#clip0_6673_2693)">
<path d="M38.0021 22.0016L19.0005 3L-0.00110312 22.0016L19.0005 41.0032L38.0021 22.0016Z" fill="#00FF9F"/>
<path d="M14.3278 26.76H18.4823L14.2471 22.6055L14.3278 26.76Z" fill="#231F20"/>
<path d="M23.9143 16.9902H19.7598L23.995 21.1448L23.9143 16.9902Z" fill="#231F20"/>
<path d="M12.4048 12.3877L12.4635 18.7223L25.595 31.6116L25.5363 24.7852L12.4048 12.3877Z" fill="#231F20"/>
</g>
<defs>
<clipPath id="clip0_6673_2693">
<rect width="38" height="38" fill="white" transform="translate(0 3)"/>
</clipPath>
</defs>
</svg>
