<svg width="675" height="165" viewBox="0 0 675 165" fill="none" xmlns="http://www.w3.org/2000/svg">
<path d="M120.892 43.4282L112.453 119.175C112.39 119.737 112.074 119.986 111.504 119.923L104.489 119.116C103.874 119.04 103.378 118.765 103 118.292L69.1818 75.9155C68.6217 75.2146 68.2959 75.309 68.2042 76.1985L59.7448 152.232C59.7294 152.373 59.6822 152.509 59.6066 152.63C59.531 152.75 59.4291 152.852 59.3085 152.927C59.1879 153.002 59.0518 153.049 58.9104 153.065C58.769 153.08 58.626 153.063 58.4922 153.015C34.7676 144.404 18.9948 128.291 11.1738 104.677C4.55927 84.6848 7.77134 61.0954 18.8092 43.2483C31.8885 22.0993 54.1114 9.14711 78.8455 7.89582C85.4037 7.56718 91.7484 8.11832 97.8794 9.54922C98.0352 9.58643 98.172 9.67964 98.2637 9.81111C98.3553 9.94258 98.3955 10.1032 98.3765 10.2623L96.3149 28.097C96.3071 28.1747 96.2825 28.2497 96.2428 28.3169C96.2032 28.3842 96.1494 28.442 96.0852 28.4864C96.021 28.5307 95.9479 28.5607 95.871 28.574C95.7941 28.5874 95.7152 28.5839 95.6398 28.5638C78.7851 24.2353 60.8948 28.3506 47.1491 39.562C33.8859 50.3775 26.3902 66.6707 26.8648 83.7967C27.2438 97.8896 32.5858 110.41 42.8907 121.359C42.9531 121.423 43.0324 121.468 43.1193 121.489C43.2062 121.509 43.2972 121.505 43.3816 121.475C43.4659 121.446 43.5402 121.393 43.5957 121.323C43.6512 121.253 43.6856 121.169 43.6948 121.08L52.1212 45.2394C52.1602 44.89 52.3545 44.7348 52.7039 44.7738L70.1399 46.6871C70.9298 46.7753 71.5744 47.1319 72.0737 47.7568L96.557 78.4892C97.0361 79.0888 97.318 79.0087 97.4029 78.2492L104.737 12.4956C104.753 12.3511 104.802 12.212 104.879 12.0887C104.956 11.9653 105.059 11.8607 105.182 11.7826C105.305 11.7045 105.443 11.6548 105.588 11.6373C105.732 11.6197 105.878 11.6346 106.016 11.681C138.847 22.7316 159.748 54.8634 156.392 89.4419C154.381 110.235 143.726 129.613 126.857 142.033C109.208 155.035 89.2143 159.431 66.8746 155.22C66.4459 155.134 66.2523 154.87 66.294 154.428L68.2707 136.63C68.3208 136.182 68.5724 135.96 69.0257 135.965C69.4477 135.974 69.8464 136.087 70.2219 136.306C70.5965 136.533 70.9986 136.685 71.4282 136.764C89.9661 139.965 106.164 135.307 120.021 122.789C138.188 106.385 142.427 80.0029 132.135 58.1348C129.488 52.4981 125.543 47.8469 121.502 43.231C121.456 43.1823 121.397 43.1476 121.332 43.131C121.267 43.1144 121.199 43.1165 121.135 43.1372C121.071 43.1578 121.015 43.196 120.972 43.2475C120.929 43.299 120.901 43.3617 120.892 43.4282Z" fill="#00FF9F"/>
<path d="M191.84 117V50.215H200.865L204.76 63.135V117H191.84ZM238.01 117L198.395 65.7L200.865 50.215L240.48 101.515L238.01 117ZM238.01 117L234.305 104.46V50.215H247.32V117H238.01ZM281.478 117.95C276.665 117.95 272.39 116.937 268.653 114.91C264.917 112.82 261.94 109.97 259.723 106.36C257.57 102.75 256.493 98.6333 256.493 94.01C256.493 89.45 257.538 85.3967 259.628 81.85C261.782 78.24 264.695 75.39 268.368 73.3C272.042 71.1467 276.127 70.07 280.623 70.07C285.057 70.07 288.952 71.0833 292.308 73.11C295.728 75.0733 298.388 77.7967 300.288 81.28C302.252 84.7 303.233 88.595 303.233 92.965C303.233 93.7883 303.17 94.6433 303.043 95.53C302.98 96.3533 302.822 97.3033 302.568 98.38L263.998 98.475V89.165L296.773 89.07L291.738 92.965C291.612 90.2417 291.105 87.9617 290.218 86.125C289.395 84.2883 288.16 82.895 286.513 81.945C284.93 80.9317 282.967 80.425 280.623 80.425C278.153 80.425 276 80.995 274.163 82.135C272.327 83.2117 270.902 84.7633 269.888 86.79C268.938 88.7533 268.463 91.0967 268.463 93.82C268.463 96.6067 268.97 99.045 269.983 101.135C271.06 103.162 272.58 104.745 274.543 105.885C276.507 106.962 278.787 107.5 281.383 107.5C283.727 107.5 285.848 107.12 287.748 106.36C289.648 105.537 291.295 104.333 292.688 102.75L300.003 110.065C297.787 112.662 295.063 114.625 291.833 115.955C288.667 117.285 285.215 117.95 281.478 117.95ZM332.495 117.95C327.872 117.95 323.692 116.905 319.955 114.815C316.282 112.662 313.337 109.78 311.12 106.17C308.967 102.497 307.89 98.4117 307.89 93.915C307.89 89.4183 308.967 85.3967 311.12 81.85C313.273 78.24 316.218 75.39 319.955 73.3C323.692 71.1467 327.84 70.07 332.4 70.07C337.087 70.07 341.267 71.1467 344.94 73.3C348.677 75.39 351.622 78.24 353.775 81.85C355.928 85.3967 357.005 89.4183 357.005 93.915C357.005 98.4117 355.928 102.497 353.775 106.17C351.622 109.78 348.677 112.662 344.94 114.815C341.267 116.905 337.118 117.95 332.495 117.95ZM332.4 106.36C334.743 106.36 336.802 105.853 338.575 104.84C340.412 103.763 341.805 102.307 342.755 100.47C343.768 98.57 344.275 96.4167 344.275 94.01C344.275 91.6033 343.768 89.4817 342.755 87.645C341.742 85.8083 340.348 84.3833 338.575 83.37C336.802 82.2933 334.743 81.755 332.4 81.755C330.12 81.755 328.093 82.2933 326.32 83.37C324.547 84.3833 323.153 85.8083 322.14 87.645C321.127 89.4817 320.62 91.6033 320.62 94.01C320.62 96.4167 321.127 98.57 322.14 100.47C323.153 102.307 324.547 103.763 326.32 104.84C328.093 105.853 330.12 106.36 332.4 106.36ZM395.892 117V90.685C395.892 87.9617 395.037 85.745 393.327 84.035C391.617 82.325 389.4 81.47 386.677 81.47C384.904 81.47 383.32 81.85 381.927 82.61C380.534 83.37 379.425 84.4467 378.602 85.84C377.842 87.2333 377.462 88.8483 377.462 90.685L372.617 88.215C372.617 84.605 373.377 81.47 374.897 78.81C376.48 76.0867 378.634 73.965 381.357 72.445C384.144 70.925 387.279 70.165 390.762 70.165C394.119 70.165 397.127 71.02 399.787 72.73C402.447 74.3767 404.537 76.5617 406.057 79.285C407.577 81.945 408.337 84.8267 408.337 87.93V117H395.892ZM365.017 117V71.115H377.462V117H365.017ZM419.692 117V50.215H428.717L432.612 63.135V117H419.692ZM465.862 117L426.247 65.7L428.717 50.215L468.332 101.515L465.862 117ZM465.862 117L462.157 104.46V50.215H475.172V117H465.862ZM509.33 117.95C504.517 117.95 500.242 116.937 496.505 114.91C492.768 112.82 489.792 109.97 487.575 106.36C485.422 102.75 484.345 98.6333 484.345 94.01C484.345 89.45 485.39 85.3967 487.48 81.85C489.633 78.24 492.547 75.39 496.22 73.3C499.893 71.1467 503.978 70.07 508.475 70.07C512.908 70.07 516.803 71.0833 520.16 73.11C523.58 75.0733 526.24 77.7967 528.14 81.28C530.103 84.7 531.085 88.595 531.085 92.965C531.085 93.7883 531.022 94.6433 530.895 95.53C530.832 96.3533 530.673 97.3033 530.42 98.38L491.85 98.475V89.165L524.625 89.07L519.59 92.965C519.463 90.2417 518.957 87.9617 518.07 86.125C517.247 84.2883 516.012 82.895 514.365 81.945C512.782 80.9317 510.818 80.425 508.475 80.425C506.005 80.425 503.852 80.995 502.015 82.135C500.178 83.2117 498.753 84.7633 497.74 86.79C496.79 88.7533 496.315 91.0967 496.315 93.82C496.315 96.6067 496.822 99.045 497.835 101.135C498.912 103.162 500.432 104.745 502.395 105.885C504.358 106.962 506.638 107.5 509.235 107.5C511.578 107.5 513.7 107.12 515.6 106.36C517.5 105.537 519.147 104.333 520.54 102.75L527.855 110.065C525.638 112.662 522.915 114.625 519.685 115.955C516.518 117.285 513.067 117.95 509.33 117.95ZM566.265 117L554.2 98.38L551.635 96.48L533.775 71.115H548.5L559.615 87.93L561.99 89.735L580.895 117H566.265ZM532.825 117L551.54 90.78L558.665 99.235L546.885 117H532.825ZM562.465 96.385L555.15 88.025L566.075 71.115H580.04L562.465 96.385ZM606.872 117.95C602.819 117.95 599.209 117.095 596.042 115.385C592.939 113.675 590.5 111.3 588.727 108.26C586.954 105.22 586.067 101.705 586.067 97.715V71.115H598.607V97.43C598.607 99.33 598.924 100.977 599.557 102.37C600.19 103.7 601.14 104.713 602.407 105.41C603.674 106.107 605.162 106.455 606.872 106.455C609.469 106.455 611.495 105.663 612.952 104.08C614.409 102.497 615.137 100.28 615.137 97.43V71.115H627.582V97.715C627.582 101.768 626.695 105.315 624.922 108.355C623.212 111.395 620.774 113.77 617.607 115.48C614.504 117.127 610.925 117.95 606.872 117.95ZM653.262 118.045C650.666 118.045 648.101 117.697 645.567 117C643.097 116.303 640.817 115.353 638.727 114.15C636.637 112.883 634.832 111.363 633.312 109.59L640.722 102.085C642.306 103.858 644.142 105.188 646.232 106.075C648.322 106.962 650.634 107.405 653.167 107.405C655.194 107.405 656.714 107.12 657.727 106.55C658.804 105.98 659.342 105.125 659.342 103.985C659.342 102.718 658.772 101.737 657.632 101.04C656.556 100.343 655.131 99.7733 653.357 99.33C651.584 98.8233 649.716 98.285 647.752 97.715C645.852 97.0817 644.016 96.29 642.242 95.34C640.469 94.3267 639.012 92.965 637.872 91.255C636.796 89.4817 636.257 87.2017 636.257 84.415C636.257 81.5017 636.954 78.9683 638.347 76.815C639.804 74.6617 641.862 72.9833 644.522 71.78C647.182 70.5767 650.317 69.975 653.927 69.975C657.727 69.975 661.147 70.64 664.187 71.97C667.291 73.3 669.856 75.295 671.882 77.955L664.377 85.46C662.984 83.75 661.401 82.515 659.627 81.755C657.917 80.995 656.049 80.615 654.022 80.615C652.186 80.615 650.761 80.9 649.747 81.47C648.797 82.04 648.322 82.8317 648.322 83.845C648.322 84.985 648.861 85.8717 649.937 86.505C651.077 87.1383 652.534 87.7083 654.307 88.215C656.081 88.6583 657.917 89.1967 659.817 89.83C661.781 90.4 663.617 91.2233 665.327 92.3C667.101 93.3767 668.526 94.8017 669.602 96.575C670.742 98.3483 671.312 100.628 671.312 103.415C671.312 107.912 669.697 111.49 666.467 114.15C663.237 116.747 658.836 118.045 653.262 118.045Z" fill="white"/>
</svg>
