<svg width="583" height="537" viewBox="0 0 583 537" fill="none" xmlns="http://www.w3.org/2000/svg">
<path d="M187 56.365V257.828L182.305 262.518H19.0141L1 244.643V43.175L5.72135 38.4902H169.012L187 56.365Z" fill="#00FF9F" fill-opacity="0.04" stroke="#00FF9F" stroke-miterlimit="10"/>
<mask id="mask0_6680_2755" style="mask-type:alpha" maskUnits="userSpaceOnUse" x="0" y="38" width="188" height="225">
<path d="M187 56.5552V257.608L182.305 262.289H19.0141L1 244.45V43.3921L5.72135 38.7168H169.012L187 56.5552Z" fill="#BDFF31" stroke="#BDFF31" stroke-miterlimit="10"/>
</mask>
<g mask="url(#mask0_6680_2755)">
<rect width="31" height="223.572" transform="matrix(-1 0 0 1 32 38.7168)" fill="#00FF9F"/>
</g>
<path d="M19.1333 115.074L16.5334 117.656L5.00011 106.207L7.60205 103.625L19.1333 115.074Z" fill="black"/>
<path d="M25.4625 103.625L28.0645 106.207L16.5332 117.656L13.9313 115.074L25.4625 103.625Z" fill="black"/>
<path d="M19.1333 136.256L16.5334 138.838L5.00011 127.391L7.60205 124.807L19.1333 136.256Z" fill="black"/>
<path d="M25.4625 124.807L28.0645 127.391L16.5332 138.838L13.9313 136.256L25.4625 124.807Z" fill="black"/>
<path d="M19.1333 157.439L16.5334 160.022L5.00011 148.573L7.60205 145.991L19.1333 157.439Z" fill="black"/>
<path d="M25.4625 145.991L28.0645 148.573L16.5332 160.022L13.9313 157.439L25.4625 145.991Z" fill="black"/>
<path d="M19.1333 178.622L16.5334 181.204L5.00011 169.755L7.60205 167.173L19.1333 178.622Z" fill="black"/>
<path d="M25.4625 167.173L28.0645 169.755L16.5332 181.204L13.9313 178.622L25.4625 167.173Z" fill="black"/>
<path d="M19.1333 199.804L16.5334 202.386L5.00011 190.939L7.60205 188.355L19.1333 199.804Z" fill="black"/>
<path d="M25.4625 188.355L28.0645 190.939L16.5332 202.386L13.9313 199.804L25.4625 188.355Z" fill="black"/>
<path d="M19.1333 220.987L16.5334 223.571L5.00011 212.122L7.60205 209.538L19.1333 220.987Z" fill="black"/>
<path d="M25.4625 209.538L28.0645 212.122L16.5332 223.571L13.9313 220.987L25.4625 209.538Z" fill="black"/>
<path d="M19.1333 242.171L16.5334 244.753L5.00011 233.304L7.60205 230.722L19.1333 242.171Z" fill="black"/>
<path d="M19.1333 94.3487L16.5334 96.9307L5.00011 85.4816L7.60205 82.8996L19.1333 94.3487Z" fill="black"/>
<path d="M19.1333 73.6241L16.5334 76.2061L5.00011 64.757L7.60205 62.175L19.1333 73.6241Z" fill="black"/>
<path d="M19.1333 52.8995L16.5334 55.4814L5.00011 44.0324L7.60205 41.4504L19.1333 52.8995Z" fill="black"/>
<path d="M25.4625 230.722L28.0645 233.304L16.5332 244.753L13.9313 242.171L25.4625 230.722Z" fill="black"/>
<path d="M25.4625 82.8996L28.0645 85.4816L16.5332 96.9307L13.9313 94.3487L25.4625 82.8996Z" fill="black"/>
<path d="M25.4625 62.175L28.0645 64.757L16.5332 76.2061L13.9313 73.6241L25.4625 62.175Z" fill="black"/>
<path d="M25.4625 41.4504L28.0645 44.0324L16.5332 55.4814L13.9313 52.8995L25.4625 41.4504Z" fill="black"/>
<path fill-rule="evenodd" clip-rule="evenodd" d="M28.0645 23.3068L25.4625 20.7248L16.5323 29.5914L7.60205 20.7248L5.00011 23.3068L13.9319 32.1733L13.9313 32.1739L16.5332 34.7559L16.5333 34.7558L16.5334 34.7559L17.3472 33.9477L28.0645 23.3068Z" fill="#00FF9F"/>
<path d="M19.1333 11.4493L16.5334 14.0312L5.00011 2.58217L7.60205 0.000228175L19.1333 11.4493Z" fill="#00FF9F"/>
<path d="M25.4625 0.000228946L28.0645 2.58217L16.5332 14.0312L13.9313 11.4493L25.4625 0.000228946Z" fill="#00FF9F"/>
<path d="M458 149.176V506.839L449.619 515.165H158.154L126 483.431V125.759L134.427 117.442H425.892L458 149.176Z" fill="#00FF9F" fill-opacity="0.08" stroke="#00FF9F" stroke-miterlimit="10"/>
<path d="M449.825 74.0186H158.175C145.605 86.4316 138.561 93.3564 126 105.816V125.43L134.433 117.096H150.543L174.826 141.149H303.879L328.171 117.133H426.074L458.258 148.93V507.27L482 483.815V105.816L449.825 74.0186Z" fill="#00FF9F"/>
<g clip-path="url(#clip0_6680_2755)">
<path d="M138.925 245.164L171.701 245.164C172.542 245.164 173.224 245.846 173.224 246.687C173.224 247.528 172.542 248.21 171.701 248.21L138.925 248.21C138.084 248.21 137.402 247.528 137.402 246.687C137.402 245.846 138.084 245.164 138.925 245.164Z" stroke="#00FF9F" stroke-width="0.5"/>
<path d="M138.915 233.099L171.691 233.099C172.532 233.099 173.214 233.781 173.214 234.622C173.214 235.464 172.532 236.146 171.691 236.146L138.915 236.146C138.074 236.146 137.392 235.464 137.392 234.622C137.392 233.781 138.074 233.099 138.915 233.099Z" stroke="#00FF9F" stroke-width="0.5"/>
<path d="M138.925 221.025L171.701 221.025C172.542 221.025 173.224 221.707 173.224 222.548C173.224 223.389 172.542 224.071 171.701 224.071L138.925 224.071C138.084 224.071 137.402 223.389 137.402 222.548C137.402 221.707 138.084 221.025 138.925 221.025Z" stroke="#00FF9F" stroke-width="0.5"/>
<path d="M138.925 208.951L171.701 208.951C172.542 208.951 173.224 209.633 173.224 210.474C173.224 211.315 172.542 211.997 171.701 211.997L138.925 211.997C138.084 211.997 137.402 211.315 137.402 210.474C137.402 209.633 138.084 208.951 138.925 208.951Z" stroke="#00FF9F" stroke-width="0.5"/>
<path d="M171.691 196.635L138.915 196.635C137.936 196.635 137.142 197.429 137.142 198.408C137.142 199.388 137.936 200.182 138.915 200.182L171.691 200.182C172.67 200.182 173.464 199.388 173.464 198.408C173.464 197.429 172.67 196.635 171.691 196.635Z" fill="#00FF9F"/>
<path d="M171.701 184.561L138.925 184.561C137.946 184.561 137.152 185.355 137.152 186.334C137.152 187.314 137.946 188.107 138.925 188.107L171.701 188.107C172.68 188.107 173.474 187.314 173.474 186.334C173.474 185.355 172.68 184.561 171.701 184.561Z" fill="#00FF9F"/>
<path d="M171.701 172.487L138.925 172.487C137.946 172.487 137.152 173.281 137.152 174.26C137.152 175.239 137.946 176.033 138.925 176.033L171.701 176.033C172.68 176.033 173.474 175.239 173.474 174.26C173.474 173.281 172.68 172.487 171.701 172.487Z" fill="#00FF9F"/>
<path d="M171.691 160.422L138.915 160.422C137.936 160.422 137.142 161.216 137.142 162.196C137.142 163.175 137.936 163.969 138.915 163.969L171.691 163.969C172.67 163.969 173.464 163.175 173.464 162.196C173.464 161.216 172.67 160.422 171.691 160.422Z" fill="#00FF9F"/>
<path d="M171.701 148.348L138.925 148.348C137.946 148.348 137.152 149.142 137.152 150.121C137.152 151.101 137.946 151.895 138.925 151.895L171.701 151.895C172.68 151.895 173.474 151.101 173.474 150.121C173.474 149.142 172.68 148.348 171.701 148.348Z" fill="#00FF9F"/>
</g>
<path d="M539.426 192.026C544.785 201.187 543.313 213.793 535.81 228.876C528.318 243.938 514.869 261.343 496.523 279.987C459.836 317.269 403.649 359.422 336.656 397.594C269.662 435.767 204.579 462.712 153.519 475.427C127.986 481.785 105.989 484.577 89.0247 483.449C72.0382 482.321 60.2401 477.275 54.8809 468.115C49.9335 459.658 50.8059 448.265 56.8776 434.689C62.9435 421.126 74.1548 405.489 89.6854 388.647C120.74 354.97 168.984 316.56 227.582 280.382L306.446 236.517C363.761 208.019 417.31 188.734 458.918 180.684C479.726 176.658 497.518 175.447 511.289 177.283C525.071 179.12 534.725 183.99 539.426 192.026Z" stroke="#00FF9F"/>
<path d="M72.763 177.799C77.9667 168.904 89.4242 164.002 105.928 162.906C122.409 161.81 143.782 164.523 168.591 170.701C218.202 183.054 281.44 209.236 346.534 246.326C411.628 283.416 466.222 324.374 501.868 360.599C519.694 378.714 532.76 395.624 540.04 410.258C547.329 424.912 548.757 437.155 543.553 446.05C538.749 454.261 528.617 459.071 514.093 460.624C499.584 462.176 480.806 460.462 458.901 455.747C415.101 446.319 358.913 424.915 299.598 393.829L223.882 349.646C171.739 315.894 129.281 280.793 102.204 250.152C88.6622 234.828 78.9874 220.642 73.8626 208.315C68.734 195.98 68.1983 185.602 72.763 177.799Z" stroke="#00FF9F"/>
<path d="M214.31 63.2152C214.31 65.3812 212.201 67.4902 210.035 67.4902C210.035 67.4902 203.024 67.4902 201.485 67.4902C199.433 67.4902 197.096 65.3812 197.096 63.2152V57.7432L185.81 52.1572V63.2152C185.81 65.3812 183.701 67.4902 181.535 67.4902C179.939 67.4902 174.809 67.4902 172.985 67.4902C170.819 67.4902 168.71 65.3812 168.71 63.2152V46.1152C168.71 43.9492 170.819 41.8402 172.985 41.8402C172.529 41.8402 181.535 41.8402 181.535 41.8402C183.701 41.8402 185.81 43.9492 185.81 46.1152V47.1412L197.096 53.0122V46.1152C197.096 43.9492 199.433 41.8402 201.485 41.8402H210.035C212.201 41.8402 214.31 43.9492 214.31 46.1152V63.2152ZM265.175 58.9402C265.004 59.7952 264.776 59.7952 264.206 60.0232H245.054C244.313 61.0492 243.914 61.7902 242.375 61.7902C241.349 61.8472 239.867 60.9352 239.81 60.0232H236.105C236.105 62.8162 239.297 65.3812 242.375 65.3812C243.914 65.3812 245.51 65.0392 247.22 63.2152H261.812C262.496 63.2152 263.465 64.1842 262.553 65.0392C261.185 66.3502 259.532 67.4902 256.625 67.4902H228.125C223.85 67.4902 219.575 63.2152 219.575 58.9402C219.575 54.6652 223.85 50.3902 228.125 50.3902H256.625C259.361 50.3902 261.356 51.5872 262.61 52.7842C263.237 53.4682 265.346 55.9762 265.175 58.9402ZM248.702 57.8572C248.075 55.0642 246.422 52.7272 242.375 52.4992C239.24 52.4992 236.39 55.0072 236.048 57.8572H239.753C240.152 56.8312 241.235 56.0332 242.375 56.0902C243.629 56.0332 244.598 56.8882 244.997 57.8572H248.702ZM313.897 58.9402C313.897 63.2152 309.622 67.4902 305.347 67.4902H276.847C272.572 67.4902 268.297 63.2152 268.297 58.9402C268.297 54.6652 272.572 50.3902 276.847 50.3902H305.347C309.622 50.3902 313.897 54.6652 313.897 58.9402ZM297.538 58.9402V58.9972C297.538 55.3492 294.745 52.4992 291.097 52.4992C287.506 52.4992 284.656 55.2922 284.656 58.9402C284.656 62.5882 287.449 65.3812 291.097 65.3812C294.745 65.3812 297.538 62.5882 297.538 58.9402ZM364.823 63.2152C364.823 65.3812 362.714 67.4902 360.548 67.4902H348.407V58.9402C348.407 55.6912 346.07 52.4992 342.023 52.4992C338.261 52.4992 335.582 55.6912 335.582 58.9402V67.4902H323.498C321.332 67.4902 319.223 65.3812 319.223 63.2152V50.3902H356.273C360.548 50.3902 364.823 54.6652 364.823 58.9402V63.2152ZM214.31 96.2152C214.31 98.3812 212.201 100.49 210.035 100.49C210.035 100.49 203.024 100.49 201.485 100.49C199.433 100.49 197.096 98.3812 197.096 96.2152V90.7432L185.81 85.1572V96.2152C185.81 98.3812 183.701 100.49 181.535 100.49C179.939 100.49 174.809 100.49 172.985 100.49C170.819 100.49 168.71 98.3812 168.71 96.2152V79.1152C168.71 76.9492 170.819 74.8402 172.985 74.8402C172.529 74.8402 181.535 74.8402 181.535 74.8402C183.701 74.8402 185.81 76.9492 185.81 79.1152V80.1412L197.096 86.0122V79.1152C197.096 76.9492 199.433 74.8402 201.485 74.8402H210.035C212.201 74.8402 214.31 76.9492 214.31 79.1152V96.2152ZM265.175 91.9402C265.004 92.7952 264.776 92.7952 264.206 93.0232H245.054C244.313 94.0492 243.914 94.7902 242.375 94.7902C241.349 94.8472 239.867 93.9352 239.81 93.0232H236.105C236.105 95.8162 239.297 98.3812 242.375 98.3812C243.914 98.3812 245.51 98.0392 247.22 96.2152H261.812C262.496 96.2152 263.465 97.1842 262.553 98.0392C261.185 99.3502 259.532 100.49 256.625 100.49H228.125C223.85 100.49 219.575 96.2152 219.575 91.9402C219.575 87.6652 223.85 83.3902 228.125 83.3902H256.625C259.361 83.3902 261.356 84.5872 262.61 85.7842C263.237 86.4682 265.346 88.9762 265.175 91.9402ZM248.702 90.8572C248.075 88.0642 246.422 85.7272 242.375 85.4992C239.24 85.4992 236.39 88.0072 236.048 90.8572H239.753C240.152 89.8312 241.235 89.0332 242.375 89.0902C243.629 89.0332 244.598 89.8882 244.997 90.8572H248.702ZM313.384 98.3812C313.612 99.6352 313.441 100.49 312.529 100.49H297.31C297.538 96.7282 295.144 93.0232 290.812 93.0232C286.537 93.0232 284.086 96.7852 284.2 100.49H269.095C268.183 100.49 268.012 99.6352 268.24 98.3812C269.209 94.8472 272.401 91.9402 276.562 91.9402C272.401 91.9402 269.437 89.3752 268.297 85.4992C268.012 84.3022 268.012 83.5612 269.038 83.3902H284.257C284.257 86.8672 286.195 90.8572 290.812 90.8572C295.486 90.8572 297.424 86.6962 297.367 83.3902H312.586C313.612 83.5612 313.612 84.3022 313.327 85.4992C312.187 89.3752 309.223 91.9402 305.062 91.9402C309.223 91.9402 312.415 94.8472 313.384 98.3812ZM363.939 100.49H326.889C322.614 100.49 318.339 96.2152 318.339 91.9402V87.6652C318.339 85.4992 320.448 83.3902 322.614 83.3902H334.755V91.9402C334.755 95.1892 337.092 98.3812 341.139 98.3812C344.901 98.3812 347.58 95.1892 347.58 91.9402V83.3902H359.664C361.83 83.3902 363.939 85.4992 363.939 87.6652V100.49ZM414.136 91.9402C414.136 96.2152 409.861 100.49 405.586 100.49H377.086C375.034 100.547 373.039 99.4642 371.728 98.3812C370.645 97.5262 370.873 96.4432 372.013 96.2152H386.548C387.175 96.8992 388.6 98.3812 391.336 98.3812C394.129 98.3812 397.036 96.5572 397.663 93.0232H394.015C393.388 94.1062 392.647 94.7332 391.336 94.7902C389.911 94.7902 388.942 93.8212 388.714 93.0232H369.619C369.163 93.0232 368.536 92.7382 368.536 91.9402C368.536 87.6652 372.811 83.3902 377.086 83.3902H405.586C408.607 83.5612 409.576 84.1882 411.628 85.8982C412.141 86.9812 411.571 87.6652 410.83 87.6652H396.124C394.927 86.3542 393.388 85.4992 391.336 85.4992C387.631 85.5562 385.408 88.1782 385.009 90.8572H388.714C389.17 89.7742 390.139 89.0902 391.336 89.0902C392.533 89.0902 393.502 89.7172 393.958 90.8572H412.825C413.851 90.8572 414.136 91.4272 414.136 91.9402Z" fill="url(#paint0_linear_6680_2755)"/>
<path d="M54.9 209.487C57.45 209.487 60 212.037 60 214.587L60 231.587C60 234.137 57.45 236.687 54.9 236.687L47.25 236.687C45.958 236.687 44.7 235.429 44.7 234.137L44.7 229.037C44.7 227.745 45.958 226.487 47.25 226.487L49.8 226.487L49.8 214.587C49.8 212.037 52.35 209.487 54.9 209.487ZM54.9 219.041L54.934 219.041C52.758 219.041 50.99 220.809 50.99 222.985C50.99 225.127 52.758 226.895 54.9 226.895C57.076 226.895 58.844 225.127 58.844 222.985C58.844 220.809 57.076 219.041 54.9 219.041ZM54.9 179.312C55.41 179.414 55.41 179.55 55.546 179.89L55.546 191.314C56.158 191.756 56.6 191.994 56.6 192.912C56.634 193.524 56.09 194.408 55.546 194.442L55.546 196.652C57.212 196.652 58.742 194.748 58.742 192.912C58.742 191.994 58.538 191.042 57.45 190.022L57.45 181.318C57.45 180.91 58.028 180.332 58.538 180.876C59.32 181.692 60 182.678 60 184.412L60 201.412C60 203.962 57.45 206.512 54.9 206.512C52.35 206.512 49.8 203.962 49.8 201.412L49.8 184.412C49.8 182.78 50.514 181.59 51.228 180.842C51.636 180.468 53.132 179.21 54.9 179.312ZM54.254 189.138C52.588 189.512 51.194 190.498 51.058 192.912C51.058 194.782 52.554 196.482 54.254 196.686L54.254 194.476C53.642 194.238 53.166 193.592 53.2 192.912C53.166 192.164 53.676 191.586 54.254 191.348L54.254 189.138ZM60 149.455C62.55 149.455 65.1 152.005 65.1 154.555L65.1 163.055C65.1 163.395 64.76 163.667 64.454 163.667C64.046 163.667 63.91 163.463 63.808 163.055C63.706 162.647 63.74 162.239 63.604 161.797C63.094 160.267 61.666 159.145 60 159.145L60 171.555C60 174.105 57.45 176.655 54.9 176.655L52.35 176.655C51.058 176.655 49.8 175.397 49.8 174.105L49.8 166.863C51.5 166.863 53.2 166.863 54.9 166.863C57.008 166.863 58.776 165.129 58.776 163.021C58.776 160.879 57.008 159.145 54.9 159.145L49.8 159.145L49.8 152.005C49.8 150.713 51.058 149.455 52.35 149.455L60 149.455ZM54.9 119.138C57.45 119.138 60 121.688 60 124.238L60 141.238C60 143.788 57.45 146.338 54.9 146.338C52.35 146.338 49.8 143.788 49.8 141.238L49.8 124.238C49.8 121.688 52.35 119.138 54.9 119.138ZM54.9 128.896L54.934 128.896C52.758 128.896 51.058 130.562 51.058 132.738C51.058 134.88 52.724 136.58 54.9 136.58C57.076 136.58 58.742 134.914 58.742 132.738C58.742 130.562 57.076 128.896 54.9 128.896ZM57.45 88.7615C58.742 88.7615 60 90.0195 60 91.3115L60 98.5535L54.9 98.5535C52.962 98.5535 51.058 99.9475 51.058 102.362C51.058 104.606 52.962 106.204 54.9 106.204L60 106.204L60 113.412C60 114.704 58.742 115.962 57.45 115.962L49.8 115.962L49.8 93.8615C49.8 91.3115 52.35 88.7615 54.9 88.7615L57.45 88.7615ZM60 58.4779L60 80.5779C60 83.1279 57.45 85.6779 54.9 85.6779C52.35 85.6779 49.8 83.1279 49.8 80.5779L49.8 68.6779L47.25 68.6779C45.958 68.6779 44.7 67.4199 44.7 66.1279L44.7 61.0279C44.7 59.7359 45.958 58.4779 47.25 58.4779L60 58.4779ZM54.9 68.2699L54.934 68.2699C52.758 68.2699 50.99 70.0039 50.99 72.1799C50.99 74.3559 52.758 76.1239 54.9 76.1239C57.076 76.1239 58.844 74.3559 58.844 72.1799C58.844 70.0039 57.076 68.2699 54.9 68.2699ZM84.354 168.626C84.694 168.626 84.932 168.864 85 169.238L85 180.39C85 182.94 82.45 185.558 79.9 185.558L72.25 185.558C70.958 185.558 69.7 184.3 69.7 183.008L69.7 178.316C69.7 177.024 70.958 175.766 72.25 175.766L76.058 175.766L76.058 173.556C75.344 173.216 75.004 172.604 75.004 171.958C75.004 170.972 75.752 170.292 76.704 170.258C77.622 170.258 78.404 170.972 78.404 171.958C78.404 172.638 78.03 173.318 77.35 173.522L77.35 175.766L79.9 175.766C81.362 175.766 83.742 173.896 83.742 171.958C83.742 170.904 83.742 169.918 83.742 169.238C83.776 168.626 84.354 168.626 84.354 168.626ZM82.45 139.662C83.742 139.662 85 140.92 85 142.212L85 149.42L79.9 149.42C77.656 149.42 76.058 151.222 76.058 153.262C76.058 155.438 77.894 157.104 79.9 157.104L85 157.104L85 164.312C85 165.604 83.742 166.862 82.45 166.862L72.25 166.862C70.958 166.862 69.7 165.604 69.7 164.312L69.7 159.212C69.7 157.92 70.958 156.662 72.25 156.662L74.8 156.662L74.8 144.762C74.8 142.212 77.35 139.662 79.9 139.662L82.45 139.662ZM79.9 109.419C80.41 109.521 80.41 109.657 80.546 109.997L80.546 121.421C81.158 121.863 81.6 122.101 81.6 123.019C81.634 123.631 81.09 124.515 80.546 124.549L80.546 126.759C82.212 126.759 83.742 124.855 83.742 123.019C83.742 122.101 83.538 121.149 82.45 120.129L82.45 111.425C82.45 111.017 83.028 110.439 83.538 110.983C84.32 111.799 85 112.785 85 114.519L85 131.519C85 134.069 82.45 136.619 79.9 136.619C77.35 136.619 74.8 134.069 74.8 131.519L74.8 114.519C74.8 112.887 75.514 111.697 76.228 110.949C76.636 110.575 78.132 109.317 79.9 109.419ZM79.254 119.245C77.588 119.619 76.194 120.605 76.058 123.019C76.058 124.889 77.554 126.589 79.254 126.793L79.254 124.583C78.642 124.345 78.166 123.699 78.2 123.019C78.166 122.271 78.676 121.693 79.254 121.455L79.254 119.245ZM107.45 233.742C108.742 233.742 110 235 110 236.292L110 241.392C110 242.684 108.742 243.942 107.45 243.942L102.35 243.942C101.058 243.942 99.8 242.684 99.8 241.392L99.8 239.488L97.93 239.454C97.692 240.134 97.148 240.542 96.4 240.542C95.448 240.542 94.7 239.76 94.7 238.842C94.7 237.89 95.448 237.142 96.4 237.142C97.114 237.142 97.726 237.584 97.998 238.196L99.8 238.196L99.8 236.292C99.8 235 101.058 233.742 102.35 233.742L107.45 233.742ZM107.45 185.754C108.742 185.754 110 187.012 110 188.304L110 195.546L104.9 195.546C102.962 195.546 101.058 196.94 101.058 199.354C101.058 201.598 102.962 203.196 104.9 203.196L107.45 203.196C108.742 203.196 110 204.454 110 205.746L110 210.404C110 211.696 108.742 212.988 107.45 212.988L104.9 212.988C102.962 212.988 101.058 214.382 101.058 216.796C101.058 219.04 102.962 220.638 104.9 220.638L110 220.638L110 227.846C110 229.138 108.742 230.396 107.45 230.396L99.8 230.396L99.8 190.854C99.8 188.304 102.35 185.754 104.9 185.754L107.45 185.754ZM110 155.48L110 177.58C110 180.13 107.45 182.68 104.9 182.68C102.35 182.68 99.8 180.13 99.8 177.58L99.8 160.58C99.8 158.03 102.35 155.48 104.9 155.48L110 155.48ZM108.742 165.544L104.9 165.544C102.962 165.544 101.058 167.142 101.058 169.386C101.058 171.562 102.724 173.228 104.9 173.228C107.178 173.262 108.742 171.324 108.742 169.386L108.742 165.544ZM110 125.233C112.55 125.233 115.1 127.783 115.1 130.333L115.1 138.833C115.032 139.207 114.794 139.445 114.454 139.445C114.454 139.445 113.842 139.445 113.808 138.833C113.808 136.759 112.176 134.923 110 134.923L110 147.333C110 149.883 107.45 152.433 104.9 152.433C102.35 152.433 99.8 149.883 99.8 147.333L99.8 125.233L110 125.233ZM104.9 134.923C102.758 134.923 101.024 136.657 101.024 138.799C101.024 140.907 102.758 142.641 104.9 142.641C107.042 142.641 108.776 140.907 108.776 138.799C108.776 136.657 107.042 134.923 104.9 134.923ZM107.45 111.688C108.742 111.688 110 112.946 110 114.238L110 119.338C110 120.63 108.742 121.888 107.45 121.888L102.35 121.888C101.058 121.888 99.8 120.63 99.8 119.338L99.8 117.434L97.93 117.4C97.692 118.08 97.148 118.488 96.4 118.488C95.448 118.488 94.7 117.706 94.7 116.788C94.7 115.836 95.448 115.088 96.4 115.088C97.114 115.088 97.726 115.53 97.998 116.142L99.8 116.142L99.8 114.238C99.8 112.946 101.058 111.688 102.35 111.688L107.45 111.688ZM107.45 81.1414C108.742 81.1414 110 82.3994 110 83.6914L110 90.9334L104.9 90.9334C102.962 90.9334 101.058 92.3274 101.058 94.7414C101.058 96.9854 102.962 98.5834 104.9 98.5834L110 98.5834L110 105.791C110 107.083 108.742 108.341 107.45 108.341L99.8 108.341L99.8 86.2414C99.8 83.6914 102.35 81.1414 104.9 81.1414L107.45 81.1414ZM104.9 50.899C105.41 51.001 105.41 51.137 105.546 51.477L105.546 62.901C106.158 63.343 106.6 63.581 106.6 64.499C106.634 65.111 106.09 65.995 105.546 66.029L105.546 68.239C107.212 68.239 108.742 66.335 108.742 64.499C108.742 63.581 108.538 62.629 107.45 61.609L107.45 52.905C107.45 52.497 108.028 51.919 108.538 52.463C109.32 53.279 110 54.265 110 55.999L110 72.999C110 75.549 107.45 78.099 104.9 78.099C102.35 78.099 99.8 75.549 99.8 72.999L99.8 55.999C99.8 54.367 100.514 53.177 101.228 52.429C101.636 52.055 103.132 50.797 104.9 50.899ZM104.254 60.725C102.588 61.099 101.194 62.085 101.058 64.499C101.058 66.369 102.554 68.069 104.254 68.273L104.254 66.063C103.642 65.825 103.166 65.179 103.2 64.499C103.166 63.751 103.676 63.173 104.254 62.935L104.254 60.725Z" fill="#00FF9F"/>
<g filter="url(#filter0_d_6680_2755)">
<path d="M231.569 386.343H284.874L230.533 333.593L231.569 386.343Z" fill="#00FF9F"/>
</g>
<g filter="url(#filter1_d_6680_2755)">
<path d="M355.978 261.5H301.799L357.031 315.129L355.978 261.5Z" fill="#00FF9F"/>
</g>
<g filter="url(#filter2_d_6680_2755)">
<path d="M206.48 202.597L207.241 283.712L377.52 448.764L376.759 361.35L206.48 202.597Z" fill="#00FF9F"/>
<path d="M207.739 283.499L206.991 203.757L376.26 361.57L377.01 447.573L207.739 283.499Z" stroke="#00FF9F"/>
</g>
<mask id="mask1_6680_2755" style="mask-type:alpha" maskUnits="userSpaceOnUse" x="206" y="202" width="172" height="247">
<path d="M206.48 202.597L207.241 283.712L377.52 448.764L376.759 361.35L206.48 202.597Z" fill="#00FF9F"/>
</mask>
<g mask="url(#mask1_6680_2755)">
<g filter="url(#filter3_d_6680_2755)">
<path d="M395.252 381.391L395.272 381.408L395.512 381.138L395.357 381.003C398.419 369.735 396.901 355.644 390.682 339.815C381.546 316.524 363.389 292.286 339.578 271.589C315.766 250.892 289.107 236.176 264.541 230.174C247.859 226.097 233.49 226.378 222.55 230.8L222.398 230.668L222.158 230.937L222.178 230.955C217.292 232.935 212.928 235.988 209.419 239.881C198.473 252.147 197.483 271.747 206.631 295.078C215.78 318.408 233.924 342.606 257.739 363.306C281.554 384.006 308.207 398.716 332.772 404.719C357.337 410.722 376.954 407.283 387.901 395.017C391.368 391.086 393.882 386.426 395.252 381.391ZM387.614 394.768C384.284 398.461 380.168 401.383 375.559 403.326C372.608 397.443 363.735 386.703 362.46 385.184C362.641 385.1 362.812 385.006 362.993 384.922C363.175 384.837 363.415 384.711 363.611 384.616C363.807 384.522 364.02 384.395 364.227 384.274C364.433 384.154 364.632 384.05 364.818 383.94C365.003 383.831 365.203 383.699 365.4 383.57C365.597 383.441 365.786 383.328 365.965 383.207C366.143 383.085 366.33 382.948 366.52 382.807C366.71 382.667 366.886 382.548 367.055 382.418C367.224 382.288 367.398 382.139 367.578 381.99C367.758 381.841 367.924 381.714 368.089 381.569C368.253 381.424 368.411 381.272 368.581 381.115C368.752 380.957 368.904 380.818 369.056 380.668C369.208 380.517 369.346 380.343 369.503 380.168C369.659 379.992 369.809 379.857 369.951 379.698C370.093 379.539 370.241 379.373 370.381 379.183C370.521 378.994 370.671 378.858 370.816 378.696C370.961 378.534 371.076 378.345 371.219 378.158C371.363 377.972 371.483 377.811 371.605 377.634C371.728 377.458 371.842 377.264 371.975 377.062C372.108 376.86 372.219 376.697 372.326 376.519C372.432 376.34 372.543 376.131 372.675 375.911C372.807 375.691 372.899 375.528 372.987 375.351C373.075 375.174 373.202 374.921 373.309 374.702C373.416 374.484 373.496 374.328 373.586 374.135C373.676 373.942 373.779 373.669 373.879 373.439C373.979 373.209 374.041 373.06 374.115 372.865C374.19 372.67 374.297 372.36 374.387 372.109C374.452 371.924 374.521 371.741 374.58 371.55C374.673 371.262 374.757 370.965 374.843 370.672C374.889 370.509 374.941 370.352 374.968 370.203C375.096 369.738 375.218 369.267 375.317 368.776C375.435 368.21 375.537 367.629 375.627 367.044C375.659 366.824 375.688 366.607 375.714 366.387C377.359 367.557 386.913 374.391 394.917 381.123C393.58 386.167 391.08 390.836 387.614 394.768ZM269.798 349.774L269.92 349.638C267.856 347.913 265.801 346.121 263.808 344.297C258.374 339.361 253.242 334.11 248.439 328.573C250.343 328.101 252.283 327.785 254.239 327.627C265.046 341.643 278.571 353.399 294.024 362.208C294.113 364.145 294.041 366.085 293.81 368.009C287.637 364.007 281.712 359.646 276.064 354.949C273.978 353.229 271.917 351.443 269.923 349.641L269.798 349.774ZM328.723 283.745C333.764 288.202 338.568 292.913 343.116 297.859C339.907 299.342 336.783 300.996 333.757 302.812C326.39 294.656 318.051 287.408 308.922 281.226C310.363 278.032 311.63 274.764 312.716 271.435C318.263 275.263 323.606 279.372 328.723 283.745ZM344.426 299.298L344.826 299.743L345.49 300.488L345.917 300.975L346.539 301.682L346.981 302.199L347.556 302.866L348.008 303.404L348.581 304.075L349.04 304.624L349.578 305.275L350.037 305.83L350.562 306.476L351.032 307.059L351.523 307.676L352.005 308.285L352.476 308.879L352.963 309.51L353.404 310.078L353.891 310.721L354.32 311.284L354.801 311.933L355.214 312.487L355.71 313.166L356.092 313.689L356.589 314.38L356.955 314.889L357.449 315.596L357.796 316.087L358.284 316.8L358.621 317.289L359.107 318.011L359.427 318.486L359.922 319.244L360.205 319.669L360.71 320.455L360.977 320.865L361.457 321.64L361.713 322.048L362.191 322.826L362.428 323.217L362.913 324.025L363.153 324.413L363.637 325.236L363.85 325.601L364.307 326.402L364.518 326.769L364.969 327.577L365.177 327.948L365.616 328.768L365.807 329.112L366.237 329.943L366.412 330.273L366.856 331.133L367.013 331.436C367.163 331.728 367.306 332.02 367.447 332.309L367.593 332.598L368.007 333.448L368.157 333.757L368.48 334.447C363.335 333.208 358.071 332.52 352.779 332.394C349.03 322.877 342.599 312.713 333.929 303.026C336.96 301.21 340.089 299.559 343.301 298.078L343.666 298.476L344.426 299.298ZM375.267 366.961C375.235 367.187 375.193 367.411 375.158 367.634L375.124 367.83C375.073 368.119 375.015 368.403 374.95 368.682C374.85 369.161 374.741 369.631 374.622 370.093C374.587 370.224 374.542 370.352 374.507 370.483C374.416 370.808 374.326 371.133 374.228 371.452C374.176 371.609 374.118 371.766 374.063 371.92C373.97 372.202 373.876 372.484 373.772 372.758C373.705 372.924 373.632 373.086 373.565 373.252C373.461 373.507 373.362 373.762 373.251 374.012C373.174 374.176 373.092 374.335 373.012 374.496C372.897 374.737 372.785 374.98 372.664 375.214C372.581 375.373 372.485 375.526 372.399 375.688C372.274 375.914 372.152 376.142 372.017 376.359C371.921 376.519 371.819 376.666 371.723 376.82C371.585 377.034 371.452 377.248 371.307 377.456C371.202 377.607 371.09 377.752 370.982 377.9C370.836 378.102 370.691 378.305 370.536 378.498C370.38 378.692 370.289 378.775 370.165 378.914C370.04 379.054 369.837 379.281 369.675 379.463C369.512 379.645 369.425 379.743 369.301 379.882C369.176 380.022 368.976 380.246 368.791 380.414C368.606 380.582 368.509 380.671 368.371 380.799C368.233 380.927 368.019 381.134 367.834 381.296C367.649 381.458 367.529 381.538 367.382 381.664C367.235 381.79 367.007 381.973 366.815 382.123C366.622 382.273 366.491 382.355 366.327 382.472C366.164 382.59 365.936 382.76 365.733 382.896C365.53 383.031 365.389 383.116 365.216 383.225C365.043 383.334 364.804 383.49 364.591 383.617C364.379 383.743 364.225 383.823 364.042 383.924C363.859 384.024 363.613 384.168 363.39 384.28C363.167 384.392 362.995 384.473 362.799 384.568C362.603 384.663 362.384 384.784 362.19 384.864C357.207 379.408 351.537 374.604 345.319 370.568C347.551 369.427 349.55 367.889 351.217 366.033C353.563 363.36 355.187 360.145 355.938 356.685C362.765 359.066 369.283 362.234 375.358 366.124C375.334 366.322 375.306 366.517 375.278 366.712C375.287 366.806 375.28 366.887 375.267 366.961ZM294.154 368.227C294.395 366.301 294.477 364.358 294.399 362.418C304.571 368.087 314.653 371.717 323.648 373.058C326.783 376.814 329.41 380.955 331.464 385.377C319.801 382.358 306.898 376.455 294.154 368.227ZM294.378 361.996C294.165 358.696 293.338 356.138 291.916 354.417C292.739 354.919 293.548 355.397 294.323 355.835C296.23 356.915 298.169 357.931 300.105 358.841C303.622 360.522 307.293 361.868 311.068 362.861C315.743 365.32 319.894 368.646 323.292 372.656C314.403 371.268 304.442 367.635 294.378 361.996ZM226.222 293.901C230.926 295.353 235.421 297.402 239.592 299.996C242.077 308.633 246.991 318.039 253.981 327.287C252.021 327.459 250.079 327.785 248.173 328.261C238.29 316.821 230.727 304.935 226.222 293.901ZM240.037 300.279C244.496 303.098 248.363 306.741 251.423 311.006C252.898 314.576 254.715 318 256.849 321.231C258.007 323.011 259.272 324.791 260.601 326.512C261.142 327.218 261.721 327.947 262.33 328.689C260.437 327.529 257.756 327.021 254.404 327.24C247.463 318.115 242.555 308.819 240.033 300.276L240.037 300.279ZM222.847 263.747C222.92 263.527 223.005 263.307 223.072 263.1C223.14 262.894 223.204 262.696 223.279 262.501C223.353 262.306 223.466 262.035 223.563 261.808C223.661 261.581 223.712 261.424 223.797 261.238C223.881 261.052 224.007 260.792 224.117 260.571C224.227 260.349 224.286 260.204 224.377 260.03C224.469 259.855 224.614 259.601 224.734 259.388C224.853 259.174 224.919 259.041 225.017 258.873C225.115 258.704 225.28 258.46 225.409 258.256C225.539 258.051 225.612 257.931 225.723 257.773C225.834 257.616 226.009 257.375 226.154 257.179C226.3 256.982 226.371 256.871 226.489 256.725C226.607 256.58 226.8 256.344 226.959 256.159C227.118 255.974 227.208 255.88 227.333 255.74C227.457 255.6 227.66 255.373 227.826 255.188C227.991 255.002 228.072 254.911 228.194 254.775C228.359 254.59 228.557 254.433 228.736 254.266C228.915 254.098 229.006 254.01 229.144 253.888C229.282 253.766 229.53 253.566 229.725 253.407C229.87 253.29 230.009 253.168 230.157 253.055C230.355 252.898 230.566 252.753 230.777 252.602C230.926 252.495 231.074 252.381 231.226 252.277C231.443 252.131 231.668 251.992 231.892 251.852C232.05 251.753 232.202 251.649 232.364 251.553C232.526 251.457 232.67 251.381 232.823 251.294L233.066 251.16C233.231 251.067 233.387 250.971 233.559 250.884C233.805 250.752 234.065 250.632 234.321 250.508C234.484 250.431 234.643 250.344 234.81 250.27C235.097 250.138 235.397 250.019 235.699 249.889C235.845 249.831 235.984 249.761 236.141 249.696C236.593 249.512 237.051 249.333 237.515 249.194C238.337 248.929 239.157 248.667 240.021 248.46C244.699 253.917 248.708 259.9 251.965 266.282C248.58 267.452 245.552 269.447 243.162 272.083C241.507 273.948 240.215 276.098 239.351 278.427C234.501 272.856 228.95 267.919 222.834 263.735L222.847 263.747ZM243.754 247.736C244.053 247.696 244.356 247.653 244.658 247.616L244.732 247.612C245.026 247.578 245.319 247.545 245.616 247.514L245.69 247.51C245.987 247.479 246.29 247.455 246.594 247.43C246.608 247.43 246.623 247.429 246.637 247.427C246.95 247.405 247.257 247.389 247.579 247.369L247.622 247.366C247.938 247.347 248.242 247.328 248.578 247.326L248.674 247.323L249.591 247.301L249.675 247.305L250.618 247.299L250.73 247.304C251.038 247.307 251.346 247.309 251.655 247.318L251.708 247.318L252.706 247.355L252.784 247.359L253.767 247.412L253.877 247.421C254.196 247.444 254.518 247.464 254.843 247.494L254.959 247.502L255.929 247.589L256.051 247.603L257.026 247.706L257.142 247.721L258.133 247.844L258.271 247.866C258.598 247.907 258.921 247.952 259.251 248.002L259.386 248.022L260.383 248.178L260.49 248.196L261.512 248.364L261.632 248.387L262.642 248.568L262.803 248.597L263.796 248.797L263.973 248.836L264.957 249.045L265.153 249.089L266.129 249.308L266.306 249.352L267.318 249.603L267.451 249.638L268.511 249.914L268.666 249.956C269.017 250.049 269.365 250.145 269.712 250.242L269.918 250.3C270.251 250.393 270.587 250.489 270.92 250.595L271.12 250.653L272.139 250.962L272.165 250.985C274.091 255.876 275.469 260.96 276.274 266.145C267.108 263.945 258.827 263.877 252.257 266.145C249.012 259.776 245.02 253.803 240.366 248.35C241.428 248.096 242.521 247.893 243.646 247.74L243.754 247.736ZM273.662 251.461L274.648 251.787L274.874 251.862L275.889 252.208L276.121 252.289L277.137 252.647L277.402 252.744L278.39 253.107L278.678 253.219C279.003 253.34 279.325 253.458 279.651 253.586L279.97 253.713L280.918 254.082L281.241 254.212L282.193 254.596L282.507 254.73C282.827 254.858 283.146 254.992 283.47 255.128L283.806 255.27L284.75 255.676L285.122 255.844L286.041 256.244L286.416 256.415L287.333 256.831L287.722 257.013L288.633 257.436L289.044 257.632L289.934 258.059L290.396 258.282L291.239 258.697L291.721 258.938L292.535 259.339L293.021 259.589L293.845 260.011L294.357 260.283C294.628 260.418 294.894 260.557 295.156 260.701L295.688 260.984L296.479 261.412L297.05 261.723L297.801 262.135L298.386 262.464L299.126 262.876L299.727 263.22L300.451 263.636L301.079 264.003L301.777 264.414L302.431 264.803L303.108 265.207L303.795 265.625L304.437 266.016L305.137 266.445L305.773 266.842L306.487 267.296L307.107 267.685L307.85 268.164L308.445 268.548L309.216 269.056L309.775 269.421L310.592 269.97L311.109 270.315L311.942 270.884L312.402 271.197C311.315 274.538 310.044 277.818 308.595 281.022C297.762 273.758 286.741 268.753 276.694 266.279C275.9 261.114 274.543 256.047 272.647 251.167L273.384 251.398L273.662 251.461ZM368.784 334.959L369.183 335.825L369.31 336.109L369.703 336.982L369.827 337.262L370.197 338.161L370.307 338.418L370.677 339.316C370.704 339.392 370.737 339.466 370.77 339.541L371.107 340.411L371.211 340.674L371.515 341.516L371.624 341.8L371.925 342.639L372.023 342.915L372.321 343.75L372.409 344.012C372.509 344.301 372.603 344.589 372.693 344.876L372.771 345.11L373.042 345.975L373.109 346.201C373.196 346.478 373.276 346.756 373.357 347.033L373.432 347.283L373.656 348.095L373.73 348.361L373.942 349.174L374.008 349.428L374.208 350.241C374.222 350.323 374.243 350.405 374.264 350.486C374.328 350.75 374.382 351.011 374.443 351.277L374.5 351.534L374.665 352.335L374.712 352.577L374.863 353.366L374.907 353.612C374.955 353.873 375.014 354.149 375.039 354.396C375.051 354.476 375.062 354.555 375.08 354.633L375.185 355.382L375.227 355.65L375.323 356.396L375.352 356.652L375.428 357.348L375.46 357.646L375.518 358.337L375.543 358.63L375.587 359.343L375.604 359.606L375.632 360.276C375.632 360.374 375.639 360.472 375.642 360.567L375.661 361.202C375.662 361.312 375.666 361.419 375.664 361.527C375.668 361.732 375.663 361.936 375.664 362.138C375.659 362.249 375.66 362.359 375.661 362.47C375.656 362.679 375.651 362.888 375.639 363.098C375.637 363.199 375.637 363.297 375.631 363.396C375.623 363.614 375.609 363.827 375.595 364.04C375.589 364.132 375.589 364.224 375.579 364.314C375.567 364.517 375.549 364.721 375.531 364.919L375.507 365.221L375.459 365.755C369.389 361.887 362.881 358.734 356.07 356.361C357.516 349.64 356.394 341.518 353.036 332.848C358.349 332.982 363.633 333.689 368.793 334.956L368.784 334.959ZM355.686 356.2C349.241 353.971 342.577 352.417 335.806 351.565C336.348 346.637 335.037 340.722 332.125 334.389C338.885 333.182 345.753 332.649 352.625 332.797C355.998 341.462 357.127 349.544 355.701 356.236L355.686 356.2ZM311.208 362.481L311.162 362.487C309.197 361.976 307.261 361.36 305.363 360.642C306.506 360.193 307.556 359.542 308.464 358.723C314.973 359.063 321.405 360.292 327.576 362.374C323.364 364.095 317.732 364.143 311.237 362.501L311.208 362.481ZM290.5 353.082L290.074 352.811C289.077 352.169 288.159 351.55 287.261 350.942C289.053 349.9 290.872 348.897 292.718 347.932C293.968 350.686 294.521 353.249 294.272 355.38C293.067 354.696 291.8 353.936 290.505 353.11L290.5 353.082ZM276.316 342.438L276.438 342.301C275.425 341.467 274.435 340.607 273.469 339.721C275.311 337.196 277.117 334.67 278.885 332.142C280.28 333.034 281.603 334.031 282.844 335.122C284.096 336.2 285.264 337.368 286.34 338.616C284.022 340.67 281.71 342.758 279.403 344.879C278.414 344.019 277.424 343.159 276.434 342.299L276.316 342.438ZM263.821 329.893C262.827 328.729 261.907 327.589 261.06 326.495C263.154 325.968 265.801 326.186 268.727 327.062C267.99 328.99 267.211 330.898 266.391 332.784C265.657 331.991 264.909 331.162 264.16 330.269L263.821 329.893ZM251.731 310.778C249.263 304.63 248.598 299.114 249.795 294.773C252.668 300.551 254.715 306.693 255.879 313.022C255.172 314.015 254.652 315.126 254.342 316.301C253.38 314.533 252.517 312.715 251.758 310.854L251.752 310.802L251.731 310.778ZM309.17 305.623C312.041 308.15 314.775 310.825 317.361 313.636C311.846 317.61 306.025 322.091 300.082 326.939C296.727 323.3 292.974 320.038 288.892 317.213C293.011 310.779 296.78 304.515 300.081 298.616C303.236 300.801 306.271 303.149 309.175 305.65L309.17 305.623ZM293.045 347.755C298.206 345.073 303.532 342.711 308.993 340.684C310.742 344.598 311.563 348.306 311.355 351.493C305.694 352.178 300.112 353.379 294.679 355.082C294.849 352.981 294.265 350.477 293.05 347.783L293.045 347.755ZM282.957 334.995L283.079 334.859C281.828 333.759 280.493 332.755 279.087 331.856C282.453 327.041 285.67 322.234 288.7 317.52C292.745 320.328 296.468 323.563 299.801 327.169C295.448 330.734 291.024 334.491 286.605 338.391C285.525 337.127 284.347 335.947 283.082 334.862L282.957 334.995ZM261.3 326.069C262.322 320.535 262.824 314.918 262.801 309.29C265.969 308.675 269.797 309.026 273.961 310.234C272.613 315.836 270.912 321.349 268.867 326.74C265.997 325.907 263.407 325.651 261.305 326.097L261.3 326.069ZM274.3 310.327C279.327 311.936 284.079 314.29 288.391 317.308C285.357 322.021 282.144 326.83 278.778 331.651C275.841 329.597 272.616 327.975 269.207 326.839C271.252 321.455 272.955 315.95 274.305 310.355L274.3 310.327ZM300.039 327.433C303.618 331.273 306.585 335.628 308.837 340.346C303.374 342.372 298.047 344.735 292.886 347.421C291.312 344.226 289.274 341.273 286.837 338.656C291.27 334.785 295.691 331.026 300.051 327.466L300.039 327.433ZM309.314 340.553C315.625 338.221 322.109 336.369 328.709 335.013C329.726 334.805 330.735 334.613 331.736 334.437C334.646 340.733 335.958 346.615 335.431 351.493C327.554 350.529 319.589 350.509 311.712 351.434C311.911 348.256 311.086 344.528 309.329 340.589L309.314 340.553ZM328.636 334.655C322.009 336.019 315.498 337.881 309.162 340.225C306.902 335.468 303.921 331.077 300.32 327.204C306.263 322.356 312.084 317.875 317.599 313.901C323.765 320.645 328.516 327.589 331.562 334.113C330.604 334.299 329.633 334.492 328.651 334.691L328.636 334.655ZM288.582 316.996C284.234 313.961 279.444 311.597 274.377 309.985C275.935 303.485 276.984 296.876 277.515 290.216C277.592 289.225 277.655 288.241 277.705 287.266C284.64 289.44 292.217 293.211 299.786 298.383C296.485 304.333 292.732 310.612 288.594 317.029L288.582 316.996ZM277.144 290.193C276.615 296.825 275.573 303.407 274.025 309.881C269.844 308.658 265.989 308.318 262.78 308.92C262.712 301.09 261.685 293.295 259.722 285.704C264.566 284.562 270.644 285.103 277.332 287.166C277.299 288.194 277.238 289.207 277.155 290.226L277.144 290.193ZM259.63 285.353C257.918 278.831 255.514 272.504 252.459 266.476C258.996 264.226 267.272 264.319 276.395 266.515C277.412 273.223 277.743 280.014 277.384 286.785C270.641 284.771 264.517 284.242 259.642 285.386L259.63 285.353ZM259.364 285.796C261.329 293.38 262.352 301.169 262.411 308.992C260.132 309.413 258.055 310.553 256.491 312.239C256.381 312.362 256.271 312.486 256.161 312.609C254.954 306.232 252.856 300.049 249.928 294.236C251.185 290.281 253.922 287.562 258.074 286.158C258.51 286.058 258.937 285.939 259.375 285.829L259.364 285.796ZM254.583 316.753C254.842 315.604 255.303 314.509 255.946 313.519C256.343 315.796 256.612 318.093 256.754 320.399C255.991 319.205 255.276 318.005 254.608 316.797L254.583 316.753ZM257.183 321.06C257.046 318.393 256.74 315.736 256.268 313.106C256.425 312.891 256.588 312.681 256.768 312.48C258.262 310.869 260.24 309.773 262.413 309.351C262.438 314.986 261.929 320.61 260.895 326.15L260.806 326.17C259.539 324.538 258.315 322.817 257.191 321.09L257.183 321.06ZM266.662 333.071C267.517 331.123 268.322 329.156 269.076 327.169C272.455 328.302 275.65 329.914 278.561 331.953C276.807 334.466 275.011 336.977 273.173 339.487C270.919 337.464 268.728 335.311 266.67 333.102L266.662 333.071ZM286.567 338.9C288.985 341.492 291.008 344.417 292.573 347.582C290.672 348.575 288.796 349.611 286.946 350.691C284.468 348.958 282.024 347.082 279.68 345.12C281.971 343.035 284.269 340.971 286.575 338.93L286.567 338.9ZM294.607 355.55L294.616 355.46C300.054 353.748 305.642 352.54 311.31 351.852C311.163 354.033 310.31 356.109 308.878 357.773C308.698 357.975 308.521 358.173 308.315 358.345C305.611 358.212 302.902 358.248 300.204 358.454C298.341 357.608 296.457 356.627 294.615 355.58L294.607 355.55ZM307.931 358.704C307.016 359.458 305.974 360.048 304.852 360.447C303.557 359.951 302.243 359.396 300.913 358.782C303.252 358.639 305.597 358.623 307.939 358.734L307.931 358.704ZM308.811 358.373C308.921 358.25 309.032 358.126 309.142 358.003C310.639 356.258 311.522 354.081 311.657 351.797C319.53 350.868 327.489 350.887 335.361 351.853C335.302 352.292 335.238 352.726 335.147 353.149C334.277 357.406 331.873 360.415 328.056 362.145C321.851 360.031 315.38 358.775 308.829 358.412L308.811 358.373ZM331.939 334.026C328.872 327.46 324.095 320.465 317.886 313.671C323.538 309.609 328.858 306.082 333.65 303.227C342.279 312.856 348.689 322.944 352.44 332.394C345.572 332.277 338.71 332.837 331.958 334.065L331.939 334.026ZM317.648 313.406C315.045 310.576 312.292 307.883 309.401 305.338C306.478 302.829 303.423 300.475 300.249 298.284C303.619 292.243 306.491 286.589 308.759 281.528C317.82 287.674 326.102 294.873 333.425 302.968C328.619 305.845 323.309 309.386 317.666 313.445L317.648 313.406ZM299.943 298.075C292.337 292.86 284.702 289.068 277.709 286.888C278.074 280.112 277.752 273.316 276.746 266.601C286.719 269.079 297.668 274.08 308.436 281.311C306.189 286.43 303.331 292.067 299.961 298.114L299.943 298.075ZM243.406 272.301C245.764 269.702 248.752 267.735 252.09 266.582C255.149 272.605 257.557 278.928 259.272 285.446C258.829 285.562 258.389 285.687 257.963 285.83C253.884 287.211 251.039 289.959 249.699 293.777C249.039 292.477 248.335 291.192 247.586 289.922C245.256 285.964 242.578 282.216 239.582 278.72C240.448 276.374 241.751 274.21 243.424 272.34L243.406 272.301ZM247.279 290.088C248.088 291.46 248.839 292.851 249.55 294.26C248.268 298.446 248.739 303.747 250.912 309.662C247.864 305.722 244.129 302.35 239.881 299.705C237.684 291.986 237.451 284.902 239.468 279.111C242.391 282.558 245.008 286.247 247.289 290.137L247.279 290.088ZM263.56 330.134L263.864 330.489C264.708 331.466 265.511 332.359 266.322 333.203C268.454 335.5 270.735 337.737 273.095 339.857C273.54 340.244 273.992 340.637 274.444 341.03C275.025 341.535 275.609 342.042 276.213 342.527C276.817 343.012 277.357 343.562 277.938 344.067C278.393 344.462 278.841 344.852 279.287 345.239C281.717 347.282 284.252 349.232 286.831 351.03C287.793 351.704 288.792 352.377 289.869 353.093L290.265 353.345C292.444 354.842 293.685 357.691 293.984 361.735C278.737 352.989 265.375 341.374 254.658 327.552C258.772 327.379 261.8 328.246 263.56 330.174L263.56 330.134ZM312.44 363.142C318.665 364.516 324.047 364.314 328.094 362.53C329.599 363.048 331.092 363.608 332.573 364.226C336.757 365.972 340.782 368.07 344.604 370.495C339.043 373.195 331.89 373.865 323.852 372.692C320.653 368.882 316.791 365.665 312.449 363.191L312.44 363.142ZM332.713 363.891C331.342 363.319 329.961 362.792 328.571 362.31C332.25 360.524 334.653 357.392 335.516 353.216C335.609 352.784 335.676 352.334 335.736 351.885C342.505 352.742 349.165 354.3 355.605 356.534C354.868 359.948 353.268 363.121 350.953 365.758C349.271 367.63 347.248 369.174 344.987 370.309C341.095 367.836 336.991 365.705 332.722 363.94L332.713 363.891ZM239.182 278.787C237.115 284.582 237.287 291.682 239.43 299.417C235.242 296.862 230.74 294.847 226.035 293.421C221.493 282.101 220.34 271.951 222.722 264.064C228.831 268.27 234.367 273.235 239.192 278.836L239.182 278.787ZM225.759 293.73C230.257 304.838 237.865 316.792 247.779 328.328C246.222 328.878 237.772 332.02 232.725 337.163C221.134 323.114 212.414 308.658 207.058 295.033C212.618 292.898 224.497 293.688 225.756 293.767L225.759 293.73ZM331.632 385.754C331.883 386.988 334.181 398.52 332.701 404.248C318.319 400.717 302.684 394.002 287.112 384.441C291.635 378.861 293.73 370.218 294.09 368.587C306.931 376.864 319.911 382.805 331.651 385.811L331.632 385.754ZM331.921 385.429C329.894 381.003 327.3 376.85 324.203 373.073C332.248 374.193 339.406 373.465 344.97 370.709C351.195 374.73 356.871 379.524 361.858 384.973C354.226 388.365 343.879 388.519 331.918 385.512L331.921 385.429ZM395.02 380.647C386.679 373.674 376.767 366.599 375.766 365.89C376.796 357.042 374.437 346.374 369.202 334.983C371.854 335.707 386.709 339.817 391.043 341.853C396.402 356.34 397.914 369.769 395.024 380.72L395.02 380.647ZM390.87 341.357C385.885 339.158 370.454 334.946 369.003 334.55C367.151 330.595 365.079 326.745 362.794 323.016C361.835 321.413 360.815 319.815 359.733 318.221C358.401 316.213 356.991 314.203 355.503 312.19C354.906 311.384 354.3 310.578 353.683 309.772C352.445 308.162 351.163 306.551 349.836 304.94C347.896 302.593 345.863 300.248 343.735 297.907C345.326 297.265 354.943 293.69 363.738 296.569C376.216 311.586 385.451 326.996 390.875 341.43L390.87 341.357ZM363.306 296.055C354.301 293.379 344.646 297.141 343.476 297.612C338.896 292.627 334.057 287.878 328.98 283.386C323.823 278.983 318.439 274.846 312.849 270.991C313.183 269.777 315.746 259.868 311.909 251.381C331.255 263.598 348.593 278.667 363.316 296.064L363.306 296.055ZM311.331 251.011C315.336 259.257 312.957 269.124 312.513 270.763C298.815 261.366 285.061 254.539 272.485 250.633C271.903 249.263 265.724 234.691 262.88 230.085C278.084 233.673 294.733 240.761 311.327 251.095L311.331 251.011ZM262.385 229.977C264.979 233.963 270.975 248 272.049 250.491C259.925 246.794 248.92 245.847 240.157 247.973C239.318 247.082 230.965 238.252 222.892 230.987C233.513 226.871 247.202 226.656 262.378 230.064L262.385 229.977ZM222.501 231.149C230.265 238.151 238.355 246.625 239.739 248.088C238.937 248.29 238.166 248.537 237.375 248.767C236.9 248.931 236.435 249.104 235.984 249.289C235.857 249.339 235.733 249.399 235.605 249.45C235.287 249.583 234.969 249.71 234.661 249.852C234.495 249.927 234.335 250.013 234.173 250.091C233.913 250.217 233.651 250.341 233.398 250.473C233.22 250.567 233.053 250.669 232.879 250.766C232.705 250.863 232.413 251.019 232.192 251.155C231.97 251.292 231.845 251.373 231.675 251.485C231.505 251.597 231.248 251.754 231.042 251.892C230.836 252.031 230.703 252.14 230.531 252.261C230.358 252.382 230.142 252.54 229.952 252.687C229.763 252.833 229.613 252.968 229.459 253.088C229.305 253.208 229.095 253.384 228.925 253.536C228.754 253.688 228.602 253.832 228.453 253.973C228.303 254.115 228.126 254.266 227.954 254.44C227.782 254.613 227.664 254.765 227.506 254.91C227.347 255.054 227.216 255.234 227.056 255.413C226.897 255.592 226.766 255.738 226.624 255.897C226.482 256.056 226.334 256.222 226.194 256.412C226.054 256.601 225.934 256.762 225.806 256.939C225.677 257.116 225.542 257.287 225.411 257.473C225.28 257.659 225.171 257.841 225.052 258.026C224.934 258.211 224.812 258.394 224.688 258.592C224.564 258.79 224.467 258.977 224.361 259.168C224.256 259.359 224.141 259.553 224.033 259.759C223.925 259.965 223.832 260.161 223.736 260.361C223.64 260.56 223.535 260.763 223.44 260.974C223.345 261.186 223.262 261.397 223.177 261.605C223.091 261.813 222.996 262.024 222.913 262.241C222.831 262.458 222.755 262.681 222.682 262.894C222.609 263.107 222.547 263.255 222.491 263.443C220.792 262.387 208.876 255.07 202.602 252.91C203.987 248.014 206.502 243.502 209.951 239.729C213.399 235.956 217.688 233.023 222.48 231.16L222.501 231.149ZM202.518 253.247C208.899 255.43 221.098 262.982 222.398 263.789C219.959 271.729 221.07 281.924 225.614 293.309C223.682 293.176 212.366 292.505 206.914 294.637C200.887 279.269 199.187 264.876 202.511 253.333L202.518 253.247ZM232.977 337.405C238.156 332.101 247.026 328.937 248.052 328.588C252.894 334.185 258.074 339.49 263.561 344.475C264.66 345.482 265.78 346.478 266.908 347.459C267.828 348.258 268.753 349.045 269.686 349.821C270.579 350.632 271.486 351.438 272.408 352.239C273.536 353.219 274.668 354.203 275.83 355.139C281.533 359.882 287.52 364.282 293.758 368.316C293.514 369.442 291.451 378.476 286.799 384.187C266.436 371.54 248.262 355.744 232.977 337.405ZM333.055 404.383C334.509 398.776 332.405 387.782 332.028 385.907C344.045 388.917 354.433 388.718 362.105 385.326C363.097 386.512 372.226 397.498 375.214 403.458C364.05 408.175 349.368 408.329 333.055 404.383Z" fill="black"/>
</g>
</g>
<defs>
<filter id="filter0_d_6680_2755" x="185.533" y="290.593" width="144.341" height="142.75" filterUnits="userSpaceOnUse" color-interpolation-filters="sRGB">
<feFlood flood-opacity="0" result="BackgroundImageFix"/>
<feColorMatrix in="SourceAlpha" type="matrix" values="0 0 0 0 0 0 0 0 0 0 0 0 0 0 0 0 0 0 127 0" result="hardAlpha"/>
<feOffset dy="2"/>
<feGaussianBlur stdDeviation="22.5"/>
<feComposite in2="hardAlpha" operator="out"/>
<feColorMatrix type="matrix" values="0 0 0 0 0.0117647 0 0 0 0 1 0 0 0 0 0.619608 0 0 0 1 0"/>
<feBlend mode="normal" in2="BackgroundImageFix" result="effect1_dropShadow_6680_2755"/>
<feBlend mode="normal" in="SourceGraphic" in2="effect1_dropShadow_6680_2755" result="shape"/>
</filter>
<filter id="filter1_d_6680_2755" x="256.799" y="218.5" width="145.231" height="143.629" filterUnits="userSpaceOnUse" color-interpolation-filters="sRGB">
<feFlood flood-opacity="0" result="BackgroundImageFix"/>
<feColorMatrix in="SourceAlpha" type="matrix" values="0 0 0 0 0 0 0 0 0 0 0 0 0 0 0 0 0 0 127 0" result="hardAlpha"/>
<feOffset dy="2"/>
<feGaussianBlur stdDeviation="22.5"/>
<feComposite in2="hardAlpha" operator="out"/>
<feColorMatrix type="matrix" values="0 0 0 0 0.0196078 0 0 0 0 1 0 0 0 0 0.611765 0 0 0 1 0"/>
<feBlend mode="normal" in2="BackgroundImageFix" result="effect1_dropShadow_6680_2755"/>
<feBlend mode="normal" in="SourceGraphic" in2="effect1_dropShadow_6680_2755" result="shape"/>
</filter>
<filter id="filter2_d_6680_2755" x="161.48" y="159.597" width="261.04" height="336.167" filterUnits="userSpaceOnUse" color-interpolation-filters="sRGB">
<feFlood flood-opacity="0" result="BackgroundImageFix"/>
<feColorMatrix in="SourceAlpha" type="matrix" values="0 0 0 0 0 0 0 0 0 0 0 0 0 0 0 0 0 0 127 0" result="hardAlpha"/>
<feOffset dy="2"/>
<feGaussianBlur stdDeviation="22.5"/>
<feComposite in2="hardAlpha" operator="out"/>
<feColorMatrix type="matrix" values="0 0 0 0 0 0 0 0 0 1 0 0 0 0 0.623529 0 0 0 1 0"/>
<feBlend mode="normal" in2="BackgroundImageFix" result="effect1_dropShadow_6680_2755"/>
<feBlend mode="normal" in="SourceGraphic" in2="effect1_dropShadow_6680_2755" result="shape"/>
</filter>
<filter id="filter3_d_6680_2755" x="195.423" y="222.291" width="206.465" height="190.311" filterUnits="userSpaceOnUse" color-interpolation-filters="sRGB">
<feFlood flood-opacity="0" result="BackgroundImageFix"/>
<feColorMatrix in="SourceAlpha" type="matrix" values="0 0 0 0 0 0 0 0 0 0 0 0 0 0 0 0 0 0 127 0" result="hardAlpha"/>
<feOffset/>
<feGaussianBlur stdDeviation="2.5"/>
<feComposite in2="hardAlpha" operator="out"/>
<feColorMatrix type="matrix" values="0 0 0 0 0 0 0 0 0 1 0 0 0 0 0.623529 0 0 0 1 0"/>
<feBlend mode="normal" in2="BackgroundImageFix" result="effect1_dropShadow_6680_2755"/>
<feBlend mode="normal" in="SourceGraphic" in2="effect1_dropShadow_6680_2755" result="shape"/>
</filter>
<linearGradient id="paint0_linear_6680_2755" x1="292" y1="72.5384" x2="291.513" y2="103.626" gradientUnits="userSpaceOnUse">
<stop stop-color="#00FF9F"/>
<stop offset="0.152977" stop-color="#171717"/>
</linearGradient>
<clipPath id="clip0_6680_2755">
<rect x="173" y="248.7" width="36" height="98.6904" transform="rotate(-180 173 248.7)" fill="white"/>
</clipPath>
</defs>
</svg>
