<svg width="583" height="544" viewBox="0 0 583 544" fill="none" xmlns="http://www.w3.org/2000/svg">
<path d="M403.285 310.23C415.003 294.109 443.455 314.052 443.455 314.052C443.455 314.052 415.722 293.12 427.429 277.014C415.711 293.135 385.07 271.611 385.07 271.611C385.07 271.611 414.987 294.131 403.285 310.23Z" fill="#9AF950"/>
<path d="M187 57.112V261.248L182.305 266H19.0141L1 247.888V43.747L5.72135 39H169.012L187 57.112Z" fill="#9AF950" fill-opacity="0.04" stroke="#9AF950" stroke-miterlimit="10"/>
<mask id="mask0_7114_1558" style="mask-type:alpha" maskUnits="userSpaceOnUse" x="0" y="38" width="188" height="229">
<path d="M187 57.3056V261.026L182.305 265.769H19.0141L1 247.694V43.9678L5.72135 39.2305H169.012L187 57.3056Z" fill="#BDFF31" stroke="#BDFF31" stroke-miterlimit="10"/>
</mask>
<g mask="url(#mask0_7114_1558)">
<rect width="31" height="226.538" transform="matrix(-1 0 0 1 32 39.2305)" fill="#9AF950"/>
</g>
<path d="M19.1333 116.601L16.5334 119.217L5.00011 107.616L7.60205 105L19.1333 116.601Z" fill="black"/>
<path d="M25.4625 105L28.0645 107.616L16.5332 119.217L13.9313 116.601L25.4625 105Z" fill="black"/>
<path d="M19.1333 138.063L16.5334 140.68L5.00011 129.081L7.60205 126.462L19.1333 138.063Z" fill="black"/>
<path d="M25.4625 126.462L28.0645 129.081L16.5332 140.68L13.9313 138.063L25.4625 126.462Z" fill="black"/>
<path d="M19.1333 159.527L16.5334 162.146L5.00011 150.544L7.60205 147.928L19.1333 159.527Z" fill="black"/>
<path d="M25.4625 147.928L28.0645 150.544L16.5332 162.146L13.9313 159.527L25.4625 147.928Z" fill="black"/>
<path d="M19.1333 180.992L16.5334 183.608L5.00011 172.007L7.60205 169.391L19.1333 180.992Z" fill="black"/>
<path d="M25.4625 169.391L28.0645 172.007L16.5332 183.608L13.9313 180.992L25.4625 169.391Z" fill="black"/>
<path d="M19.1333 202.455L16.5334 205.071L5.00011 193.472L7.60205 190.854L19.1333 202.455Z" fill="black"/>
<path d="M25.4625 190.854L28.0645 193.472L16.5332 205.071L13.9313 202.455L25.4625 190.854Z" fill="black"/>
<path d="M19.1333 223.919L16.5334 226.537L5.00011 214.936L7.60205 212.318L19.1333 223.919Z" fill="black"/>
<path d="M25.4625 212.318L28.0645 214.936L16.5332 226.537L13.9313 223.919L25.4625 212.318Z" fill="black"/>
<path d="M19.1333 245.384L16.5334 248L5.00011 236.399L7.60205 233.783L19.1333 245.384Z" fill="black"/>
<path d="M19.1333 95.6006L16.5334 98.2168L5.00011 86.6158L7.60205 83.9996L19.1333 95.6006Z" fill="black"/>
<path d="M19.1333 74.6006L16.5334 77.2168L5.00011 65.6158L7.60205 62.9996L19.1333 74.6006Z" fill="black"/>
<path d="M19.1333 53.6006L16.5334 56.2168L5.00011 44.6158L7.60205 41.9996L19.1333 53.6006Z" fill="black"/>
<path d="M25.4625 233.783L28.0645 236.399L16.5332 248L13.9313 245.384L25.4625 233.783Z" fill="black"/>
<path d="M25.4625 83.9996L28.0645 86.6158L16.5332 98.2168L13.9313 95.6006L25.4625 83.9996Z" fill="black"/>
<path d="M25.4625 62.9996L28.0645 65.6158L16.5332 77.2168L13.9313 74.6006L25.4625 62.9996Z" fill="black"/>
<path d="M25.4625 41.9996L28.0645 44.6158L16.5332 56.2168L13.9313 53.6006L25.4625 41.9996Z" fill="black"/>
<path fill-rule="evenodd" clip-rule="evenodd" d="M28.0645 23.6158L25.4625 20.9996L16.5323 29.9838L7.60205 20.9996L5.00011 23.6158L13.9319 32.6L13.9313 32.6006L16.5332 35.2168L16.5333 35.2167L16.5334 35.2168L17.3469 34.3982L28.0645 23.6158Z" fill="#9AF950"/>
<path d="M19.1333 11.6006L16.5334 14.2168L5.00011 2.61579L7.60205 -0.000409181L19.1333 11.6006Z" fill="#9AF950"/>
<path d="M25.4625 -0.0004084L28.0645 2.61579L16.5332 14.2168L13.9313 11.6006L25.4625 -0.0004084Z" fill="#9AF950"/>
<path d="M458 151.155V513.563L449.619 522H158.154L126 489.845V127.427L134.427 119H425.892L458 151.155Z" fill="#9AF950" fill-opacity="0.08" stroke="#9AF950" stroke-miterlimit="10"/>
<path d="M449.825 75H158.175C145.605 87.5778 138.561 94.5945 126 107.219V127.093L134.433 118.649H150.543L174.826 143.021H303.879L328.171 118.686H426.074L458.258 150.905V514L482 490.235V107.219L449.825 75Z" fill="#9AF950"/>
<g clip-path="url(#clip0_7114_1558)">
<path d="M138.925 248.463L171.701 248.463C172.542 248.463 173.224 249.145 173.224 249.987C173.224 250.828 172.542 251.51 171.701 251.51L138.925 251.51C138.084 251.51 137.402 250.828 137.402 249.987C137.402 249.145 138.084 248.463 138.925 248.463Z" stroke="#9AF950" stroke-width="0.5"/>
<path d="M138.915 236.399L171.691 236.399C172.532 236.399 173.214 237.081 173.214 237.922C173.214 238.763 172.532 239.445 171.691 239.445L138.915 239.445C138.074 239.445 137.392 238.763 137.392 237.922C137.392 237.081 138.074 236.399 138.915 236.399Z" stroke="#9AF950" stroke-width="0.5"/>
<path d="M138.925 224.325L171.701 224.325C172.542 224.325 173.224 225.007 173.224 225.848C173.224 226.689 172.542 227.371 171.701 227.371L138.925 227.371C138.084 227.371 137.402 226.689 137.402 225.848C137.402 225.007 138.084 224.325 138.925 224.325Z" stroke="#9AF950" stroke-width="0.5"/>
<path d="M138.925 212.251L171.701 212.251C172.542 212.251 173.224 212.933 173.224 213.774C173.224 214.615 172.542 215.297 171.701 215.297L138.925 215.297C138.084 215.297 137.402 214.615 137.402 213.774C137.402 212.933 138.084 212.251 138.925 212.251Z" stroke="#9AF950" stroke-width="0.5"/>
<path d="M171.691 199.935L138.915 199.935C137.936 199.935 137.142 200.729 137.142 201.708C137.142 202.688 137.936 203.481 138.915 203.481L171.691 203.481C172.67 203.481 173.464 202.688 173.464 201.708C173.464 200.729 172.67 199.935 171.691 199.935Z" fill="#9AF950"/>
<path d="M171.701 187.861L138.925 187.861C137.945 187.861 137.152 188.655 137.152 189.634C137.152 190.613 137.945 191.407 138.925 191.407L171.701 191.407C172.68 191.407 173.474 190.613 173.474 189.634C173.474 188.655 172.68 187.861 171.701 187.861Z" fill="#9AF950"/>
<path d="M171.701 175.787L138.925 175.787C137.946 175.787 137.152 176.581 137.152 177.56C137.152 178.539 137.946 179.333 138.925 179.333L171.701 179.333C172.68 179.333 173.474 178.539 173.474 177.56C173.474 176.581 172.68 175.787 171.701 175.787Z" fill="#9AF950"/>
<path d="M171.691 163.722L138.915 163.722C137.936 163.722 137.142 164.516 137.142 165.495C137.142 166.475 137.936 167.269 138.915 167.269L171.691 167.269C172.67 167.269 173.464 166.475 173.464 165.495C173.464 164.516 172.67 163.722 171.691 163.722Z" fill="#9AF950"/>
<path d="M171.701 151.648L138.925 151.648C137.946 151.648 137.152 152.442 137.152 153.421C137.152 154.4 137.946 155.194 138.925 155.194L171.701 155.194C172.68 155.194 173.474 154.4 173.474 153.421C173.474 152.442 172.68 151.648 171.701 151.648Z" fill="#9AF950"/>
</g>
<path d="M539.427 194.573C544.788 203.859 543.315 216.635 535.813 231.917C528.32 247.18 514.871 264.816 496.525 283.707C459.838 321.484 403.652 364.196 336.658 402.875C269.665 441.553 204.582 468.857 153.522 481.74C127.989 488.182 105.991 491.011 89.0275 489.869C72.0418 488.725 60.2407 483.613 54.8794 474.327C49.9302 465.755 50.8039 454.209 56.8754 440.453C62.9414 426.709 74.1528 410.865 89.6833 393.8C120.738 359.676 168.982 320.757 227.58 284.098L306.443 239.651C363.758 210.775 417.307 191.234 458.915 183.077C479.723 178.998 497.515 177.771 511.287 179.631C525.068 181.492 534.724 186.428 539.427 194.573Z" stroke="#9AF950"/>
<path d="M72.7616 180.156C77.9673 171.139 89.4277 166.173 105.931 165.062C122.412 163.952 143.785 166.7 168.593 172.96C218.204 185.478 281.442 212.007 346.536 249.589C411.631 287.171 466.224 328.672 501.87 365.377C519.696 383.733 532.762 400.868 540.042 415.696C547.331 430.543 548.76 442.952 543.554 451.968C538.749 460.292 528.614 465.165 514.091 466.739C499.581 468.311 480.803 466.575 458.898 461.797C415.098 452.244 358.911 430.556 299.595 399.057L223.88 354.289C171.737 320.089 129.279 284.522 102.201 253.475C88.66 237.947 78.9852 223.573 73.8604 211.083C68.7319 198.583 68.195 188.065 72.7616 180.156Z" stroke="#9AF950"/>
<path d="M198.589 74H190.407L178.439 47.4204V74H170.256V33.4766H178.439L190.435 60.084V33.4766H198.589V74ZM219.211 74.5566C215.166 74.5566 212.011 73.3506 209.748 70.9385C207.484 68.5264 206.352 65.0752 206.352 60.585V58.1914C206.352 53.4414 207.391 49.7769 209.469 47.1978C211.548 44.6187 214.526 43.3291 218.404 43.3291C222.189 43.3291 225.037 44.5444 226.948 46.9751C228.859 49.3872 229.833 52.9683 229.87 57.7183V61.5869H214.201C214.312 63.8135 214.804 65.4463 215.676 66.4854C216.548 67.5059 217.893 68.0161 219.712 68.0161C222.346 68.0161 224.545 67.1162 226.308 65.3164L229.397 70.0757C228.432 71.4116 227.031 72.4971 225.195 73.332C223.358 74.1484 221.363 74.5566 219.211 74.5566ZM214.257 56.0762H222.133V55.3525C222.096 53.5527 221.799 52.189 221.242 51.2612C220.686 50.3335 219.721 49.8696 218.348 49.8696C216.975 49.8696 215.973 50.3613 215.342 51.3447C214.73 52.3281 214.368 53.9053 214.257 56.0762ZM235.685 57.9688C235.685 53.4043 236.761 49.8232 238.914 47.2256C241.066 44.6279 244.044 43.3291 247.848 43.3291C251.688 43.3291 254.685 44.6279 256.837 47.2256C258.99 49.8232 260.066 53.4229 260.066 58.0244V59.9448C260.066 64.5278 258.999 68.1089 256.865 70.688C254.731 73.2671 251.744 74.5566 247.903 74.5566C244.044 74.5566 241.038 73.2671 238.886 70.688C236.752 68.0903 235.685 64.4907 235.685 59.8892V57.9688ZM243.589 59.9448C243.589 65.3257 245.027 68.0161 247.903 68.0161C250.557 68.0161 251.985 65.771 252.189 61.2808L252.217 57.9688C252.217 55.2227 251.837 53.1909 251.076 51.8735C250.315 50.5376 249.239 49.8696 247.848 49.8696C246.512 49.8696 245.463 50.5376 244.703 51.8735C243.96 53.1909 243.589 55.2227 243.589 57.9688V59.9448ZM274.481 43.8857L274.703 46.8638C276.485 44.5073 278.813 43.3291 281.689 43.3291C286.866 43.3291 289.528 46.9565 289.677 54.2114V74H281.773V54.7959C281.773 53.0889 281.513 51.855 280.993 51.0942C280.492 50.3149 279.602 49.9253 278.321 49.9253C276.893 49.9253 275.779 50.6582 274.982 52.124V74H267.077V43.8857H274.481ZM198.589 108H190.407L178.439 81.4204V108H170.256V67.4766H178.439L190.435 94.084V67.4766H198.589V108ZM219.211 108.557C215.166 108.557 212.011 107.351 209.748 104.938C207.484 102.526 206.352 99.0752 206.352 94.585V92.1914C206.352 87.4414 207.391 83.7769 209.469 81.1978C211.548 78.6187 214.526 77.3291 218.404 77.3291C222.189 77.3291 225.037 78.5444 226.948 80.9751C228.859 83.3872 229.833 86.9683 229.87 91.7183V95.5869H214.201C214.312 97.8135 214.804 99.4463 215.676 100.485C216.548 101.506 217.893 102.016 219.712 102.016C222.346 102.016 224.545 101.116 226.308 99.3164L229.397 104.076C228.432 105.412 227.031 106.497 225.195 107.332C223.358 108.148 221.363 108.557 219.211 108.557ZM214.257 90.0762H222.133V89.3525C222.096 87.5527 221.799 86.189 221.242 85.2612C220.686 84.3335 219.721 83.8696 218.348 83.8696C216.975 83.8696 215.973 84.3613 215.342 85.3447C214.73 86.3281 214.368 87.9053 214.257 90.0762ZM246.679 86.8198L250.185 77.8857H258.535L251.661 92.6089L258.786 108H250.408L246.706 98.5649L243.033 108H234.627L241.752 92.6089L234.934 77.8857H243.311L246.679 86.8198ZM279.518 105.245C277.885 107.453 275.696 108.557 272.95 108.557C270.185 108.557 268.089 107.61 266.66 105.718C265.231 103.807 264.517 101.033 264.517 97.396V77.8857H272.393V97.5908C272.43 100.522 273.404 101.988 275.316 101.988C277.115 101.988 278.414 101.209 279.212 99.6504V77.8857H287.144V108H279.741L279.518 105.245ZM308.378 99.9287C308.378 99.2607 308.053 98.6484 307.404 98.0918C306.773 97.5166 305.353 96.7466 303.145 95.7817C299.898 94.4644 297.662 93.1006 296.438 91.6904C295.232 90.2803 294.629 88.5269 294.629 86.4302C294.629 83.7954 295.575 81.6245 297.468 79.9175C299.379 78.1919 301.902 77.3291 305.038 77.3291C308.341 77.3291 310.985 78.1826 312.97 79.8896C314.955 81.5967 315.948 83.8882 315.948 86.7642H308.072C308.072 84.3149 307.051 83.0903 305.01 83.0903C304.175 83.0903 303.489 83.3501 302.951 83.8696C302.412 84.3892 302.143 85.1128 302.143 86.0405C302.143 86.7085 302.44 87.3022 303.034 87.8218C303.628 88.3228 305.029 89.0464 307.237 89.9927C310.447 91.1802 312.71 92.5068 314.028 93.9727C315.364 95.4199 316.032 97.3032 316.032 99.6226C316.032 102.313 315.02 104.475 312.998 106.107C310.975 107.74 308.322 108.557 305.038 108.557C302.83 108.557 300.882 108.13 299.193 107.276C297.505 106.404 296.178 105.198 295.213 103.658C294.267 102.118 293.794 100.458 293.794 98.6763H301.281C301.318 100.049 301.633 101.079 302.227 101.766C302.839 102.452 303.832 102.795 305.205 102.795C307.32 102.795 308.378 101.84 308.378 99.9287Z" fill="url(#paint0_linear_7114_1558)"/>
<path d="M52.8652 199.187C55.6322 199.187 57.735 199.674 59.1738 200.648C60.6126 201.611 61.332 203.05 61.332 204.964C61.332 207.078 60.4189 208.644 58.5928 209.663L61 209.746L61 211.456L35.5 211.456L35.5 209.629L45.5439 209.629C43.6514 208.622 42.7051 207.078 42.7051 204.998C42.7051 203.061 43.3913 201.616 44.7637 200.665C46.125 199.713 48.1615 199.22 50.873 199.187L52.8652 199.187ZM51.1885 201.03C48.9085 201.03 47.2207 201.367 46.125 202.043C45.0293 202.718 44.4814 203.824 44.4814 205.363C44.4814 207.41 45.5605 208.833 47.7187 209.629L56.6172 209.629C57.5579 209.253 58.2884 208.7 58.8086 207.969C59.3177 207.239 59.5723 206.359 59.5723 205.33C59.5723 203.858 59.041 202.779 57.9785 202.092C56.9049 201.395 55.2393 201.041 52.9814 201.03L51.1885 201.03ZM61.332 182.534C61.332 184.648 60.6403 186.302 59.2568 187.498C57.8734 188.693 55.9033 189.302 53.3467 189.324L51.1553 189.324C48.5212 189.324 46.457 188.748 44.9629 187.597C43.4577 186.446 42.7051 184.864 42.7051 182.849C42.7051 180.901 43.3415 179.418 44.6143 178.4C45.887 177.371 47.835 176.845 50.458 176.823L52.1846 176.823L52.1846 187.498L53.1973 187.498C55.2559 187.498 56.8441 187.06 57.9619 186.186C59.0798 185.301 59.6387 184.056 59.6387 182.451C59.6387 180.68 58.9912 179.247 57.6963 178.151L58.9248 177.188C60.5296 178.361 61.332 180.143 61.332 182.534ZM44.4316 182.849C44.4316 184.299 44.9463 185.417 45.9756 186.203C46.9938 186.977 48.488 187.404 50.458 187.481L50.458 178.666L49.9766 178.666C46.2799 178.754 44.4316 180.149 44.4316 182.849ZM57.9619 161.879L43.0371 157.596L43.0371 155.621L63.8721 161.946L64.8682 162.294C67.126 163.147 68.2549 164.453 68.2549 166.212C68.2549 166.633 68.1774 167.076 68.0225 167.541L66.3291 167.557C66.4066 167.303 66.4453 167.02 66.4453 166.71C66.4453 165.914 66.2074 165.261 65.7314 164.751C65.2555 164.242 64.4863 163.822 63.4238 163.49L60.8838 162.726L43.0371 168.371L43.0371 166.345L57.9619 161.879ZM51.1055 146.919C48.5156 146.919 46.4681 146.333 44.9629 145.16C43.4577 143.986 42.7051 142.387 42.7051 140.362C42.7051 138.325 43.4466 136.726 44.9297 135.564C46.4128 134.391 48.4547 133.799 51.0557 133.788L52.9648 133.788C55.599 133.788 57.652 134.38 59.124 135.564C60.596 136.737 61.332 138.325 61.332 140.329C61.332 142.332 60.6126 143.92 59.1738 145.093C57.735 146.266 55.7539 146.875 53.2305 146.919L51.1055 146.919ZM52.9648 145.06C55.0345 145.06 56.6615 144.645 57.8457 143.815C59.0299 142.974 59.6221 141.812 59.6221 140.329C59.6221 138.812 59.0521 137.656 57.9121 136.859C56.7721 136.051 55.1396 135.641 53.0146 135.63L51.1055 135.63C49.0358 135.63 47.4089 136.051 46.2246 136.892C45.0293 137.733 44.4316 138.89 44.4316 140.362C44.4316 141.79 45.0127 142.924 46.1748 143.765C47.3369 144.606 48.9362 145.038 50.9727 145.06L52.9648 145.06ZM43.0371 121.301L45.8926 121.251C44.9186 120.72 44.1439 120.045 43.5684 119.226C42.9928 118.396 42.7051 117.455 42.7051 116.404C42.7051 113.272 44.7913 111.667 48.9639 111.589L61 111.589L61 113.415L49.1631 113.415C47.5583 113.427 46.374 113.709 45.6103 114.262C44.8467 114.816 44.4648 115.684 44.4648 116.869C44.4648 117.831 44.8301 118.7 45.5605 119.475C46.2799 120.239 47.2705 120.82 48.5322 121.218L61 121.218L61 123.061L43.0371 123.061L43.0371 121.301ZM51.1885 100.896C48.3773 100.896 46.2633 100.403 44.8467 99.4184C43.4189 98.4333 42.7051 96.9724 42.7051 95.0355C42.7051 92.9991 43.6182 91.4773 45.4443 90.4701L35.5 90.4701L35.5 88.6273L61 88.6273L61 90.3539L58.6924 90.4369C60.4521 91.4441 61.332 92.9825 61.332 95.0521C61.332 96.9447 60.6126 98.3891 59.1738 99.3852C57.735 100.37 55.693 100.874 53.0478 100.896L51.1885 100.896ZM52.8652 99.0199C55.1673 99.0199 56.8607 98.6768 57.9453 97.9906C59.0299 97.2934 59.5723 96.1921 59.5723 94.6869C59.5723 92.7501 58.6481 91.3445 56.7998 90.4701L47.4863 90.4701C45.4831 91.3002 44.4814 92.7003 44.4814 94.6703C44.4814 96.1755 45.0182 97.2768 46.0918 97.974C47.1654 98.6602 48.8255 99.0089 51.0723 99.0199L52.8652 99.0199ZM65.4551 172.132L70.0371 172.132L70.0371 169.061L71.6973 169.061L71.6973 172.132L83.6338 172.132C84.6188 172.132 85.3548 171.988 85.8418 171.7C86.3177 171.401 86.5557 170.909 86.5557 170.223C86.5557 169.924 86.5003 169.481 86.3896 168.895L88.0498 168.845C88.238 169.265 88.332 169.869 88.332 170.654C88.332 172.813 86.849 173.919 83.8828 173.975L71.6973 173.975L71.6973 176.747L70.0371 176.747L70.0371 173.975L65.4551 173.975L65.4551 172.132ZM72.8594 156.74C71.8965 156.209 71.1328 155.539 70.5684 154.731C69.9928 153.912 69.7051 152.977 69.7051 151.926C69.7051 148.794 71.7913 147.189 75.9639 147.111L88 147.111L88 148.937L76.1631 148.937C74.5583 148.949 73.374 149.231 72.6103 149.784C71.8467 150.338 71.4648 151.206 71.4648 152.391C71.4648 153.354 71.8301 154.222 72.5605 154.997C73.2799 155.761 74.2705 156.342 75.5322 156.74L88 156.74L88 158.583L62.5 158.583L62.5 156.74L72.8594 156.74ZM88.332 129.827C88.332 131.941 87.6403 133.596 86.2568 134.791C84.8734 135.986 82.9033 136.595 80.3467 136.617L78.1553 136.617C75.5212 136.617 73.457 136.042 71.9629 134.891C70.4577 133.74 69.7051 132.157 69.7051 130.143C69.7051 128.195 70.3415 126.712 71.6143 125.693C72.887 124.664 74.835 124.138 77.458 124.116L79.1846 124.116L79.1846 134.791L80.1973 134.791C82.2559 134.791 83.8441 134.354 84.9619 133.479C86.0797 132.594 86.6387 131.349 86.6387 129.744C86.6387 127.973 85.9912 126.54 84.6963 125.444L85.9248 124.481C87.5296 125.655 88.332 127.436 88.332 129.827ZM71.4316 130.143C71.4316 131.592 71.9463 132.71 72.9756 133.496C73.9938 134.271 75.488 134.697 77.458 134.774L77.458 125.959L76.9766 125.959C73.2799 126.047 71.4316 127.442 71.4316 130.143ZM115 217.242L115 219.102L97.0371 219.102L97.0371 217.242L115 217.242ZM91.8574 219.367C91.4811 219.367 91.1602 219.262 90.8945 219.052C90.6289 218.842 90.4961 218.543 90.4961 218.155C90.4961 217.768 90.6289 217.469 90.8945 217.259C91.1602 217.038 91.4811 216.927 91.8574 216.927C92.2337 216.927 92.5547 217.038 92.8203 217.259C93.0749 217.469 93.2021 217.768 93.2021 218.155C93.2021 218.543 93.0749 218.842 92.8203 219.052C92.5547 219.262 92.2337 219.367 91.8574 219.367ZM97.0371 203.976L99.7266 203.926C97.7122 202.808 96.7051 201.203 96.7051 199.111C96.7051 196.798 97.8063 195.304 100.009 194.629C98.9131 194.065 98.0885 193.34 97.5352 192.454C96.9818 191.558 96.7051 190.584 96.7051 189.532C96.7051 186.301 98.7858 184.646 102.947 184.568L115 184.568L115 186.411L103.063 186.411C101.514 186.433 100.363 186.721 99.6104 187.274C98.8467 187.828 98.4648 188.735 98.4648 189.997C98.487 191.137 98.9297 192.1 99.793 192.886C100.656 193.672 101.741 194.12 103.047 194.231L115 194.231L115 196.09L103.113 196.09C101.542 196.09 100.374 196.383 99.6104 196.97C98.8467 197.545 98.4648 198.447 98.4648 199.676C98.4648 200.683 98.8135 201.557 99.5107 202.299C100.208 203.029 101.204 203.561 102.499 203.893L115 203.893L115 205.735L97.0371 205.735L97.0371 203.976ZM115 163.781C114.424 163.947 113.594 164.058 112.51 164.113C113.406 164.667 114.104 165.381 114.602 166.255C115.089 167.118 115.332 168.059 115.332 169.077C115.332 170.627 114.895 171.833 114.021 172.696C113.146 173.56 111.901 173.991 110.285 173.991C108.525 173.991 107.131 173.394 106.102 172.198C105.072 170.992 104.552 169.332 104.541 167.218L104.541 164.13L102.034 164.13C100.75 164.13 99.8317 164.451 99.2783 165.093C98.7139 165.724 98.4316 166.653 98.4316 167.882C98.4316 169.022 98.7637 169.957 99.4277 170.688C100.092 171.418 100.95 171.783 102.001 171.783L101.984 173.626C100.512 173.626 99.2673 173.073 98.249 171.966C97.2197 170.859 96.7051 169.47 96.7051 167.799C96.7051 165.995 97.1589 164.628 98.0664 163.698C98.974 162.769 100.297 162.304 102.034 162.304L110.85 162.304C112.609 162.304 113.926 162.143 114.801 161.822L115 161.822L115 163.781ZM113.556 168.845C113.556 167.76 113.273 166.803 112.709 165.973C112.145 165.132 111.392 164.517 110.451 164.13L106.085 164.13L106.085 167.052C106.107 168.734 106.483 170.001 107.214 170.854C107.933 171.706 108.907 172.132 110.136 172.132C112.416 172.132 113.556 171.036 113.556 168.845ZM105.188 151.461C102.355 151.461 100.236 150.974 98.8301 150C97.4134 149.026 96.7051 147.565 96.7051 145.617C96.7051 143.548 97.6514 142.009 99.5439 141.002L97.0371 140.902L97.0371 139.192L115.515 139.192C117.684 139.203 119.333 139.724 120.462 140.753C121.591 141.771 122.155 143.26 122.155 145.219C122.155 146.204 121.912 147.2 121.425 148.207C120.949 149.203 120.362 149.961 119.665 150.481L118.337 149.618C119.743 148.39 120.445 146.967 120.445 145.352C120.445 143.857 120.047 142.773 119.25 142.098C118.453 141.411 117.241 141.063 115.614 141.052L112.759 141.052C114.474 142.059 115.332 143.586 115.332 145.634C115.332 147.504 114.629 148.937 113.224 149.934C111.818 150.919 109.787 151.428 107.131 151.461L105.188 151.461ZM106.865 149.602C109.167 149.602 110.861 149.253 111.945 148.556C113.03 147.858 113.572 146.763 113.572 145.269C113.572 143.276 112.626 141.871 110.733 141.052L101.553 141.052C99.5052 141.882 98.4814 143.276 98.4814 145.235C98.4814 146.741 99.0182 147.842 100.092 148.539C101.165 149.236 102.826 149.59 105.072 149.602L106.865 149.602ZM115 125.76L115 127.619L97.0371 127.619L97.0371 125.76L115 125.76ZM91.8574 127.885C91.4811 127.885 91.1602 127.78 90.8945 127.569C90.6289 127.359 90.4961 127.06 90.4961 126.673C90.4961 126.285 90.6289 125.987 90.8945 125.776C91.1602 125.555 91.4811 125.444 91.8574 125.444C92.2337 125.444 92.5547 125.555 92.8203 125.776C93.0749 125.987 93.2021 126.285 93.2021 126.673C93.2021 127.06 93.0749 127.359 92.8203 127.569C92.5547 127.78 92.2337 127.885 91.8574 127.885ZM97.0371 112.427L99.8926 112.377C98.9186 111.846 98.1439 111.17 97.5684 110.351C96.9928 109.521 96.7051 108.581 96.7051 107.529C96.7051 104.397 98.7913 102.792 102.964 102.715L115 102.715L115 104.541L103.163 104.541C101.558 104.552 100.374 104.834 99.6103 105.388C98.8467 105.941 98.4648 106.81 98.4648 107.994C98.4648 108.957 98.8301 109.826 99.5605 110.6C100.28 111.364 101.271 111.945 102.532 112.344L115 112.344L115 114.186L97.0371 114.186L97.0371 112.427ZM115.332 85.4305C115.332 87.5445 114.64 89.1991 113.257 90.3944C111.873 91.5897 109.903 92.1984 107.347 92.2206L105.155 92.2206C102.521 92.2206 100.457 91.6451 98.9629 90.494C97.4577 89.343 96.7051 87.7603 96.7051 85.746C96.7051 83.7981 97.3415 82.315 98.6143 81.2968C99.887 80.2675 101.835 79.7417 104.458 79.7196L106.185 79.7196L106.185 90.3944L107.197 90.3944C109.256 90.3944 110.844 89.9572 111.962 89.0829C113.08 88.1975 113.639 86.9523 113.639 85.3475C113.639 83.5767 112.991 82.1434 111.696 81.0477L112.925 80.0848C114.53 81.258 115.332 83.0399 115.332 85.4305ZM98.4316 85.746C98.4316 87.1958 98.9463 88.3137 99.9756 89.0995C100.994 89.8742 102.488 90.3003 104.458 90.3778L104.458 81.5624L103.977 81.5624C100.28 81.6509 98.4316 83.0454 98.4316 85.746Z" fill="#9AF950"/>
<g filter="url(#filter0_d_7114_1558)">
<path d="M231.568 391.468H284.873L230.532 338.018L231.568 391.468Z" fill="#9AF950"/>
</g>
<g filter="url(#filter1_d_7114_1558)">
<path d="M355.978 264.969H301.799L357.031 319.31L355.978 264.969Z" fill="#9AF950"/>
</g>
<g filter="url(#filter2_d_7114_1558)">
<path d="M206.48 205.283L207.241 287.475L377.52 454.717L376.759 366.143L206.48 205.283Z" fill="#9AF950"/>
<path d="M207.739 287.264L206.991 206.454L376.26 366.361L377.01 453.515L207.739 287.264Z" stroke="#9AF950"/>
</g>
<mask id="mask1_7114_1558" style="mask-type:alpha" maskUnits="userSpaceOnUse" x="206" y="205" width="172" height="250">
<path d="M206.48 205.283L207.241 287.475L377.52 454.717L376.759 366.143L206.48 205.283Z" fill="#9AF950"/>
</mask>
<g mask="url(#mask1_7114_1558)">
<g filter="url(#filter3_d_7114_1558)">
<path d="M395.252 386.449L395.272 386.467L395.512 386.194L395.357 386.057C398.419 374.639 396.901 360.36 390.682 344.322C381.546 320.722 363.389 296.162 339.578 275.191C315.766 254.219 289.107 239.308 264.541 233.225C247.859 229.094 233.49 229.38 222.55 233.86L222.398 233.726L222.158 233.999L222.178 234.017C217.292 236.024 212.928 239.117 209.419 243.062C198.473 255.491 197.483 275.351 206.631 298.991C215.78 322.63 233.924 347.15 257.739 368.125C281.554 389.099 308.207 404.005 332.772 410.087C357.337 416.169 376.954 412.686 387.901 400.256C391.368 396.273 393.882 391.552 395.252 386.449ZM387.614 400.004C384.284 403.746 380.168 406.707 375.559 408.675C372.608 402.715 363.735 391.832 362.46 390.293C362.641 390.207 362.812 390.113 362.993 390.027C363.175 389.941 363.415 389.814 363.611 389.718C363.807 389.622 364.02 389.493 364.227 389.371C364.433 389.249 364.632 389.144 364.818 389.033C365.003 388.922 365.203 388.788 365.4 388.657C365.597 388.527 365.786 388.413 365.965 388.289C366.143 388.166 366.33 388.027 366.52 387.885C366.71 387.742 366.886 387.622 367.055 387.49C367.224 387.358 367.398 387.208 367.578 387.056C367.758 386.905 367.924 386.777 368.089 386.63C368.253 386.482 368.411 386.329 368.581 386.169C368.751 386.009 368.904 385.869 369.056 385.717C369.208 385.564 369.346 385.388 369.503 385.21C369.659 385.032 369.809 384.895 369.951 384.734C370.093 384.573 370.241 384.405 370.381 384.212C370.521 384.02 370.671 383.883 370.816 383.719C370.961 383.554 371.076 383.363 371.219 383.174C371.363 382.985 371.483 382.822 371.605 382.643C371.728 382.464 371.842 382.267 371.975 382.063C372.108 381.859 372.219 381.693 372.326 381.513C372.432 381.332 372.543 381.119 372.675 380.897C372.807 380.674 372.899 380.509 372.987 380.329C373.075 380.15 373.202 379.893 373.309 379.672C373.416 379.45 373.496 379.293 373.586 379.098C373.676 378.902 373.779 378.625 373.879 378.392C373.979 378.159 374.041 378.008 374.115 377.811C374.19 377.613 374.297 377.299 374.387 377.044C374.452 376.857 374.521 376.672 374.58 376.478C374.673 376.186 374.757 375.886 374.843 375.588C374.889 375.423 374.941 375.264 374.968 375.113C375.096 374.642 375.218 374.165 375.317 373.667C375.435 373.093 375.537 372.505 375.627 371.912C375.659 371.689 375.688 371.469 375.714 371.247C377.359 372.432 386.913 379.356 394.917 386.178C393.58 391.289 391.08 396.02 387.614 400.004ZM269.798 354.413L269.92 354.275C267.856 352.528 265.801 350.711 263.808 348.863C258.374 343.862 253.242 338.541 248.439 332.931C250.343 332.453 252.283 332.132 254.239 331.972C265.046 346.174 278.571 358.086 294.024 367.012C294.113 368.974 294.041 370.94 293.809 372.89C287.637 368.835 281.712 364.416 276.064 359.657C273.978 357.914 271.917 356.104 269.923 354.278L269.798 354.413ZM328.723 287.508C333.764 292.024 338.568 296.797 343.116 301.809C339.907 303.312 336.783 304.987 333.757 306.828C326.39 298.564 318.051 291.219 308.922 284.956C310.363 281.719 311.63 278.407 312.716 275.035C318.263 278.914 323.606 283.077 328.723 287.508ZM344.426 303.267L344.826 303.718L345.49 304.473L345.917 304.966L346.539 305.683L346.981 306.207L347.556 306.883L348.008 307.427L348.581 308.107L349.04 308.663L349.578 309.324L350.037 309.886L350.562 310.541L351.032 311.131L351.523 311.756L352.005 312.374L352.476 312.976L352.963 313.614L353.404 314.19L353.891 314.841L354.32 315.412L354.801 316.069L355.214 316.632L355.71 317.32L356.092 317.849L356.589 318.55L356.955 319.065L357.449 319.781L357.796 320.279L358.284 321.001L358.621 321.497L359.107 322.229L359.427 322.709L359.922 323.478L360.205 323.909L360.71 324.705L360.977 325.12L361.457 325.906L361.713 326.319L362.191 327.107L362.428 327.503L362.913 328.322L363.153 328.715L363.637 329.55L363.85 329.919L364.307 330.731L364.518 331.103L364.969 331.921L365.177 332.297L365.616 333.128L365.806 333.477L366.237 334.318L366.412 334.653L366.856 335.524L367.013 335.832C367.163 336.128 367.306 336.423 367.447 336.716L367.593 337.009L368.007 337.87L368.157 338.184L368.48 338.883C363.335 337.627 358.071 336.93 352.779 336.803C349.03 327.159 342.599 316.861 333.929 307.044C336.96 305.205 340.088 303.531 343.301 302.031L343.666 302.434L344.426 303.267ZM375.267 371.828C375.235 372.057 375.193 372.284 375.158 372.51L375.124 372.708C375.073 373.002 375.015 373.29 374.95 373.572C374.85 374.057 374.741 374.533 374.622 375.001C374.587 375.134 374.542 375.264 374.507 375.397C374.416 375.726 374.326 376.056 374.228 376.379C374.176 376.538 374.118 376.697 374.063 376.853C373.97 377.139 373.876 377.424 373.772 377.701C373.705 377.871 373.632 378.034 373.565 378.203C373.461 378.461 373.362 378.72 373.251 378.972C373.174 379.139 373.092 379.3 373.012 379.463C372.897 379.707 372.785 379.953 372.664 380.191C372.581 380.352 372.485 380.507 372.399 380.671C372.274 380.9 372.152 381.131 372.017 381.351C371.921 381.513 371.819 381.662 371.723 381.817C371.585 382.035 371.452 382.251 371.307 382.462C371.202 382.615 371.09 382.762 370.982 382.912C370.836 383.117 370.691 383.322 370.536 383.519C370.38 383.715 370.289 383.798 370.164 383.94C370.04 384.081 369.837 384.312 369.675 384.496C369.512 384.681 369.425 384.779 369.301 384.921C369.176 385.062 368.976 385.289 368.791 385.46C368.606 385.63 368.509 385.72 368.371 385.85C368.233 385.98 368.019 386.189 367.834 386.353C367.649 386.517 367.529 386.599 367.382 386.726C367.235 386.854 367.007 387.039 366.815 387.191C366.622 387.343 366.491 387.426 366.327 387.545C366.164 387.664 365.935 387.837 365.733 387.974C365.53 388.111 365.389 388.198 365.216 388.308C365.043 388.419 364.804 388.576 364.591 388.705C364.379 388.833 364.225 388.914 364.042 389.016C363.859 389.117 363.613 389.263 363.39 389.377C363.167 389.49 362.995 389.573 362.799 389.669C362.603 389.765 362.384 389.888 362.19 389.968C357.207 384.44 351.537 379.572 345.319 375.483C347.551 374.326 349.55 372.769 351.217 370.887C353.563 368.179 355.187 364.922 355.938 361.416C362.764 363.828 369.283 367.038 375.358 370.98C375.334 371.18 375.306 371.378 375.278 371.576C375.287 371.671 375.28 371.753 375.267 371.828ZM294.154 373.111C294.395 371.159 294.477 369.191 294.399 367.225C304.571 372.969 314.653 376.647 323.648 378.006C326.783 381.812 329.41 386.007 331.464 390.488C319.801 387.429 306.898 381.448 294.154 373.111ZM294.378 366.797C294.165 363.454 293.338 360.861 291.916 359.117C292.739 359.626 293.548 360.111 294.323 360.554C296.23 361.648 298.169 362.678 300.105 363.6C303.622 365.303 307.293 366.667 311.068 367.674C315.743 370.165 319.894 373.535 323.292 377.599C314.403 376.193 304.442 372.511 294.378 366.797ZM226.222 297.798C230.926 299.269 235.421 301.346 239.592 303.975C242.076 312.727 246.991 322.257 253.981 331.628C252.021 331.802 250.079 332.132 248.173 332.615C238.29 321.023 230.727 308.979 226.222 297.798ZM240.037 304.261C244.496 307.118 248.363 310.809 251.423 315.131C252.898 318.748 254.715 322.217 256.849 325.491C258.007 327.295 259.272 329.098 260.601 330.842C261.142 331.558 261.721 332.296 262.33 333.049C260.437 331.872 257.756 331.358 254.404 331.58C247.463 322.334 242.555 312.914 240.033 304.258L240.037 304.261ZM222.847 267.244C222.92 267.022 223.005 266.799 223.072 266.589C223.14 266.38 223.204 266.179 223.279 265.982C223.353 265.784 223.466 265.51 223.563 265.28C223.661 265.05 223.712 264.891 223.797 264.702C223.881 264.513 224.007 264.251 224.117 264.026C224.227 263.801 224.286 263.655 224.377 263.478C224.469 263.301 224.614 263.043 224.734 262.827C224.853 262.611 224.919 262.476 225.017 262.305C225.115 262.134 225.28 261.888 225.409 261.68C225.539 261.473 225.612 261.351 225.723 261.191C225.834 261.032 226.009 260.788 226.154 260.589C226.3 260.39 226.371 260.277 226.489 260.13C226.607 259.982 226.8 259.743 226.959 259.556C227.118 259.368 227.208 259.273 227.333 259.131C227.457 258.99 227.66 258.759 227.826 258.571C227.991 258.384 228.072 258.292 228.194 258.153C228.359 257.966 228.557 257.807 228.736 257.638C228.915 257.468 229.006 257.378 229.144 257.254C229.282 257.131 229.53 256.928 229.725 256.767C229.87 256.649 230.009 256.525 230.157 256.41C230.355 256.252 230.566 256.105 230.777 255.952C230.926 255.843 231.074 255.728 231.226 255.622C231.443 255.475 231.668 255.333 231.892 255.192C232.05 255.092 232.202 254.986 232.364 254.888C232.526 254.791 232.67 254.714 232.823 254.627L233.066 254.49C233.231 254.396 233.387 254.299 233.559 254.211C233.805 254.077 234.065 253.955 234.321 253.83C234.484 253.751 234.643 253.664 234.81 253.588C235.097 253.455 235.397 253.334 235.699 253.203C235.845 253.144 235.984 253.073 236.141 253.007C236.593 252.821 237.051 252.64 237.515 252.499C238.337 252.23 239.157 251.964 240.021 251.755C244.699 257.284 248.708 263.346 251.965 269.813C248.58 270.998 245.552 273.02 243.162 275.691C241.507 277.58 240.215 279.76 239.351 282.119C234.501 276.475 228.95 271.472 222.834 267.232L222.847 267.244ZM243.754 251.021C244.053 250.981 244.356 250.937 244.658 250.9L244.732 250.895C245.026 250.861 245.319 250.827 245.616 250.796L245.69 250.792C245.987 250.761 246.29 250.736 246.594 250.711C246.608 250.711 246.623 250.71 246.637 250.708C246.95 250.685 247.257 250.669 247.579 250.649L247.622 250.646C247.938 250.627 248.242 250.608 248.578 250.606L248.674 250.603L249.591 250.58L249.675 250.584L250.618 250.578L250.73 250.583C251.038 250.586 251.346 250.589 251.655 250.598L251.708 250.597L252.706 250.635L252.784 250.639L253.767 250.693L253.877 250.702C254.196 250.725 254.518 250.746 254.843 250.775L254.959 250.784L255.929 250.872L256.051 250.887L257.026 250.991L257.142 251.005L258.133 251.13L258.271 251.153C258.598 251.195 258.921 251.24 259.251 251.291L259.386 251.31L260.383 251.469L260.49 251.487L261.512 251.657L261.632 251.681L262.642 251.864L262.803 251.894L263.796 252.096L263.973 252.135L264.957 252.348L265.153 252.392L266.129 252.614L266.306 252.659L267.318 252.913L267.451 252.948L268.511 253.227L268.666 253.271C269.017 253.365 269.365 253.462 269.712 253.56L269.918 253.619C270.251 253.713 270.587 253.811 270.92 253.917L271.12 253.977L272.139 254.289L272.165 254.313C274.091 259.269 275.469 264.42 276.274 269.674C267.108 267.445 258.827 267.376 252.257 269.674C249.012 263.221 245.02 257.169 240.366 251.643C241.428 251.386 242.521 251.18 243.646 251.025L243.754 251.021ZM273.662 254.795L274.648 255.126L274.874 255.202L275.889 255.552L276.121 255.634L277.137 255.997L277.402 256.096L278.39 256.464L278.678 256.576C279.003 256.699 279.325 256.819 279.651 256.948L279.97 257.078L280.918 257.451L281.241 257.583L282.193 257.972L282.507 258.108C282.827 258.237 283.146 258.373 283.47 258.511L283.806 258.655L284.75 259.066L285.122 259.236L286.041 259.642L286.416 259.815L287.333 260.237L287.722 260.421L288.633 260.85L289.044 261.048L289.934 261.481L290.396 261.707L291.239 262.128L291.721 262.371L292.535 262.778L293.021 263.031L293.845 263.459L294.357 263.735C294.628 263.871 294.894 264.012 295.156 264.158L295.688 264.445L296.479 264.878L297.05 265.194L297.801 265.611L298.386 265.944L299.126 266.362L299.727 266.71L300.451 267.132L301.079 267.503L301.777 267.92L302.431 268.315L303.108 268.724L303.795 269.148L304.437 269.543L305.137 269.979L305.773 270.381L306.487 270.841L307.107 271.234L307.85 271.72L308.445 272.109L309.216 272.624L309.775 272.994L310.592 273.55L311.109 273.9L311.942 274.476L312.402 274.793C311.315 278.179 310.044 281.502 308.595 284.749C297.762 277.388 286.741 272.316 276.694 269.81C275.9 264.576 274.543 259.442 272.647 254.497L273.384 254.731L273.662 254.795ZM368.784 339.402L369.183 340.279L369.31 340.567L369.703 341.451L369.827 341.735L370.197 342.646L370.307 342.906L370.677 343.817C370.704 343.893 370.737 343.968 370.77 344.044L371.107 344.926L371.211 345.193L371.515 346.045L371.624 346.334L371.925 347.183L372.023 347.463L372.321 348.309L372.409 348.574C372.509 348.867 372.603 349.16 372.693 349.45L372.771 349.687L373.042 350.563L373.109 350.792C373.196 351.073 373.276 351.354 373.357 351.636L373.432 351.889L373.656 352.712L373.73 352.981L373.942 353.805L374.008 354.062L374.208 354.886C374.222 354.97 374.243 355.052 374.264 355.135C374.328 355.402 374.382 355.666 374.443 355.936L374.5 356.197L374.665 357.008L374.712 357.254L374.863 358.053L374.907 358.302C374.955 358.567 375.014 358.846 375.039 359.097C375.051 359.177 375.062 359.257 375.08 359.337L375.185 360.096L375.227 360.367L375.323 361.123L375.352 361.382L375.428 362.087L375.46 362.39L375.518 363.089L375.543 363.386L375.587 364.109L375.604 364.375L375.632 365.055C375.632 365.154 375.639 365.253 375.642 365.35L375.661 365.992C375.662 366.104 375.666 366.213 375.664 366.322C375.668 366.53 375.663 366.736 375.664 366.941C375.659 367.053 375.66 367.165 375.661 367.277C375.656 367.489 375.651 367.701 375.639 367.913C375.637 368.016 375.637 368.115 375.631 368.215C375.623 368.437 375.609 368.652 375.595 368.868C375.589 368.962 375.589 369.055 375.579 369.146C375.567 369.352 375.549 369.558 375.531 369.759L375.507 370.065L375.459 370.606C369.389 366.687 362.881 363.492 356.07 361.087C357.516 354.278 356.394 346.047 353.036 337.263C358.349 337.398 363.633 338.114 368.793 339.398L368.784 339.402ZM355.686 360.925C349.241 358.666 342.577 357.092 335.806 356.227C336.348 351.235 335.037 345.24 332.125 338.824C338.885 337.601 345.753 337.061 352.625 337.21C355.998 345.991 357.127 354.18 355.701 360.961L355.686 360.925ZM311.208 367.289L311.162 367.295C309.197 366.777 307.261 366.153 305.363 365.426C306.506 364.97 307.556 364.311 308.464 363.481C314.973 363.825 321.405 365.07 327.576 367.18C323.364 368.924 317.732 368.973 311.237 367.309L311.208 367.289ZM290.5 357.765L290.074 357.49C289.077 356.84 288.159 356.212 287.261 355.596C289.053 354.541 290.872 353.524 292.718 352.547C293.968 355.337 294.521 357.935 294.272 360.094C293.067 359.4 291.8 358.63 290.505 357.793L290.5 357.765ZM276.316 346.979L276.438 346.841C275.425 345.996 274.435 345.124 273.469 344.226C275.311 341.668 277.117 339.109 278.885 336.547C280.28 337.451 281.603 338.461 282.844 339.567C284.096 340.659 285.264 341.842 286.34 343.107C284.022 345.189 281.71 347.304 279.403 349.453C278.414 348.582 277.424 347.71 276.434 346.838L276.316 346.979ZM263.821 334.268C262.827 333.089 261.907 331.933 261.06 330.826C263.154 330.291 265.801 330.512 268.727 331.4C267.99 333.353 267.211 335.286 266.391 337.198C265.657 336.394 264.909 335.554 264.16 334.649L263.821 334.268ZM251.731 314.9C249.263 308.67 248.598 303.081 249.795 298.682C252.668 304.537 254.715 310.76 255.879 317.174C255.172 318.18 254.652 319.305 254.342 320.496C253.38 318.705 252.517 316.862 251.758 314.976L251.752 314.924L251.731 314.9ZM309.17 309.676C312.041 312.237 314.775 314.947 317.361 317.796C311.846 321.823 306.025 326.363 300.082 331.275C296.727 327.588 292.974 324.282 288.892 321.42C293.011 314.901 296.78 308.553 300.081 302.576C303.236 304.79 306.271 307.169 309.175 309.703L309.17 309.676ZM293.045 352.368C298.206 349.649 303.532 347.256 308.993 345.202C310.742 349.168 311.563 352.925 311.355 356.155C305.694 356.848 300.112 358.066 294.679 359.791C294.849 357.662 294.265 355.126 293.05 352.395L293.045 352.368ZM282.957 339.438L283.079 339.3C281.828 338.186 280.493 337.168 279.087 336.258C282.453 331.378 285.67 326.508 288.7 321.731C292.745 324.576 296.468 327.855 299.801 331.508C295.448 335.12 291.024 338.927 286.605 342.879C285.525 341.598 284.347 340.403 283.082 339.303L282.957 339.438ZM261.3 330.394C262.322 324.786 262.824 319.094 262.801 313.392C265.969 312.768 269.797 313.124 273.961 314.349C272.613 320.025 270.912 325.611 268.867 331.073C265.997 330.229 263.407 329.97 261.305 330.422L261.3 330.394ZM274.3 314.443C279.327 316.073 284.079 318.458 288.391 321.517C285.357 326.291 282.144 331.164 278.778 336.05C275.841 333.968 272.616 332.325 269.207 331.174C271.252 325.718 272.955 320.14 274.305 314.471L274.3 314.443ZM300.039 331.776C303.618 335.667 306.585 340.079 308.837 344.86C303.374 346.913 298.047 349.307 292.886 352.029C291.312 348.791 289.274 345.799 286.837 343.148C291.27 339.225 295.691 335.416 300.051 331.809L300.039 331.776ZM309.314 345.07C315.625 342.706 322.109 340.83 328.709 339.456C329.726 339.246 330.735 339.051 331.736 338.873C334.646 345.252 335.958 351.212 335.431 356.154C327.554 355.178 319.589 355.158 311.711 356.095C311.911 352.875 311.086 349.097 309.329 345.106L309.314 345.07ZM328.636 339.094C322.009 340.475 315.498 342.362 309.162 344.737C306.902 339.917 303.921 335.468 300.32 331.544C306.263 326.631 312.084 322.091 317.599 318.064C323.765 324.897 328.516 331.934 331.562 338.544C330.604 338.733 329.633 338.928 328.651 339.13L328.636 339.094ZM288.582 321.2C284.234 318.124 279.444 315.729 274.377 314.096C275.935 307.51 276.984 300.813 277.515 294.065C277.592 293.06 277.655 292.064 277.705 291.076C284.64 293.279 292.217 297.1 299.786 302.34C296.485 308.369 292.732 314.732 288.594 321.233L288.582 321.2ZM277.144 294.041C276.615 300.762 275.573 307.431 274.025 313.99C269.844 312.751 265.989 312.406 262.78 313.017C262.712 305.083 261.685 297.184 259.722 289.492C264.566 288.335 270.644 288.884 277.332 290.974C277.299 292.016 277.238 293.043 277.155 294.074L277.144 294.041ZM259.63 289.137C257.918 282.529 255.514 276.118 252.459 270.01C258.996 267.73 267.272 267.824 276.395 270.049C277.412 276.847 277.743 283.728 277.384 290.588C270.641 288.548 264.517 288.012 259.642 289.171L259.63 289.137ZM259.364 289.586C261.329 297.271 262.352 305.163 262.411 313.09C260.132 313.517 258.055 314.671 256.491 316.38C256.381 316.505 256.271 316.63 256.161 316.755C254.954 310.293 252.856 304.028 249.928 298.138C251.185 294.131 253.922 291.375 258.074 289.953C258.51 289.851 258.937 289.731 259.375 289.62L259.364 289.586ZM254.583 320.954C254.842 319.79 255.303 318.68 255.946 317.677C256.343 319.984 256.612 322.312 256.754 324.648C255.991 323.439 255.276 322.222 254.608 320.999L254.583 320.954ZM257.183 325.318C257.046 322.616 256.74 319.924 256.268 317.258C256.425 317.04 256.588 316.828 256.768 316.624C258.262 314.992 260.24 313.881 262.413 313.454C262.438 319.164 261.929 324.862 260.895 330.475L260.806 330.496C259.539 328.842 258.315 327.099 257.191 325.349L257.183 325.318ZM266.662 337.489C267.517 335.515 268.322 333.521 269.076 331.508C272.455 332.656 275.65 334.289 278.561 336.356C276.807 338.902 275.011 341.446 273.173 343.989C270.919 341.94 268.728 339.759 266.67 337.519L266.662 337.489ZM286.567 343.395C288.985 346.021 291.008 348.985 292.573 352.192C290.672 353.198 288.796 354.248 286.946 355.342C284.468 353.586 282.024 351.685 279.68 349.697C281.971 347.584 284.269 345.494 286.575 343.425L286.567 343.395ZM294.607 360.266L294.616 360.175C300.054 358.44 305.642 357.215 311.31 356.518C311.163 358.728 310.31 360.832 308.878 362.519C308.698 362.723 308.521 362.924 308.315 363.098C305.611 362.963 302.902 363 300.204 363.208C298.341 362.35 296.457 361.357 294.615 360.296L294.607 360.266ZM307.93 363.461C307.016 364.226 305.974 364.824 304.852 365.227C303.557 364.725 302.243 364.163 300.913 363.54C303.252 363.396 305.597 363.379 307.939 363.492L307.93 363.461ZM308.811 363.126C308.921 363.001 309.032 362.876 309.142 362.751C310.639 360.983 311.522 358.777 311.657 356.462C319.53 355.521 327.489 355.54 335.361 356.519C335.302 356.965 335.238 357.404 335.147 357.833C334.277 362.146 331.873 365.196 328.056 366.948C321.851 364.806 315.38 363.534 308.829 363.166L308.811 363.126ZM331.939 338.455C328.872 331.802 324.095 324.715 317.886 317.831C323.538 313.715 328.858 310.141 333.65 307.248C342.279 317.005 348.689 327.227 352.44 336.802C345.572 336.684 338.71 337.251 331.958 338.495L331.939 338.455ZM317.648 317.563C315.045 314.695 312.292 311.966 309.401 309.388C306.478 306.845 303.423 304.459 300.249 302.239C303.619 296.119 306.491 290.39 308.759 285.261C317.82 291.489 326.102 298.783 333.425 306.986C328.619 309.901 323.309 313.489 317.666 317.602L317.648 317.563ZM299.943 302.028C292.337 296.744 284.702 292.901 277.709 290.693C278.074 283.827 277.752 276.941 276.746 270.136C286.719 272.648 297.668 277.715 308.436 285.042C306.189 290.228 303.331 295.94 299.961 302.068L299.943 302.028ZM243.406 275.912C245.764 273.279 248.752 271.285 252.09 270.117C255.149 276.22 257.557 282.626 259.272 289.231C258.829 289.349 258.389 289.476 257.963 289.621C253.884 291.02 251.039 293.804 249.699 297.673C249.039 296.356 248.335 295.054 247.586 293.767C245.256 289.757 242.578 285.958 239.582 282.416C240.448 280.039 241.751 277.847 243.424 275.951L243.406 275.912ZM247.279 293.935C248.088 295.325 248.839 296.735 249.55 298.162C248.268 302.404 248.739 307.776 250.912 313.769C247.864 309.777 244.129 306.36 239.881 303.68C237.684 295.859 237.451 288.68 239.468 282.812C242.391 286.305 245.008 290.043 247.289 293.985L247.279 293.935ZM263.56 334.512L263.864 334.873C264.708 335.862 265.511 336.767 266.322 337.622C268.454 339.95 270.735 342.216 273.095 344.365C273.54 344.757 273.992 345.155 274.444 345.553C275.025 346.064 275.609 346.579 276.213 347.07C276.817 347.561 277.357 348.118 277.938 348.63C278.393 349.031 278.841 349.426 279.287 349.818C281.717 351.888 284.252 353.864 286.831 355.685C287.793 356.369 288.792 357.05 289.869 357.776L290.265 358.032C292.444 359.548 293.685 362.435 293.984 366.532C278.737 357.67 265.375 345.902 254.658 331.896C258.772 331.721 261.8 332.599 263.56 334.552L263.56 334.512ZM312.44 367.959C318.665 369.35 324.047 369.146 328.094 367.338C329.599 367.863 331.092 368.43 332.573 369.056C336.757 370.826 340.782 372.952 344.604 375.409C339.043 378.145 331.89 378.824 323.852 377.635C320.653 373.775 316.791 370.514 312.449 368.008L312.44 367.959ZM332.713 368.718C331.342 368.137 329.961 367.604 328.571 367.116C332.25 365.306 334.653 362.132 335.515 357.901C335.609 357.462 335.676 357.007 335.736 356.552C342.505 357.42 349.165 358.999 355.605 361.263C354.868 364.722 353.268 367.937 350.953 370.609C349.271 372.506 347.248 374.07 344.987 375.22C341.095 372.715 336.991 370.555 332.722 368.767L332.713 368.718ZM239.182 282.484C237.115 288.356 237.287 295.55 239.43 303.387C235.242 300.798 230.74 298.757 226.035 297.312C221.493 285.842 220.34 275.557 222.722 267.566C228.831 271.828 234.367 276.859 239.192 282.534L239.182 282.484ZM225.759 297.625C230.257 308.88 237.865 320.993 247.779 332.683C246.222 333.24 237.772 336.423 232.725 341.634C221.134 327.399 212.414 312.751 207.058 298.946C212.618 296.782 224.497 297.582 225.756 297.662L225.759 297.625ZM331.632 390.87C331.883 392.121 334.181 403.805 332.701 409.609C318.319 406.032 302.684 399.228 287.112 389.54C291.635 383.886 293.73 375.128 294.09 373.476C306.931 381.863 319.911 387.883 331.651 390.928L331.632 390.87ZM331.921 390.541C329.894 386.056 327.3 381.848 324.203 378.021C332.248 379.156 339.406 378.418 344.97 375.626C351.195 379.7 356.871 384.557 361.858 390.079C354.226 393.516 343.879 393.672 331.918 390.625L331.921 390.541ZM395.02 385.695C386.679 378.63 376.767 371.461 375.766 370.742C376.796 361.778 374.437 350.968 369.202 339.426C371.854 340.159 386.709 344.324 391.043 346.387C396.402 361.067 397.914 374.673 395.024 385.77L395.02 385.695ZM390.87 345.884C385.885 343.656 370.454 339.388 369.003 338.987C367.151 334.98 365.079 331.078 362.794 327.3C361.835 325.676 360.815 324.056 359.733 322.441C358.401 320.407 356.991 318.37 355.503 316.331C354.906 315.513 354.3 314.696 353.683 313.88C352.445 312.249 351.163 310.617 349.836 308.984C347.896 306.606 345.863 304.23 343.735 301.857C345.326 301.208 354.943 297.585 363.738 300.502C376.216 315.719 385.451 331.333 390.875 345.959L390.87 345.884ZM363.306 299.982C354.301 297.27 344.646 301.082 343.476 301.559C338.896 296.508 334.057 291.696 328.98 287.144C323.823 282.682 318.439 278.491 312.849 274.585C313.183 273.354 315.746 263.314 311.909 254.714C331.255 267.093 348.593 282.363 363.316 299.99L363.306 299.982ZM311.331 254.34C315.336 262.695 312.957 272.693 312.513 274.354C298.815 264.832 285.061 257.914 272.485 253.957C271.903 252.568 265.724 237.803 262.88 233.136C278.084 236.772 294.733 243.953 311.327 254.424L311.331 254.34ZM262.385 233.027C264.979 237.065 270.975 251.288 272.049 253.813C259.925 250.067 248.92 249.107 240.157 251.261C239.318 250.358 230.965 241.412 222.892 234.05C233.513 229.879 247.202 229.661 262.378 233.114L262.385 233.027ZM222.501 234.214C230.265 241.309 238.355 249.895 239.739 251.377C238.937 251.583 238.166 251.833 237.375 252.066C236.9 252.232 236.435 252.407 235.984 252.594C235.857 252.646 235.733 252.706 235.605 252.758C235.287 252.893 234.969 253.021 234.661 253.165C234.495 253.241 234.335 253.328 234.173 253.407C233.913 253.535 233.651 253.66 233.398 253.794C233.22 253.889 233.053 253.993 232.879 254.091C232.705 254.189 232.413 254.347 232.192 254.486C231.97 254.624 231.845 254.706 231.675 254.82C231.505 254.933 231.248 255.092 231.042 255.232C230.836 255.373 230.703 255.483 230.531 255.606C230.358 255.729 230.142 255.889 229.952 256.037C229.763 256.186 229.613 256.323 229.459 256.444C229.305 256.566 229.095 256.744 228.925 256.898C228.754 257.051 228.602 257.198 228.453 257.341C228.303 257.484 228.126 257.638 227.954 257.814C227.782 257.989 227.664 258.143 227.506 258.29C227.347 258.436 227.216 258.619 227.056 258.8C226.897 258.981 226.766 259.129 226.624 259.29C226.482 259.452 226.334 259.619 226.194 259.812C226.054 260.004 225.934 260.167 225.806 260.346C225.677 260.525 225.542 260.699 225.411 260.887C225.28 261.076 225.171 261.26 225.052 261.448C224.934 261.635 224.812 261.82 224.688 262.021C224.564 262.222 224.467 262.411 224.361 262.605C224.256 262.798 224.141 262.995 224.033 263.204C223.925 263.413 223.832 263.611 223.736 263.813C223.64 264.015 223.535 264.221 223.44 264.435C223.345 264.649 223.262 264.863 223.177 265.074C223.091 265.284 222.996 265.499 222.913 265.719C222.831 265.938 222.755 266.164 222.682 266.38C222.609 266.596 222.547 266.746 222.491 266.937C220.792 265.866 208.876 258.452 202.602 256.264C203.987 251.302 206.502 246.731 209.951 242.908C213.399 239.085 217.688 236.113 222.48 234.225L222.501 234.214ZM202.518 256.605C208.899 258.817 221.098 266.469 222.398 267.287C219.959 275.332 221.07 285.663 225.614 297.198C223.682 297.064 212.366 296.384 206.914 298.544C200.887 282.973 199.187 268.388 202.511 256.692L202.518 256.605ZM232.977 341.88C238.156 336.505 247.026 333.299 248.052 332.946C252.894 338.617 258.074 343.993 263.561 349.043C264.66 350.064 265.78 351.073 266.908 352.067C267.828 352.877 268.753 353.674 269.686 354.461C270.579 355.282 271.486 356.099 272.408 356.91C273.536 357.904 274.668 358.901 275.83 359.849C281.533 364.655 287.52 369.114 293.758 373.201C293.514 374.342 291.451 383.496 286.799 389.283C266.436 376.468 248.262 360.462 232.977 341.88ZM333.055 409.746C334.509 404.065 332.405 392.925 332.028 391.026C344.045 394.076 354.433 393.873 362.105 390.437C363.097 391.638 372.226 402.77 375.214 408.809C364.05 413.589 349.368 413.745 333.055 409.746Z" fill="black"/>
</g>
</g>
<defs>
<filter id="filter0_d_7114_1558" x="185.532" y="295.018" width="144.341" height="143.45" filterUnits="userSpaceOnUse" color-interpolation-filters="sRGB">
<feFlood flood-opacity="0" result="BackgroundImageFix"/>
<feColorMatrix in="SourceAlpha" type="matrix" values="0 0 0 0 0 0 0 0 0 0 0 0 0 0 0 0 0 0 127 0" result="hardAlpha"/>
<feOffset dy="2"/>
<feGaussianBlur stdDeviation="22.5"/>
<feComposite in2="hardAlpha" operator="out"/>
<feColorMatrix type="matrix" values="0 0 0 0 0.603922 0 0 0 0 0.976471 0 0 0 0 0.313726 0 0 0 1 0"/>
<feBlend mode="normal" in2="BackgroundImageFix" result="effect1_dropShadow_7114_1558"/>
<feBlend mode="normal" in="SourceGraphic" in2="effect1_dropShadow_7114_1558" result="shape"/>
</filter>
<filter id="filter1_d_7114_1558" x="256.799" y="221.969" width="145.232" height="144.341" filterUnits="userSpaceOnUse" color-interpolation-filters="sRGB">
<feFlood flood-opacity="0" result="BackgroundImageFix"/>
<feColorMatrix in="SourceAlpha" type="matrix" values="0 0 0 0 0 0 0 0 0 0 0 0 0 0 0 0 0 0 127 0" result="hardAlpha"/>
<feOffset dy="2"/>
<feGaussianBlur stdDeviation="22.5"/>
<feComposite in2="hardAlpha" operator="out"/>
<feColorMatrix type="matrix" values="0 0 0 0 0.603922 0 0 0 0 0.976471 0 0 0 0 0.313726 0 0 0 1 0"/>
<feBlend mode="normal" in2="BackgroundImageFix" result="effect1_dropShadow_7114_1558"/>
<feBlend mode="normal" in="SourceGraphic" in2="effect1_dropShadow_7114_1558" result="shape"/>
</filter>
<filter id="filter2_d_7114_1558" x="161.48" y="162.283" width="261.04" height="339.434" filterUnits="userSpaceOnUse" color-interpolation-filters="sRGB">
<feFlood flood-opacity="0" result="BackgroundImageFix"/>
<feColorMatrix in="SourceAlpha" type="matrix" values="0 0 0 0 0 0 0 0 0 0 0 0 0 0 0 0 0 0 127 0" result="hardAlpha"/>
<feOffset dy="2"/>
<feGaussianBlur stdDeviation="22.5"/>
<feComposite in2="hardAlpha" operator="out"/>
<feColorMatrix type="matrix" values="0 0 0 0 0.603922 0 0 0 0 0.976471 0 0 0 0 0.313726 0 0 0 1 0"/>
<feBlend mode="normal" in2="BackgroundImageFix" result="effect1_dropShadow_7114_1558"/>
<feBlend mode="normal" in="SourceGraphic" in2="effect1_dropShadow_7114_1558" result="shape"/>
</filter>
<filter id="filter3_d_7114_1558" x="195.423" y="225.305" width="206.465" height="192.703" filterUnits="userSpaceOnUse" color-interpolation-filters="sRGB">
<feFlood flood-opacity="0" result="BackgroundImageFix"/>
<feColorMatrix in="SourceAlpha" type="matrix" values="0 0 0 0 0 0 0 0 0 0 0 0 0 0 0 0 0 0 127 0" result="hardAlpha"/>
<feOffset/>
<feGaussianBlur stdDeviation="2.5"/>
<feComposite in2="hardAlpha" operator="out"/>
<feColorMatrix type="matrix" values="0 0 0 0 0.603922 0 0 0 0 0.976471 0 0 0 0 0.313726 0 0 0 1 0"/>
<feBlend mode="normal" in2="BackgroundImageFix" result="effect1_dropShadow_7114_1558"/>
<feBlend mode="normal" in="SourceGraphic" in2="effect1_dropShadow_7114_1558" result="shape"/>
</filter>
<linearGradient id="paint0_linear_7114_1558" x1="243.305" y1="73.5455" x2="242.436" y2="105.985" gradientUnits="userSpaceOnUse">
<stop offset="0.100503" stop-color="#9AF950"/>
<stop offset="0.130503" stop-color="#171717"/>
</linearGradient>
<clipPath id="clip0_7114_1558">
<rect x="173" y="252" width="36" height="100" transform="rotate(-180 173 252)" fill="white"/>
</clipPath>
</defs>
</svg>
