<svg xmlns="http://www.w3.org/2000/svg" xmlns:xlink="http://www.w3.org/1999/xlink" fill="none" version="1.1" width="130" height="159" viewBox="0 0 130 159"><defs><clipPath id="master_svg0_20_0496"><rect x="0" y="2" width="130" height="156" rx="0"/></clipPath><mask id="master_svg1_20_0497"><g><path d="M-14.37890625,2.396484375C-14.37890625,2.396484375,57.68959375,2.396484375,57.68959375,2.396484375C71.92489375,2.396484375,83.42039375,4.308604375,92.17609375,8.132864375C100.67609375,11.767484375,108.14009375,17.424584375000002,113.90309375000001,24.601884375C119.73309375,31.997184375,123.96709375,40.499984375,126.34109375,49.582884375C128.95909375,59.425984375,130.26009375,69.566584375,130.21109375,79.745184375C130.21109375,96.398884375,128.29909375,109.308484375,124.47309375,118.472484375C120.90509374999999,127.225484375,115.43709375,135.095484375,108.45809375,141.523484375C102.30409375,147.372484375,94.78509375,151.622484375,86.57009375,153.895484375C77.14699375,156.564484375,67.40979375,157.996484375,57.609393749999995,158.151484375C57.609393749999995,158.151484375,-14.37890625,158.151484375,-14.37890625,158.151484375C-14.37890625,158.151484375,-14.37890625,2.396484375,-14.37890625,2.396484375C-14.37890625,2.396484375,-14.37890625,2.396484375,-14.37890625,2.396484375ZM34.20059375,37.660684375C34.20059375,37.660684375,34.20059375,122.781484375,34.20059375,122.781484375C34.20059375,122.781484375,46.13199375,122.781484375,46.13199375,122.781484375C56.274893750000004,122.781484375,63.508393749999996,121.671484375,67.77889375,119.424484375C72.41459375,116.813484375,75.98389375,112.680484375,77.86839375,107.739484375C80.30649375,102.188084375,81.52549375,93.174284375,81.52549375,80.696784375C81.52549375,64.201384375,78.80299375,52.904884375,73.35809375,46.807184375C67.91229375,40.709484375,58.908493750000005,37.660684375,46.34539375,37.660684375C46.34539375,37.660684375,34.20059375,37.660684375,34.20059375,37.660684375C34.20059375,37.660684375,34.20059375,37.660684375,34.20059375,37.660684375Z" fill="#FFFFFF" fill-opacity="1"/></g></mask><linearGradient x1="0.6294558644294739" y1="-0.4796748161315918" x2="0.27861157059669495" y2="2.172607898712158" id="master_svg2_0_363"><stop offset="0%" stop-color="#BCFF15" stop-opacity="1"/><stop offset="100%" stop-color="#000000" stop-opacity="1"/></linearGradient></defs><g><g clip-path="url(#master_svg0_20_0496)" mask="url(#master_svg1_20_0497)"><g><path d="M0 0C0 0 0 0 0 0L130 0C130 0 130 0 130 0L130 159C130 159 130 159 130 159L60 159C26.862915010152406 159 7.848438341267089e-15 132.1370849898476 0 99.00000000000001Z" fill="url(#master_svg2_0_363)" fill-opacity="0.10000000149011612"/></g></g></g></svg>