<svg xmlns="http://www.w3.org/2000/svg" xmlns:xlink="http://www.w3.org/1999/xlink" fill="none" version="1.1" width="139" height="161" viewBox="0 0 139 161"><defs><clipPath id="master_svg0_20_0409"><rect x="0" y="0" width="139" height="161" rx="0"/></clipPath><mask id="master_svg1_20_0411"><g><path d="M-23.1669921875,80.6865C-23.1669921875,55.2122,-16.0835421875,35.3784,-1.9166921875000007,21.1849C12.250207812500001,6.99137,32.0662078125,-0.0700902,57.5313078125,0.000524365C83.5990078125,0.000524365,103.6710078125,6.96488,117.7490078125,20.8936C131.8280078125,34.8223,138.9110078125,54.3561,139.0000078125,79.4948C139.0000078125,97.7485,135.9190078125,112.701,129.7560078125,124.353C123.7620078125,135.872,114.4700078125,145.356,103.0600078125,151.601C91.4260078125,158.08,76.9310078125,161.328,59.576307812500005,161.346C41.86790781249999,161.346,27.2583078125,158.539,15.747707812500003,152.925C3.9083078124999986,147.046,-5.876892187500001,137.743,-12.3292921875,126.233C-19.554432187499998,114.105,-23.1669921875,98.9226,-23.1669921875,80.6865C-23.1669921875,80.6865,-23.1669921875,80.6865,-23.1669921875,80.6865ZM25.177507812499996,80.8982C25.177507812499996,96.6454,28.117107812500002,107.961,33.9964078125,114.846C36.9368078125,118.26,40.6164078125,120.963,44.757807812500005,122.752C48.899107812500006,124.541,53.393907812500004,125.369,57.9028078125,125.173C68.2806078125,125.173,76.3290078125,121.802,82.0490078125,115.058C87.7690078125,108.314,90.6110078125,96.2213,90.5760078125,78.7799C90.5760078125,64.092,87.6100078125,53.3586,81.6770078125,46.5796C78.6570078125,43.1961,74.9175078125,40.5274,70.7307078125,38.7681C66.5439078125,37.009,62.016807812500005,36.2037,57.477807812500004,36.4111C53.0337078125,36.2374,48.6082078125,37.0774,44.5389078125,38.8671C40.4696078125,40.6568,36.8638078125,43.349,33.9964078125,46.7386C28.134907812500003,53.6234,25.195307812499998,65.01,25.177507812499996,80.8982C25.177507812499996,80.8982,25.177507812499996,80.8982,25.177507812499996,80.8982Z" fill="#FFFFFF" fill-opacity="1"/></g></mask><linearGradient x1="0.6294558644294739" y1="-0.4796748161315918" x2="0.27861157059669495" y2="2.172607898712158" id="master_svg2_0_363"><stop offset="0%" stop-color="#BCFF15" stop-opacity="1"/><stop offset="100%" stop-color="#000000" stop-opacity="1"/></linearGradient></defs><g clip-path="url(#master_svg0_20_0409)" mask="url(#master_svg1_20_0411)"><g><path d="M0 1C0 1 0 1 0 1L139 1C139 1 139 1 139 1L139 160C139 160 139 160 139 160L60 160C26.862915010152406 160 7.848438341267089e-15 133.1370849898476 0 100.00000000000001Z" fill="url(#master_svg2_0_363)" fill-opacity="0.10000000149011612"/></g></g></svg>