<svg xmlns="http://www.w3.org/2000/svg" xmlns:xlink="http://www.w3.org/1999/xlink" fill="none" version="1.1" width="125" height="156" viewBox="0 0 125 156"><defs><clipPath id="master_svg0_20_0443"><rect x="0" y="0" width="125" height="156" rx="0"/></clipPath><mask id="master_svg1_20_0445"><g><path d="M-35.05147,0C-35.05147,0,18.6066,0,18.6066,0C18.6066,0,46.5055,47.9265,46.5055,47.9265C46.5055,47.9265,73.656,0,73.656,0C73.656,0,126.75200000000001,0,126.75200000000001,0C126.75200000000001,0,77.694,75.4454,77.694,75.4454C77.694,75.4454,131.379,155.755,131.379,155.755C131.379,155.755,76.651,155.755,76.651,155.755C76.651,155.755,45.5424,105.714,45.5424,105.714C45.5424,105.714,14.406999999999996,155.755,14.406999999999996,155.755C14.406999999999996,155.755,-40,155.755,-40,155.755C-40,155.755,14.380299999999998,74.5465,14.380299999999998,74.5465C14.380299999999998,74.5465,-35.05147,0,-35.05147,0C-35.05147,0,-35.05147,0,-35.05147,0Z" fill="#FFFFFF" fill-opacity="1"/></g></mask><linearGradient x1="0.6294558644294739" y1="-0.4796748161315918" x2="0.27861157059669495" y2="2.172607898712158" id="master_svg2_0_363"><stop offset="0%" stop-color="#BCFF15" stop-opacity="1"/><stop offset="100%" stop-color="#000000" stop-opacity="1"/></linearGradient></defs><g><g clip-path="url(#master_svg0_20_0443)" mask="url(#master_svg1_20_0445)"><g><rect x="0" y="0" width="128" height="153" rx="0" fill="url(#master_svg2_0_363)" fill-opacity="0.10000000149011612"/></g></g></g></svg>