<svg width="18" height="18" viewBox="0 0 18 18" fill="none" xmlns="http://www.w3.org/2000/svg">
<rect x="0.25" y="0.25" width="17.5" height="17.5" stroke="#00FF9F" stroke-width="0.5"/>
<path d="M8.48 13.132C7.824 13.132 7.252 13.02 6.764 12.796C6.276 12.564 5.832 12.216 5.432 11.752L6.62 10.54C6.884 10.86 7.176 11.112 7.496 11.296C7.816 11.472 8.184 11.56 8.6 11.56C8.992 11.56 9.296 11.488 9.512 11.344C9.728 11.192 9.836 10.98 9.836 10.708C9.836 10.476 9.764 10.288 9.62 10.144C9.484 10 9.3 9.876 9.068 9.772C8.836 9.668 8.58 9.568 8.3 9.472C8.02 9.376 7.74 9.268 7.46 9.148C7.188 9.02 6.936 8.864 6.704 8.68C6.472 8.488 6.284 8.252 6.14 7.972C5.996 7.684 5.924 7.324 5.924 6.892C5.924 6.372 6.048 5.924 6.296 5.548C6.552 5.172 6.9 4.888 7.34 4.696C7.78 4.496 8.284 4.396 8.852 4.396C9.404 4.396 9.92 4.5 10.4 4.708C10.88 4.916 11.272 5.2 11.576 5.56L10.388 6.772C10.14 6.508 9.888 6.308 9.632 6.172C9.384 6.028 9.112 5.956 8.816 5.956C8.472 5.956 8.204 6.02 8.012 6.148C7.82 6.276 7.724 6.464 7.724 6.712C7.724 6.928 7.796 7.104 7.94 7.24C8.084 7.368 8.272 7.48 8.504 7.576C8.744 7.672 9 7.768 9.272 7.864C9.552 7.96 9.832 8.072 10.112 8.2C10.392 8.328 10.648 8.492 10.88 8.692C11.12 8.884 11.312 9.132 11.456 9.436C11.6 9.732 11.672 10.1 11.672 10.54C11.672 11.348 11.388 11.984 10.82 12.448C10.26 12.904 9.48 13.132 8.48 13.132ZM8.084 12.196H9.404V14.212H8.084V12.196ZM9.404 5.26H8.084V3.316H9.404V5.26Z" fill="#00FF9F"/>
</svg>
