<svg width="18" height="18" viewBox="0 0 18 18" fill="none" xmlns="http://www.w3.org/2000/svg">
<path fill-rule="evenodd" clip-rule="evenodd" d="M4 6C4 4.89543 4.89543 4 6 4H12C13.1046 4 14 4.89543 14 6V12C14 13.1046 13.1046 14 12 14H6C4.89543 14 4 13.1046 4 12V6ZM5.6543 6.13359C5.6543 6.32692 5.81102 6.48364 6.00435 6.48364H11.9917C12.1851 6.48364 12.3418 6.32692 12.3418 6.13359C12.3418 5.94026 12.1851 5.78353 11.9917 5.78353H6.00435C5.81102 5.78353 5.6543 5.94026 5.6543 6.13359ZM6.00435 8.39453C5.81102 8.39453 5.6543 8.23781 5.6543 8.04448C5.6543 7.85114 5.81102 7.69442 6.00435 7.69442H11.9917C12.1851 7.69442 12.3418 7.85114 12.3418 8.04448C12.3418 8.23781 12.1851 8.39453 11.9917 8.39453H6.00435ZM5.6543 9.95549C5.6543 10.1488 5.81102 10.3055 6.00435 10.3055H11.9917C12.1851 10.3055 12.3418 10.1488 12.3418 9.95549C12.3418 9.76216 12.1851 9.60543 11.9917 9.60543H6.00435C5.81102 9.60543 5.6543 9.76216 5.6543 9.95549ZM6.00435 12.2163C5.81102 12.2163 5.6543 12.0596 5.6543 11.8663C5.6543 11.6729 5.81102 11.5162 6.00435 11.5162H11.9917C12.1851 11.5162 12.3418 11.6729 12.3418 11.8663C12.3418 12.0596 12.1851 12.2163 11.9917 12.2163H6.00435Z" fill="#80AE0E"/>
<circle cx="9" cy="9" r="8.75" stroke="#80AE0E" stroke-width="0.5"/>
</svg>
