<svg width="18" height="18" viewBox="0 0 18 18" fill="none" xmlns="http://www.w3.org/2000/svg">
<rect x="0.25" y="0.25" width="17.5" height="17.5" stroke="#E0EE8D" stroke-width="0.5"/>
<circle cx="6" cy="7.5" r="1.5" fill="#E0EE8D"/>
<circle cx="12" cy="7.5" r="1.5" fill="#E0EE8D"/>
<path d="M8.5 11.5C8.5 10.837 8.23661 10.2011 7.76777 9.73223C7.29893 9.26339 6.66304 9 6 9C5.33696 9 4.70107 9.26339 4.23223 9.73223C3.76339 10.2011 3.5 10.837 3.5 11.5L6 11.5H8.5Z" fill="#E0EE8D"/>
<path d="M14.5 11.5C14.5 10.837 14.2366 10.2011 13.7678 9.73223C13.2989 9.26339 12.663 9 12 9C11.337 9 10.7011 9.26339 10.2322 9.73223C9.76339 10.2011 9.5 10.837 9.5 11.5L12 11.5H14.5Z" fill="#E0EE8D"/>
</svg>
