<svg width="18" height="18" viewBox="0 0 18 18" fill="none" xmlns="http://www.w3.org/2000/svg">
<circle cx="9" cy="9" r="8.75" stroke="#80AE0E" stroke-width="0.5"/>
<path d="M14 9C14 8.01109 13.7068 7.04439 13.1573 6.22215C12.6079 5.3999 11.827 4.75904 10.9134 4.3806C9.99979 4.00216 8.99445 3.90315 8.02455 4.09607C7.05464 4.289 6.16373 4.7652 5.46447 5.46447C4.7652 6.16373 4.289 7.05464 4.09607 8.02455C3.90315 8.99445 4.00216 9.99979 4.3806 10.9134C4.75904 11.827 5.3999 12.6079 6.22215 13.1573C7.04439 13.7068 8.01109 14 9 14V9H14Z" fill="#80AE0E"/>
<path d="M10 14C10.5253 14 11.0454 13.8965 11.5307 13.6955C12.016 13.4945 12.457 13.1999 12.8284 12.8284C13.1999 12.457 13.4945 12.016 13.6955 11.5307C13.8965 11.0454 14 10.5253 14 10L10 10L10 14Z" fill="#80AE0E"/>
</svg>
